{
.appVersion = "1246";
DisplayStrings = (
"/alefMaksura-ar"
);
classes = (
{
automatic = 1;
code = "alef-ar alef-ar.fina alefHamzaabove-ar alefHamzaabove-ar.fina alefHamzabelow-ar alefHamzabelow-ar.fina alefMadda-ar alefMadda-ar.fina alefMaksura-ar alefWasla-ar alefWasla-ar.fina dal-ar dal-ar.fina ddal-ar hehgoalHamzaabove-ar jeh-ar lam_alef-ar lam_alef-ar.fina lam_alefHamzaabove-ar lam_alefHamzaabove-ar.fina lam_alefHamzabelow-ar lam_alefHamzabelow-ar.fina lam_alefMadda-ar lam_alefMadda-ar.fina lam_alefWasla-ar lam_alefWasla-ar.fina noonghunna-ar noonghunna-ar.fina reh-ar reh-ar.fina rreh-ar tehMarbuta-ar tehMarbutagoal-ar thal-ar thal-ar.fina waw-ar waw-ar.fina wawHamzaabove-ar wawHamzaabove-ar.fina zain-ar zain-ar.fina";
name = ArabicLetters;
}
);
copyright = "Alexandre Texier — 2019";
customParameters = (
{
name = Axes;
value = (
{
Name = Height;
Tag = HGTH;
},
{
Name = Connexion;
Tag = CNCT;
}
);
},
{
name = license;
value = "Font Software licensed under the SIL Open Font License, version 1.1.";
},
{
name = licenseURL;
value = "http://scripts.sil.org/OFL";
},
{
name = description;
value = "Un caractère typographique basé sur la calligraphie koufi carré.";
},
{
name = unicodeRanges;
value = (
0,
1,
13,
63,
67
);
}
);
date = "2019-04-23 08:36:29 +0000";
designer = "Alexandre Texier";
designerURL = "https://github.com/AlexandreTexier/Matahah";
familyName = MatahahX;
featurePrefixes = (
{
automatic = 1;
code = "languagesystem DFLT dflt;\012languagesystem arab dflt;\012languagesystem latn dflt;\012languagesystem cyrl dflt;\012languagesystem latn ROM;\012languagesystem latn MOL;\012languagesystem latn KAZ;\012languagesystem latn TRK;\012languagesystem latn CRT;\012languagesystem latn AZE;\012languagesystem cyrl TAT;\012languagesystem arab URD;\012";
name = Languagesystems;
}
);
features = (
{
automatic = 1;
code = "feature locl;\012feature isol;\012feature init;\012feature medi;\012feature fina;\012";
name = aalt;
},
{
automatic = 1;

glyphs = (
{
glyphname = A;
lastChange = "2019-06-08 15:51:38 +0000";
layers = (
{
anchors = (
{
name = bottom;
position = "{200, 0}";
},
{
name = ogonek;
position = "{295, 0}";
},
{
name = top;
position = "{200, 500}";
}
);
layerId = "4DDCB0F7-694C-40EE-9BA1-BC0E1DE62EB1";
paths = (
{
closed = 1;
nodes = (
"150 0 LINE",
"150 100 LINE",
"250 100 LINE",
"250 0 LINE",
"350 0 LINE",
"350 500 LINE",
"50 500 LINE",
"50 0 LINE"
);
},
{
closed = 1;
nodes = (
"150 400 LINE",
"250 400 LINE",
"250 200 LINE",
"150 200 LINE"
);
}
);
width = 400;
},
{
anchors = (
{
name = bottom;
position = "{200, 0}";
},
{
name = ogonek;
position = "{295, 0}";
},
{
name = top;
position = "{200, 500}";
}
);
layerId = "1A5BB28E-E649-4EB3-8E8F-86ABB724B914";
paths = (
{
closed = 1;
nodes = (
"150 -100 LINE",
"150 100 LINE",
"250 100 LINE",
"250 0 LINE",
"350 0 LINE",
"350 500 LINE",
"50 500 LINE",
"50 -100 LINE"
);
},
{
closed = 1;
nodes = (
"150 400 LINE",
"250 400 LINE",
"250 200 LINE",
"150 200 LINE"
);
}
);
width = 400;
},
{
anchors = (
{
name = bottom;
position = "{200, 0}";
},
{
name = ogonek;
position = "{295, -100}";
},
{
name = top;
position = "{200, 500}";
}
);
layerId = "066B400D-25E0-4076-ABC6-3C593E532716";
paths = (
{
closed = 1;
nodes = (
"150 0 LINE",
"150 100 LINE",
"250 100 LINE",
"250 -100 LINE",
"350 -100 LINE",
"350 500 LINE",
"50 500 LINE",
"50 0 LINE"
);
},
{
closed = 1;
nodes = (
"150 400 LINE",
"250 400 LINE",
"250 200 LINE",
"150 200 LINE"
);
}
);
width = 400;
},
{
anchors = (
{
name = bottom;
position = "{200, -100}";
},
{
name = ogonek;
position = "{295, -100}";
},
{
name = top;
position = "{200, 500}";
}
);
layerId = "8A554741-4702-4062-BB66-90759B2989E8";
paths = (
{
closed = 1;
nodes = (
"150 -100 LINE",
"150 100 LINE",
"250 100 LINE",
"250 -100 LINE",
"350 -100 LINE",
"350 500 LINE",
"50 500 LINE",
"50 -100 LINE"
);
},
{
closed = 1;
nodes = (
"150 400 LINE",
"250 400 LINE",
"250 200 LINE",
"150 200 LINE"
);
}
);
width = 400;
},
{
anchors = (
{
name = bottom;
position = "{200, 0}";
},
{
name = ogonek;
position = "{295, 0}";
},
{
name = top;
position = "{200, 600}";
}
);
layerId = "85A323BC-B6ED-4BBF-BDC0-2512995D313B";
paths = (
{
closed = 1;
nodes = (
"150 0 LINE",
"150 100 LINE",
"250 100 LINE",
"250 0 LINE",
"350 0 LINE",
"350 600 LINE",
"50 600 LINE",
"50 0 LINE"
);
},
{
closed = 1;
nodes = (
"150 500 LINE",
"250 500 LINE",
"250 200 LINE",
"150 200 LINE"
);
}
);
width = 400;
},
{
anchors = (
{
name = bottom;
position = "{200, 0}";
},
{
name = ogonek;
position = "{295, 0}";
},
{
name = top;
position = "{200, 700}";
}
);
layerId = "58F0F7D9-EF21-4AE8-AA27-0883B656C4D9";
paths = (
{
closed = 1;
nodes = (
"150 0 LINE",
"150 100 LINE",
"250 100 LINE",
"250 0 LINE",
"350 0 LINE",
"350 700 LINE",
"50 700 LINE",
"50 0 LINE"
);
},
{
closed = 1;
nodes = (
"150 600 LINE",
"250 600 LINE",
"250 200 LINE",
"150 200 LINE"
);
}
);
width = 400;
},
{
anchors = (
{
name = bottom;
position = "{200, 0}";
},
{
name = ogonek;
position = "{295, 0}";
},
{
name = top;
position = "{200, 800}";
}
);
layerId = "3368C2D0-32A5-4C39-8D28-9DDD3DF16F4F";
paths = (
{
closed = 1;
nodes = (
"150 0 LINE",
"150 100 LINE",
"250 100 LINE",
"250 0 LINE",
"350 0 LINE",
"350 800 LINE",
"50 800 LINE",
"50 0 LINE"
);
},
{
closed = 1;
nodes = (
"150 700 LINE",
"250 700 LINE",
"250 200 LINE",
"150 200 LINE"
);
}
);
width = 400;
},
{
anchors = (
{
name = bottom;
position = "{200, -100}";
},
{
name = ogonek;
position = "{295, -100}";
},
{
name = top;
position = "{200, 500}";
}
);
layerId = "63CBFDDD-5FDA-43A8-A05C-FA26C6515AD1";
paths = (
{
closed = 1;
nodes = (
"150 -100 LINE",
"150 100 LINE",
"250 100 LINE",
"250 -100 LINE",
"350 -100 LINE",
"350 500 LINE",
"50 500 LINE",
"50 -100 LINE"
);
},
{
closed = 1;
nodes = (
"150 400 LINE",
"250 400 LINE",
"250 200 LINE",
"150 200 LINE"
);
}
);
width = 400;
},
{
anchors = (
{
name = bottom;
position = "{200, -100}";
},
{
name = ogonek;
position = "{295, -100}";
},
{
name = top;
position = "{200, 500}";
}
);
layerId = "CF134569-8278-46EB-8532-B06C964AA883";
paths = (
{
closed = 1;
nodes = (
"150 -100 LINE",
"150 100 LINE",
"250 100 LINE",
"250 -100 LINE",
"350 -100 LINE",
"350 500 LINE",
"50 500 LINE",
"50 -100 LINE"
);
},
{
closed = 1;
nodes = (
"150 400 LINE",
"250 400 LINE",
"250 200 LINE",
"150 200 LINE"
);
}
);
width = 400;
},
{
anchors = (
{
name = bottom;
position = "{200, -100}";
},
{
name = ogonek;
position = "{295, -100}";
},
{
name = top;
position = "{200, 500}";
}
);
layerId = "E8EB710A-6856-432C-AFE6-A1B9D47CAF04";
paths = (
{
closed = 1;
nodes = (
"150 -100 LINE",
"150 100 LINE",
"250 100 LINE",
"250 -100 LINE",
"350 -100 LINE",
"350 500 LINE",
"50 500 LINE",
"50 -100 LINE"
);
},
{
closed = 1;
nodes = (
"150 400 LINE",
"250 400 LINE",
"250 200 LINE",
"150 200 LINE"
);
}
);
width = 400;
},
{
anchors = (
{
name = bottom;
position = "{200, -100}";
},
{
name = ogonek;
position = "{295, -100}";
},
{
name = top;
position = "{200, 500}";
}
);
layerId = "0F8CD6F6-1A2C-4C7A-A427-3AAD4A6CFB6E";
paths = (
{
closed = 1;
nodes = (
"150 -100 LINE",
"150 100 LINE",
"250 100 LINE",
"250 -100 LINE",
"350 -100 LINE",
"350 500 LINE",
"50 500 LINE",
"50 -100 LINE"
);
},
{
closed = 1;
nodes = (
"150 400 LINE",
"250 400 LINE",
"250 200 LINE",
"150 200 LINE"
);
}
);
width = 400;
},
{
anchors = (
{
name = bottom;
position = "{200, 0}";
},
{
name = ogonek;
position = "{295, 0}";
},
{
name = top;
position = "{200, 900}";
}
);
layerId = "41108C99-B873-4F4A-9E88-CBCA12FB0D05";
paths = (
{
closed = 1;
nodes = (
"150 0 LINE",
"150 100 LINE",
"250 100 LINE",
"250 0 LINE",
"350 0 LINE",
"350 900 LINE",
"50 900 LINE",
"50 0 LINE"
);
},
{
closed = 1;
nodes = (
"150 800 LINE",
"250 800 LINE",
"250 200 LINE",
"150 200 LINE"
);
}
);
width = 400;
},
{
anchors = (
{
name = bottom;
position = "{200, 0}";
},
{
name = ogonek;
position = "{295, 0}";
},
{
name = top;
position = "{200, 1000}";
}
);
layerId = "5D56F4E4-2991-4C7C-A53E-FE560A092132";
paths = (
{
closed = 1;
nodes = (
"150 0 LINE",
"150 100 LINE",
"250 100 LINE",
"250 0 LINE",
"350 0 LINE",
"350 1000 LINE",
"50 1000 LINE",
"50 0 LINE"
);
},
{
closed = 1;
nodes = (
"150 900 LINE",
"250 900 LINE",
"250 200 LINE",
"150 200 LINE"
);
}
);
width = 400;
},
{
anchors = (
{
name = bottom;
position = "{200, 0}";
},
{
name = ogonek;
position = "{295, 0}";
},
{
name = top;
position = "{200, 1100}";
}
);
layerId = "9A1EF6BF-4314-493F-A17F-58969295D1C4";
paths = (
{
closed = 1;
nodes = (
"150 0 LINE",
"150 100 LINE",
"250 100 LINE",
"250 0 LINE",
"350 0 LINE",
"350 1100 LINE",
"50 1100 LINE",
"50 0 LINE"
);
},
{
closed = 1;
nodes = (
"150 1000 LINE",
"250 1000 LINE",
"250 200 LINE",
"150 200 LINE"
);
}
);
width = 400;
},
{
anchors = (
{
name = bottom;
position = "{200, 0}";
},
{
name = ogonek;
position = "{295, 0}";
},
{
name = top;
position = "{200, 1100}";
}
);
layerId = "2B4E891D-0483-4126-8041-32DB51B0785F";
paths = (
{
closed = 1;
nodes = (
"150 0 LINE",
"150 100 LINE",
"250 100 LINE",
"250 0 LINE",
"350 0 LINE",
"350 1100 LINE",
"50 1100 LINE",
"50 0 LINE"
);
},
{
closed = 1;
nodes = (
"150 1000 LINE",
"250 1000 LINE",
"250 200 LINE",
"150 200 LINE"
);
}
);
width = 400;
},
{
anchors = (
{
name = bottom;
position = "{200, 0}";
},
{
name = ogonek;
position = "{295, 0}";
},
{
name = top;
position = "{200, 1100}";
}
);
layerId = "0BC27080-89BE-4C15-A6F1-E37C70B5878F";
paths = (
{
closed = 1;
nodes = (
"150 0 LINE",
"150 100 LINE",
"250 100 LINE",
"250 0 LINE",
"350 0 LINE",
"350 1100 LINE",
"50 1100 LINE",
"50 0 LINE"
);
},
{
closed = 1;
nodes = (
"150 1000 LINE",
"250 1000 LINE",
"250 200 LINE",
"150 200 LINE"
);
}
);
width = 400;
},
{
anchors = (
{
name = bottom;
position = "{200, -100}";
},
{
name = ogonek;
position = "{295, -100}";
},
{
name = top;
position = "{200, 500}";
}
);
layerId = "B23A0BE0-4E2E-4DF4-BF30-A2BC448F9F8A";
paths = (
{
closed = 1;
nodes = (
"150 -100 LINE",
"150 100 LINE",
"250 100 LINE",
"250 -100 LINE",
"350 -100 LINE",
"350 500 LINE",
"50 500 LINE",
"50 -100 LINE"
);
},
{
closed = 1;
nodes = (
"150 400 LINE",
"250 400 LINE",
"250 200 LINE",
"150 200 LINE"
);
}
);
width = 400;
},
{
anchors = (
{
name = bottom;
position = "{200, -100}";
},
{
name = ogonek;
position = "{295, -100}";
},
{
name = top;
position = "{200, 500}";
}
);
layerId = "88AB7EF4-8E55-4FD8-B008-AC05EDAD63AD";
paths = (
{
closed = 1;
nodes = (
"150 -100 LINE",
"150 100 LINE",
"250 100 LINE",
"250 -100 LINE",
"350 -100 LINE",
"350 500 LINE",
"50 500 LINE",
"50 -100 LINE"
);
},
{
closed = 1;
nodes = (
"150 400 LINE",
"250 400 LINE",
"250 200 LINE",
"150 200 LINE"
);
}
);
width = 400;
},
{
anchors = (
{
name = bottom;
position = "{200, -100}";
},
{
name = ogonek;
position = "{295, -100}";
},
{
name = top;
position = "{200, 500}";
}
);
layerId = "B0007273-59F2-4CFD-A0FF-908ED627D6A1";
paths = (
{
closed = 1;
nodes = (
"150 -100 LINE",
"150 100 LINE",
"250 100 LINE",
"250 -100 LINE",
"350 -100 LINE",
"350 500 LINE",
"50 500 LINE",
"50 -100 LINE"
);
},
{
closed = 1;
nodes = (
"150 400 LINE",
"250 400 LINE",
"250 200 LINE",
"150 200 LINE"
);
}
);
width = 400;
},
{
anchors = (
{
name = bottom;
position = "{200, -100}";
},
{
name = ogonek;
position = "{295, -100}";
},
{
name = top;
position = "{200, 500}";
}
);
layerId = "27366F57-305D-4002-8F95-2432B7DC5E73";
paths = (
{
closed = 1;
nodes = (
"150 -100 LINE",
"150 100 LINE",
"250 100 LINE",
"250 -100 LINE",
"350 -100 LINE",
"350 500 LINE",
"50 500 LINE",
"50 -100 LINE"
);
},
{
closed = 1;
nodes = (
"150 400 LINE",
"250 400 LINE",
"250 200 LINE",
"150 200 LINE"
);
}
);
width = 400;
},
{
anchors = (
{
name = bottom;
position = "{200, -100}";
},
{
name = ogonek;
position = "{295, -100}";
},
{
name = top;
position = "{200, 500}";
}
);
layerId = "2A7B0294-BC97-4636-A9D3-8FF17374F61F";
paths = (
{
closed = 1;
nodes = (
"150 -100 LINE",
"150 100 LINE",
"250 100 LINE",
"250 -100 LINE",
"350 -100 LINE",
"350 500 LINE",
"50 500 LINE",
"50 -100 LINE"
);
},
{
closed = 1;
nodes = (
"150 400 LINE",
"250 400 LINE",
"250 200 LINE",
"150 200 LINE"
);
}
);
width = 400;
},
{
anchors = (
{
name = bottom;
position = "{200, -100}";
},
{
name = ogonek;
position = "{295, -100}";
},
{
name = top;
position = "{200, 500}";
}
);
layerId = "2B5AA849-E4E9-4E2A-878C-F5A75DAAE598";
paths = (
{
closed = 1;
nodes = (
"150 -100 LINE",
"150 100 LINE",
"250 100 LINE",
"250 -100 LINE",
"350 -100 LINE",
"350 500 LINE",
"50 500 LINE",
"50 -100 LINE"
);
},
{
closed = 1;
nodes = (
"150 400 LINE",
"250 400 LINE",
"250 200 LINE",
"150 200 LINE"
);
}
);
width = 400;
},
{
anchors = (
{
name = bottom;
position = "{200, -100}";
},
{
name = ogonek;
position = "{295, -100}";
},
{
name = top;
position = "{200, 500}";
}
);
layerId = "B8F51F5F-46B4-48F2-BB1F-FCDE2D036373";
paths = (
{
closed = 1;
nodes = (
"150 -100 LINE",
"150 100 LINE",
"250 100 LINE",
"250 -100 LINE",
"350 -100 LINE",
"350 500 LINE",
"50 500 LINE",
"50 -100 LINE"
);
},
{
closed = 1;
nodes = (
"150 400 LINE",
"250 400 LINE",
"250 200 LINE",
"150 200 LINE"
);
}
);
width = 400;
},
{
anchors = (
{
name = bottom;
position = "{200, -100}";
},
{
name = ogonek;
position = "{295, -100}";
},
{
name = top;
position = "{200, 500}";
}
);
layerId = "6F3F633C-62D2-446A-B7E2-3DF68A2746C0";
paths = (
{
closed = 1;
nodes = (
"150 -100 LINE",
"150 100 LINE",
"250 100 LINE",
"250 -100 LINE",
"350 -100 LINE",
"350 500 LINE",
"50 500 LINE",
"50 -100 LINE"
);
},
{
closed = 1;
nodes = (
"150 400 LINE",
"250 400 LINE",
"250 200 LINE",
"150 200 LINE"
);
}
);
width = 400;
}
);
unicode = 0041;
},
{
glyphname = AE;
lastChange = "2019-06-08 15:51:38 +0000";
layers = (
{
layerId = "4DDCB0F7-694C-40EE-9BA1-BC0E1DE62EB1";
paths = (
{
closed = 1;
nodes = (
"150 0 LINE",
"150 100 LINE",
"250 100 LINE",
"250 0 LINE",
"550 0 LINE",
"550 100 LINE",
"350 100 LINE",
"350 200 LINE",
"550 200 LINE",
"550 300 LINE",
"350 300 LINE",
"350 400 LINE",
"550 400 LINE",
"550 500 LINE",
"50 500 LINE",
"50 0 LINE"
);
},
{
closed = 1;
nodes = (
"150 400 LINE",
"250 400 LINE",
"250 200 LINE",
"150 200 LINE"
);
}
);
width = 600;
},
{
layerId = "1A5BB28E-E649-4EB3-8E8F-86ABB724B914";
paths = (
{
closed = 1;
nodes = (
"150 0 LINE",
"150 100 LINE",
"250 100 LINE",
"250 0 LINE",
"550 0 LINE",
"550 100 LINE",
"350 100 LINE",
"350 200 LINE",
"550 200 LINE",
"550 300 LINE",
"350 300 LINE",
"350 400 LINE",
"650 400 LINE",
"650 500 LINE",
"50 500 LINE",
"50 0 LINE"
);
},
{
closed = 1;
nodes = (
"150 400 LINE",
"250 400 LINE",
"250 200 LINE",
"150 200 LINE"
);
}
);
width = 600;
},
{
layerId = "066B400D-25E0-4076-ABC6-3C593E532716";
paths = (
{
closed = 1;
nodes = (
"150 0 LINE",
"150 100 LINE",
"250 100 LINE",
"250 0 LINE",
"550 0 LINE",
"550 100 LINE",
"350 100 LINE",
"350 200 LINE",
"650 200 LINE",
"650 300 LINE",
"350 300 LINE",
"350 400 LINE",
"550 400 LINE",
"550 500 LINE",
"50 500 LINE",
"50 0 LINE"
);
},
{
closed = 1;
nodes = (
"150 400 LINE",
"250 400 LINE",
"250 200 LINE",
"150 200 LINE"
);
}
);
width = 600;
},
{
layerId = "8A554741-4702-4062-BB66-90759B2989E8";
paths = (
{
closed = 1;
nodes = (
"150 0 LINE",
"150 100 LINE",
"250 100 LINE",
"250 0 LINE",
"650 0 LINE",
"650 100 LINE",
"350 100 LINE",
"350 200 LINE",
"550 200 LINE",
"550 300 LINE",
"350 300 LINE",
"350 400 LINE",
"550 400 LINE",
"550 500 LINE",
"50 500 LINE",
"50 0 LINE"
);
},
{
closed = 1;
nodes = (
"150 400 LINE",
"250 400 LINE",
"250 200 LINE",
"150 200 LINE"
);
}
);
width = 600;
},
{
layerId = "85A323BC-B6ED-4BBF-BDC0-2512995D313B";
paths = (
{
closed = 1;
nodes = (
"150 0 LINE",
"150 200 LINE",
"250 200 LINE",
"250 0 LINE",
"550 0 LINE",
"550 100 LINE",
"350 100 LINE",
"350 200 LINE",
"550 200 LINE",
"550 300 LINE",
"350 300 LINE",
"350 500 LINE",
"550 500 LINE",
"550 600 LINE",
"50 600 LINE",
"50 0 LINE"
);
},
{
closed = 1;
nodes = (
"150 500 LINE",
"250 500 LINE",
"250 300 LINE",
"150 300 LINE"
);
}
);
width = 600;
},
{
layerId = "58F0F7D9-EF21-4AE8-AA27-0883B656C4D9";
paths = (
{
closed = 1;
nodes = (
"150 0 LINE",
"150 200 LINE",
"250 200 LINE",
"250 0 LINE",
"550 0 LINE",
"550 100 LINE",
"350 100 LINE",
"350 300 LINE",
"550 300 LINE",
"550 400 LINE",
"350 400 LINE",
"350 600 LINE",
"550 600 LINE",
"550 700 LINE",
"50 700 LINE",
"50 0 LINE"
);
},
{
closed = 1;
nodes = (
"150 600 LINE",
"250 600 LINE",
"250 300 LINE",
"150 300 LINE"
);
}
);
width = 600;
},
{
layerId = "3368C2D0-32A5-4C39-8D28-9DDD3DF16F4F";
paths = (
{
closed = 1;
nodes = (
"150 0 LINE",
"150 300 LINE",
"250 300 LINE",
"250 0 LINE",
"550 0 LINE",
"550 100 LINE",
"350 100 LINE",
"350 300 LINE",
"550 300 LINE",
"550 400 LINE",
"350 400 LINE",
"350 700 LINE",
"550 700 LINE",
"550 800 LINE",
"50 800 LINE",
"50 0 LINE"
);
},
{
closed = 1;
nodes = (
"150 700 LINE",
"250 700 LINE",
"250 400 LINE",
"150 400 LINE"
);
}
);
width = 600;
},
{
layerId = "63CBFDDD-5FDA-43A8-A05C-FA26C6515AD1";
paths = (
{
closed = 1;
nodes = (
"150 -100 LINE",
"150 100 LINE",
"250 100 LINE",
"250 0 LINE",
"550 0 LINE",
"550 100 LINE",
"350 100 LINE",
"350 200 LINE",
"550 200 LINE",
"550 300 LINE",
"350 300 LINE",
"350 400 LINE",
"550 400 LINE",
"550 500 LINE",
"50 500 LINE",
"50 -100 LINE"
);
},
{
closed = 1;
nodes = (
"150 400 LINE",
"250 400 LINE",
"250 200 LINE",
"150 200 LINE"
);
}
);
width = 600;
},
{
layerId = "CF134569-8278-46EB-8532-B06C964AA883";
paths = (
{
closed = 1;
nodes = (
"150 0 LINE",
"150 100 LINE",
"250 100 LINE",
"250 0 LINE",
"550 0 LINE",
"550 100 LINE",
"350 100 LINE",
"350 200 LINE",
"650 200 LINE",
"650 300 LINE",
"350 300 LINE",
"350 400 LINE",
"650 400 LINE",
"650 500 LINE",
"50 500 LINE",
"50 0 LINE"
);
},
{
closed = 1;
nodes = (
"150 400 LINE",
"250 400 LINE",
"250 200 LINE",
"150 200 LINE"
);
}
);
width = 600;
},
{
layerId = "E8EB710A-6856-432C-AFE6-A1B9D47CAF04";
paths = (
{
closed = 1;
nodes = (
"150 0 LINE",
"150 100 LINE",
"250 100 LINE",
"250 0 LINE",
"650 0 LINE",
"650 100 LINE",
"350 100 LINE",
"350 200 LINE",
"550 200 LINE",
"550 300 LINE",
"350 300 LINE",
"350 400 LINE",
"650 400 LINE",
"650 500 LINE",
"50 500 LINE",
"50 0 LINE"
);
},
{
closed = 1;
nodes = (
"150 400 LINE",
"250 400 LINE",
"250 200 LINE",
"150 200 LINE"
);
}
);
width = 600;
},
{
layerId = "0F8CD6F6-1A2C-4C7A-A427-3AAD4A6CFB6E";
paths = (
{
closed = 1;
nodes = (
"150 -100 LINE",
"150 100 LINE",
"250 100 LINE",
"250 0 LINE",
"550 0 LINE",
"550 100 LINE",
"350 100 LINE",
"350 200 LINE",
"550 200 LINE",
"550 300 LINE",
"350 300 LINE",
"350 400 LINE",
"650 400 LINE",
"650 500 LINE",
"50 500 LINE",
"50 -100 LINE"
);
},
{
closed = 1;
nodes = (
"150 400 LINE",
"250 400 LINE",
"250 200 LINE",
"150 200 LINE"
);
}
);
width = 600;
},
{
layerId = "41108C99-B873-4F4A-9E88-CBCA12FB0D05";
paths = (
{
closed = 1;
nodes = (
"150 0 LINE",
"150 300 LINE",
"250 300 LINE",
"250 0 LINE",
"550 0 LINE",
"550 100 LINE",
"350 100 LINE",
"350 400 LINE",
"550 400 LINE",
"550 500 LINE",
"350 500 LINE",
"350 800 LINE",
"550 800 LINE",
"550 900 LINE",
"50 900 LINE",
"50 0 LINE"
);
},
{
closed = 1;
nodes = (
"150 800 LINE",
"250 800 LINE",
"250 400 LINE",
"150 400 LINE"
);
}
);
width = 600;
},
{
layerId = "5D56F4E4-2991-4C7C-A53E-FE560A092132";
paths = (
{
closed = 1;
nodes = (
"150 0 LINE",
"150 400 LINE",
"250 400 LINE",
"250 0 LINE",
"550 0 LINE",
"550 100 LINE",
"350 100 LINE",
"350 400 LINE",
"550 400 LINE",
"550 500 LINE",
"350 500 LINE",
"350 900 LINE",
"550 900 LINE",
"550 1000 LINE",
"50 1000 LINE",
"50 0 LINE"
);
},
{
closed = 1;
nodes = (
"150 900 LINE",
"250 900 LINE",
"250 500 LINE",
"150 500 LINE"
);
}
);
width = 600;
},
{
layerId = "9A1EF6BF-4314-493F-A17F-58969295D1C4";
paths = (
{
closed = 1;
nodes = (
"150 0 LINE",
"150 400 LINE",
"250 400 LINE",
"250 0 LINE",
"550 0 LINE",
"550 100 LINE",
"350 100 LINE",
"350 500 LINE",
"550 500 LINE",
"550 600 LINE",
"350 600 LINE",
"350 1000 LINE",
"550 1000 LINE",
"550 1100 LINE",
"50 1100 LINE",
"50 0 LINE"
);
},
{
closed = 1;
nodes = (
"150 1000 LINE",
"250 1000 LINE",
"250 500 LINE",
"150 500 LINE"
);
}
);
width = 600;
},
{
layerId = "2B4E891D-0483-4126-8041-32DB51B0785F";
paths = (
{
closed = 1;
nodes = (
"150 0 LINE",
"150 400 LINE",
"250 400 LINE",
"250 0 LINE",
"550 0 LINE",
"550 100 LINE",
"350 100 LINE",
"350 500 LINE",
"550 500 LINE",
"550 600 LINE",
"350 600 LINE",
"350 1000 LINE",
"550 1000 LINE",
"550 1100 LINE",
"50 1100 LINE",
"50 0 LINE"
);
},
{
closed = 1;
nodes = (
"150 1000 LINE",
"250 1000 LINE",
"250 500 LINE",
"150 500 LINE"
);
}
);
width = 600;
},
{
layerId = "0BC27080-89BE-4C15-A6F1-E37C70B5878F";
paths = (
{
closed = 1;
nodes = (
"150 0 LINE",
"150 400 LINE",
"250 400 LINE",
"250 0 LINE",
"550 0 LINE",
"550 100 LINE",
"350 100 LINE",
"350 500 LINE",
"550 500 LINE",
"550 600 LINE",
"350 600 LINE",
"350 1000 LINE",
"550 1000 LINE",
"550 1100 LINE",
"50 1100 LINE",
"50 0 LINE"
);
},
{
closed = 1;
nodes = (
"150 1000 LINE",
"250 1000 LINE",
"250 500 LINE",
"150 500 LINE"
);
}
);
width = 600;
},
{
layerId = "B23A0BE0-4E2E-4DF4-BF30-A2BC448F9F8A";
paths = (
{
closed = 1;
nodes = (
"150 -100 LINE",
"150 100 LINE",
"250 100 LINE",
"250 0 LINE",
"550 0 LINE",
"550 100 LINE",
"350 100 LINE",
"350 200 LINE",
"550 200 LINE",
"550 300 LINE",
"350 300 LINE",
"350 400 LINE",
"650 400 LINE",
"650 500 LINE",
"50 500 LINE",
"50 -100 LINE"
);
},
{
closed = 1;
nodes = (
"150 400 LINE",
"250 400 LINE",
"250 200 LINE",
"150 200 LINE"
);
}
);
width = 600;
},
{
layerId = "88AB7EF4-8E55-4FD8-B008-AC05EDAD63AD";
paths = (
{
closed = 1;
nodes = (
"150 -100 LINE",
"150 100 LINE",
"250 100 LINE",
"250 0 LINE",
"550 0 LINE",
"550 100 LINE",
"350 100 LINE",
"350 200 LINE",
"550 200 LINE",
"550 300 LINE",
"350 300 LINE",
"350 400 LINE",
"650 400 LINE",
"650 500 LINE",
"50 500 LINE",
"50 -100 LINE"
);
},
{
closed = 1;
nodes = (
"150 400 LINE",
"250 400 LINE",
"250 200 LINE",
"150 200 LINE"
);
}
);
width = 600;
},
{
layerId = "B0007273-59F2-4CFD-A0FF-908ED627D6A1";
paths = (
{
closed = 1;
nodes = (
"150 -100 LINE",
"150 100 LINE",
"250 100 LINE",
"250 0 LINE",
"550 0 LINE",
"550 100 LINE",
"350 100 LINE",
"350 200 LINE",
"550 200 LINE",
"550 300 LINE",
"350 300 LINE",
"350 400 LINE",
"650 400 LINE",
"650 500 LINE",
"50 500 LINE",
"50 -100 LINE"
);
},
{
closed = 1;
nodes = (
"150 400 LINE",
"250 400 LINE",
"250 200 LINE",
"150 200 LINE"
);
}
);
width = 600;
},
{
layerId = "27366F57-305D-4002-8F95-2432B7DC5E73";
paths = (
{
closed = 1;
nodes = (
"150 -100 LINE",
"150 100 LINE",
"250 100 LINE",
"250 0 LINE",
"550 0 LINE",
"550 100 LINE",
"350 100 LINE",
"350 200 LINE",
"550 200 LINE",
"550 300 LINE",
"350 300 LINE",
"350 400 LINE",
"650 400 LINE",
"650 500 LINE",
"50 500 LINE",
"50 -100 LINE"
);
},
{
closed = 1;
nodes = (
"150 400 LINE",
"250 400 LINE",
"250 200 LINE",
"150 200 LINE"
);
}
);
width = 600;
},
{
layerId = "2A7B0294-BC97-4636-A9D3-8FF17374F61F";
paths = (
{
closed = 1;
nodes = (
"150 -100 LINE",
"150 100 LINE",
"250 100 LINE",
"250 0 LINE",
"550 0 LINE",
"550 100 LINE",
"350 100 LINE",
"350 200 LINE",
"550 200 LINE",
"550 300 LINE",
"350 300 LINE",
"350 400 LINE",
"650 400 LINE",
"650 500 LINE",
"50 500 LINE",
"50 -100 LINE"
);
},
{
closed = 1;
nodes = (
"150 400 LINE",
"250 400 LINE",
"250 200 LINE",
"150 200 LINE"
);
}
);
width = 600;
},
{
layerId = "2B5AA849-E4E9-4E2A-878C-F5A75DAAE598";
paths = (
{
closed = 1;
nodes = (
"150 -100 LINE",
"150 100 LINE",
"250 100 LINE",
"250 0 LINE",
"550 0 LINE",
"550 100 LINE",
"350 100 LINE",
"350 200 LINE",
"550 200 LINE",
"550 300 LINE",
"350 300 LINE",
"350 400 LINE",
"650 400 LINE",
"650 500 LINE",
"50 500 LINE",
"50 -100 LINE"
);
},
{
closed = 1;
nodes = (
"150 400 LINE",
"250 400 LINE",
"250 200 LINE",
"150 200 LINE"
);
}
);
width = 600;
},
{
layerId = "B8F51F5F-46B4-48F2-BB1F-FCDE2D036373";
paths = (
{
closed = 1;
nodes = (
"150 -100 LINE",
"150 100 LINE",
"250 100 LINE",
"250 0 LINE",
"550 0 LINE",
"550 100 LINE",
"350 100 LINE",
"350 200 LINE",
"550 200 LINE",
"550 300 LINE",
"350 300 LINE",
"350 400 LINE",
"650 400 LINE",
"650 500 LINE",
"50 500 LINE",
"50 -100 LINE"
);
},
{
closed = 1;
nodes = (
"150 400 LINE",
"250 400 LINE",
"250 200 LINE",
"150 200 LINE"
);
}
);
width = 600;
},
{
layerId = "6F3F633C-62D2-446A-B7E2-3DF68A2746C0";
paths = (
{
closed = 1;
nodes = (
"150 -100 LINE",
"150 100 LINE",
"250 100 LINE",
"250 0 LINE",
"550 0 LINE",
"550 100 LINE",
"350 100 LINE",
"350 200 LINE",
"550 200 LINE",
"550 300 LINE",
"350 300 LINE",
"350 400 LINE",
"650 400 LINE",
"650 500 LINE",
"50 500 LINE",
"50 -100 LINE"
);
},
{
closed = 1;
nodes = (
"150 400 LINE",
"250 400 LINE",
"250 200 LINE",
"150 200 LINE"
);
}
);
width = 600;
}
);
unicode = 00C6;
},
{
glyphname = B;
lastChange = "2019-06-08 15:51:38 +0000";
layers = (
{
layerId = "4DDCB0F7-694C-40EE-9BA1-BC0E1DE62EB1";
paths = (
{
closed = 1;
nodes = (
"350 0 LINE",
"350 166 LINE",
"267 249 LINE",
"350 333 LINE",
"350 500 LINE",
"50 500 LINE",
"50 0 LINE"
);
},
{
closed = 1;
nodes = (
"150 400 LINE",
"250 400 LINE",
"250 375 LINE",
"175 300 LINE",
"150 300 LINE"
);
},
{
closed = 1;
nodes = (
"250 100 LINE",
"150 100 LINE",
"150 200 LINE",
"174 200 LINE",
"250 124 LINE"
);
}
);
width = 400;
},
{
layerId = "1A5BB28E-E649-4EB3-8E8F-86ABB724B914";
paths = (
{
closed = 1;
nodes = (
"350 0 LINE",
"350 166 LINE",
"267 249 LINE",
"350 333 LINE",
"350 500 LINE",
"50 500 LINE",
"50 0 LINE"
);
},
{
closed = 1;
nodes = (
"150 400 LINE",
"250 400 LINE",
"250 375 LINE",
"175 300 LINE",
"150 300 LINE"
);
},
{
closed = 1;
nodes = (
"250 100 LINE",
"150 100 LINE",
"150 200 LINE",
"174 200 LINE",
"250 124 LINE"
);
}
);
width = 400;
},
{
layerId = "066B400D-25E0-4076-ABC6-3C593E532716";
paths = (
{
closed = 1;
nodes = (
"350 0 LINE",
"350 166 LINE",
"267 249 LINE",
"350 333 LINE",
"350 500 LINE",
"50 500 LINE",
"50 0 LINE"
);
},
{
closed = 1;
nodes = (
"150 400 LINE",
"250 400 LINE",
"250 375 LINE",
"175 300 LINE",
"150 300 LINE"
);
},
{
closed = 1;
nodes = (
"250 100 LINE",
"150 100 LINE",
"150 200 LINE",
"174 200 LINE",
"250 124 LINE"
);
}
);
width = 400;
},
{
layerId = "8A554741-4702-4062-BB66-90759B2989E8";
paths = (
{
closed = 1;
nodes = (
"350 0 LINE",
"350 166 LINE",
"267 249 LINE",
"350 333 LINE",
"350 500 LINE",
"50 500 LINE",
"50 0 LINE"
);
},
{
closed = 1;
nodes = (
"150 400 LINE",
"250 400 LINE",
"250 375 LINE",
"175 300 LINE",
"150 300 LINE"
);
},
{
closed = 1;
nodes = (
"250 100 LINE",
"150 100 LINE",
"150 200 LINE",
"174 200 LINE",
"250 124 LINE"
);
}
);
width = 400;
},
{
layerId = "85A323BC-B6ED-4BBF-BDC0-2512995D313B";
paths = (
{
closed = 1;
nodes = (
"350 0 LINE",
"350 266 LINE",
"267 349 LINE",
"350 433 LINE",
"350 600 LINE",
"50 600 LINE",
"50 0 LINE"
);
},
{
closed = 1;
nodes = (
"150 500 LINE",
"250 500 LINE",
"250 475 LINE",
"175 400 LINE",
"150 400 LINE"
);
},
{
closed = 1;
nodes = (
"250 100 LINE",
"150 100 LINE",
"150 300 LINE",
"174 300 LINE",
"250 224 LINE"
);
}
);
width = 400;
},
{
layerId = "58F0F7D9-EF21-4AE8-AA27-0883B656C4D9";
paths = (
{
closed = 1;
nodes = (
"350 0 LINE",
"350 266 LINE",
"267 349 LINE",
"350 433 LINE",
"350 700 LINE",
"50 700 LINE",
"50 0 LINE"
);
},
{
closed = 1;
nodes = (
"150 600 LINE",
"250 600 LINE",
"250 475 LINE",
"175 400 LINE",
"150 400 LINE"
);
},
{
closed = 1;
nodes = (
"250 100 LINE",
"150 100 LINE",
"150 300 LINE",
"174 300 LINE",
"250 224 LINE"
);
}
);
width = 400;
},
{
layerId = "3368C2D0-32A5-4C39-8D28-9DDD3DF16F4F";
paths = (
{
closed = 1;
nodes = (
"350 0 LINE",
"350 366 LINE",
"267 449 LINE",
"350 533 LINE",
"350 800 LINE",
"50 800 LINE",
"50 0 LINE"
);
},
{
closed = 1;
nodes = (
"150 700 LINE",
"250 700 LINE",
"250 575 LINE",
"175 500 LINE",
"150 500 LINE"
);
},
{
closed = 1;
nodes = (
"250 100 LINE",
"150 100 LINE",
"150 400 LINE",
"174 400 LINE",
"250 324 LINE"
);
}
);
width = 400;
},
{
layerId = "63CBFDDD-5FDA-43A8-A05C-FA26C6515AD1";
paths = (
{
closed = 1;
nodes = (
"350 0 LINE",
"350 166 LINE",
"267 249 LINE",
"350 333 LINE",
"350 500 LINE",
"50 500 LINE",
"50 0 LINE"
);
},
{
closed = 1;
nodes = (
"150 400 LINE",
"250 400 LINE",
"250 375 LINE",
"175 300 LINE",
"150 300 LINE"
);
},
{
closed = 1;
nodes = (
"250 100 LINE",
"150 100 LINE",
"150 200 LINE",
"174 200 LINE",
"250 124 LINE"
);
}
);
width = 400;
},
{
layerId = "CF134569-8278-46EB-8532-B06C964AA883";
paths = (
{
closed = 1;
nodes = (
"350 0 LINE",
"350 166 LINE",
"267 249 LINE",
"350 333 LINE",
"350 500 LINE",
"50 500 LINE",
"50 0 LINE"
);
},
{
closed = 1;
nodes = (
"150 400 LINE",
"250 400 LINE",
"250 375 LINE",
"175 300 LINE",
"150 300 LINE"
);
},
{
closed = 1;
nodes = (
"250 100 LINE",
"150 100 LINE",
"150 200 LINE",
"174 200 LINE",
"250 124 LINE"
);
}
);
width = 400;
},
{
layerId = "E8EB710A-6856-432C-AFE6-A1B9D47CAF04";
paths = (
{
closed = 1;
nodes = (
"350 0 LINE",
"350 166 LINE",
"267 249 LINE",
"350 333 LINE",
"350 500 LINE",
"50 500 LINE",
"50 0 LINE"
);
},
{
closed = 1;
nodes = (
"150 400 LINE",
"250 400 LINE",
"250 375 LINE",
"175 300 LINE",
"150 300 LINE"
);
},
{
closed = 1;
nodes = (
"250 100 LINE",
"150 100 LINE",
"150 200 LINE",
"174 200 LINE",
"250 124 LINE"
);
}
);
width = 400;
},
{
layerId = "0F8CD6F6-1A2C-4C7A-A427-3AAD4A6CFB6E";
paths = (
{
closed = 1;
nodes = (
"350 0 LINE",
"350 166 LINE",
"267 249 LINE",
"350 333 LINE",
"350 500 LINE",
"50 500 LINE",
"50 0 LINE"
);
},
{
closed = 1;
nodes = (
"150 400 LINE",
"250 400 LINE",
"250 375 LINE",
"175 300 LINE",
"150 300 LINE"
);
},
{
closed = 1;
nodes = (
"250 100 LINE",
"150 100 LINE",
"150 200 LINE",
"174 200 LINE",
"250 124 LINE"
);
}
);
width = 400;
},
{
layerId = "41108C99-B873-4F4A-9E88-CBCA12FB0D05";
paths = (
{
closed = 1;
nodes = (
"350 0 LINE",
"350 366 LINE",
"267 449 LINE",
"350 533 LINE",
"350 900 LINE",
"50 900 LINE",
"50 0 LINE"
);
},
{
closed = 1;
nodes = (
"150 800 LINE",
"250 800 LINE",
"250 575 LINE",
"175 500 LINE",
"150 500 LINE"
);
},
{
closed = 1;
nodes = (
"250 100 LINE",
"150 100 LINE",
"150 400 LINE",
"174 400 LINE",
"250 324 LINE"
);
}
);
width = 400;
},
{
layerId = "5D56F4E4-2991-4C7C-A53E-FE560A092132";
paths = (
{
closed = 1;
nodes = (
"350 0 LINE",
"350 466 LINE",
"267 549 LINE",
"350 633 LINE",
"350 1000 LINE",
"50 1000 LINE",
"50 0 LINE"
);
},
{
closed = 1;
nodes = (
"150 900 LINE",
"250 900 LINE",
"250 675 LINE",
"175 600 LINE",
"150 600 LINE"
);
},
{
closed = 1;
nodes = (
"250 100 LINE",
"150 100 LINE",
"150 500 LINE",
"174 500 LINE",
"250 424 LINE"
);
}
);
width = 400;
},
{
layerId = "9A1EF6BF-4314-493F-A17F-58969295D1C4";
paths = (
{
closed = 1;
nodes = (
"350 0 LINE",
"350 466 LINE",
"267 549 LINE",
"350 633 LINE",
"350 1100 LINE",
"50 1100 LINE",
"50 0 LINE"
);
},
{
closed = 1;
nodes = (
"150 1000 LINE",
"250 1000 LINE",
"250 675 LINE",
"175 600 LINE",
"150 600 LINE"
);
},
{
closed = 1;
nodes = (
"250 100 LINE",
"150 100 LINE",
"150 500 LINE",
"174 500 LINE",
"250 424 LINE"
);
}
);
width = 400;
},
{
layerId = "2B4E891D-0483-4126-8041-32DB51B0785F";
paths = (
{
closed = 1;
nodes = (
"350 0 LINE",
"350 466 LINE",
"267 549 LINE",
"350 633 LINE",
"350 1100 LINE",
"50 1100 LINE",
"50 0 LINE"
);
},
{
closed = 1;
nodes = (
"150 1000 LINE",
"250 1000 LINE",
"250 675 LINE",
"175 600 LINE",
"150 600 LINE"
);
},
{
closed = 1;
nodes = (
"250 100 LINE",
"150 100 LINE",
"150 500 LINE",
"174 500 LINE",
"250 424 LINE"
);
}
);
width = 400;
},
{
layerId = "0BC27080-89BE-4C15-A6F1-E37C70B5878F";
paths = (
{
closed = 1;
nodes = (
"350 0 LINE",
"350 466 LINE",
"267 549 LINE",
"350 633 LINE",
"350 1100 LINE",
"50 1100 LINE",
"50 0 LINE"
);
},
{
closed = 1;
nodes = (
"150 1000 LINE",
"250 1000 LINE",
"250 675 LINE",
"175 600 LINE",
"150 600 LINE"
);
},
{
closed = 1;
nodes = (
"250 100 LINE",
"150 100 LINE",
"150 500 LINE",
"174 500 LINE",
"250 424 LINE"
);
}
);
width = 400;
},
{
layerId = "B23A0BE0-4E2E-4DF4-BF30-A2BC448F9F8A";
paths = (
{
closed = 1;
nodes = (
"350 0 LINE",
"350 166 LINE",
"267 249 LINE",
"350 333 LINE",
"350 500 LINE",
"50 500 LINE",
"50 0 LINE"
);
},
{
closed = 1;
nodes = (
"150 400 LINE",
"250 400 LINE",
"250 375 LINE",
"175 300 LINE",
"150 300 LINE"
);
},
{
closed = 1;
nodes = (
"250 100 LINE",
"150 100 LINE",
"150 200 LINE",
"174 200 LINE",
"250 124 LINE"
);
}
);
width = 400;
},
{
layerId = "88AB7EF4-8E55-4FD8-B008-AC05EDAD63AD";
paths = (
{
closed = 1;
nodes = (
"350 0 LINE",
"350 166 LINE",
"267 249 LINE",
"350 333 LINE",
"350 500 LINE",
"50 500 LINE",
"50 0 LINE"
);
},
{
closed = 1;
nodes = (
"150 400 LINE",
"250 400 LINE",
"250 375 LINE",
"175 300 LINE",
"150 300 LINE"
);
},
{
closed = 1;
nodes = (
"250 100 LINE",
"150 100 LINE",
"150 200 LINE",
"174 200 LINE",
"250 124 LINE"
);
}
);
width = 400;
},
{
layerId = "B0007273-59F2-4CFD-A0FF-908ED627D6A1";
paths = (
{
closed = 1;
nodes = (
"350 0 LINE",
"350 166 LINE",
"267 249 LINE",
"350 333 LINE",
"350 500 LINE",
"50 500 LINE",
"50 0 LINE"
);
},
{
closed = 1;
nodes = (
"150 400 LINE",
"250 400 LINE",
"250 375 LINE",
"175 300 LINE",
"150 300 LINE"
);
},
{
closed = 1;
nodes = (
"250 100 LINE",
"150 100 LINE",
"150 200 LINE",
"174 200 LINE",
"250 124 LINE"
);
}
);
width = 400;
},
{
layerId = "27366F57-305D-4002-8F95-2432B7DC5E73";
paths = (
{
closed = 1;
nodes = (
"350 0 LINE",
"350 166 LINE",
"267 249 LINE",
"350 333 LINE",
"350 500 LINE",
"50 500 LINE",
"50 0 LINE"
);
},
{
closed = 1;
nodes = (
"150 400 LINE",
"250 400 LINE",
"250 375 LINE",
"175 300 LINE",
"150 300 LINE"
);
},
{
closed = 1;
nodes = (
"250 100 LINE",
"150 100 LINE",
"150 200 LINE",
"174 200 LINE",
"250 124 LINE"
);
}
);
width = 400;
},
{
layerId = "2A7B0294-BC97-4636-A9D3-8FF17374F61F";
paths = (
{
closed = 1;
nodes = (
"350 0 LINE",
"350 166 LINE",
"267 249 LINE",
"350 333 LINE",
"350 500 LINE",
"50 500 LINE",
"50 0 LINE"
);
},
{
closed = 1;
nodes = (
"150 400 LINE",
"250 400 LINE",
"250 375 LINE",
"175 300 LINE",
"150 300 LINE"
);
},
{
closed = 1;
nodes = (
"250 100 LINE",
"150 100 LINE",
"150 200 LINE",
"174 200 LINE",
"250 124 LINE"
);
}
);
width = 400;
},
{
layerId = "2B5AA849-E4E9-4E2A-878C-F5A75DAAE598";
paths = (
{
closed = 1;
nodes = (
"350 0 LINE",
"350 166 LINE",
"267 249 LINE",
"350 333 LINE",
"350 500 LINE",
"50 500 LINE",
"50 0 LINE"
);
},
{
closed = 1;
nodes = (
"150 400 LINE",
"250 400 LINE",
"250 375 LINE",
"175 300 LINE",
"150 300 LINE"
);
},
{
closed = 1;
nodes = (
"250 100 LINE",
"150 100 LINE",
"150 200 LINE",
"174 200 LINE",
"250 124 LINE"
);
}
);
width = 400;
},
{
layerId = "B8F51F5F-46B4-48F2-BB1F-FCDE2D036373";
paths = (
{
closed = 1;
nodes = (
"350 0 LINE",
"350 166 LINE",
"267 249 LINE",
"350 333 LINE",
"350 500 LINE",
"50 500 LINE",
"50 0 LINE"
);
},
{
closed = 1;
nodes = (
"150 400 LINE",
"250 400 LINE",
"250 375 LINE",
"175 300 LINE",
"150 300 LINE"
);
},
{
closed = 1;
nodes = (
"250 100 LINE",
"150 100 LINE",
"150 200 LINE",
"174 200 LINE",
"250 124 LINE"
);
}
);
width = 400;
},
{
layerId = "6F3F633C-62D2-446A-B7E2-3DF68A2746C0";
paths = (
{
closed = 1;
nodes = (
"350 0 LINE",
"350 166 LINE",
"267 249 LINE",
"350 333 LINE",
"350 500 LINE",
"50 500 LINE",
"50 0 LINE"
);
},
{
closed = 1;
nodes = (
"150 400 LINE",
"250 400 LINE",
"250 375 LINE",
"175 300 LINE",
"150 300 LINE"
);
},
{
closed = 1;
nodes = (
"250 100 LINE",
"150 100 LINE",
"150 200 LINE",
"174 200 LINE",
"250 124 LINE"
);
}
);
width = 400;
}
);
unicode = 0042;
},
{
glyphname = C;
lastChange = "2019-06-08 15:51:38 +0000";
layers = (
{
anchors = (
{
name = bottom;
position = "{200, 0}";
},
{
name = top;
position = "{200, 500}";
}
);
layerId = "4DDCB0F7-694C-40EE-9BA1-BC0E1DE62EB1";
paths = (
{
closed = 1;
nodes = (
"350 0 LINE",
"350 200 LINE",
"250 200 LINE",
"250 100 LINE",
"150 100 LINE",
"150 400 LINE",
"250 400 LINE",
"250 300 LINE",
"350 300 LINE",
"350 500 LINE",
"50 500 LINE",
"50 0 LINE"
);
}
);
width = 400;
},
{
anchors = (
{
name = bottom;
position = "{200, 0}";
},
{
name = top;
position = "{200, 500}";
}
);
layerId = "1A5BB28E-E649-4EB3-8E8F-86ABB724B914";
paths = (
{
closed = 1;
nodes = (
"350 0 LINE",
"350 200 LINE",
"250 200 LINE",
"250 100 LINE",
"150 100 LINE",
"150 400 LINE",
"250 400 LINE",
"250 300 LINE",
"350 300 LINE",
"350 500 LINE",
"50 500 LINE",
"50 0 LINE"
);
}
);
width = 400;
},
{
anchors = (
{
name = bottom;
position = "{200, 0}";
},
{
name = top;
position = "{200, 500}";
}
);
layerId = "066B400D-25E0-4076-ABC6-3C593E532716";
paths = (
{
closed = 1;
nodes = (
"350 0 LINE",
"350 200 LINE",
"250 200 LINE",
"250 100 LINE",
"150 100 LINE",
"150 400 LINE",
"250 400 LINE",
"250 300 LINE",
"350 300 LINE",
"350 500 LINE",
"50 500 LINE",
"50 0 LINE"
);
}
);
width = 400;
},
{
anchors = (
{
name = bottom;
position = "{200, 0}";
},
{
name = top;
position = "{200, 500}";
}
);
layerId = "8A554741-4702-4062-BB66-90759B2989E8";
paths = (
{
closed = 1;
nodes = (
"350 0 LINE",
"350 200 LINE",
"250 200 LINE",
"250 100 LINE",
"150 100 LINE",
"150 400 LINE",
"250 400 LINE",
"250 300 LINE",
"350 300 LINE",
"350 500 LINE",
"50 500 LINE",
"50 0 LINE"
);
}
);
width = 400;
},
{
anchors = (
{
name = bottom;
position = "{200, 0}";
},
{
name = top;
position = "{200, 600}";
}
);
layerId = "85A323BC-B6ED-4BBF-BDC0-2512995D313B";
paths = (
{
closed = 1;
nodes = (
"350 0 LINE",
"350 200 LINE",
"250 200 LINE",
"250 100 LINE",
"150 100 LINE",
"150 500 LINE",
"250 500 LINE",
"250 300 LINE",
"350 300 LINE",
"350 600 LINE",
"50 600 LINE",
"50 0 LINE"
);
}
);
width = 400;
},
{
anchors = (
{
name = bottom;
position = "{200, 0}";
},
{
name = top;
position = "{200, 700}";
}
);
layerId = "58F0F7D9-EF21-4AE8-AA27-0883B656C4D9";
paths = (
{
closed = 1;
nodes = (
"350 0 LINE",
"350 300 LINE",
"250 300 LINE",
"250 100 LINE",
"150 100 LINE",
"150 600 LINE",
"250 600 LINE",
"250 400 LINE",
"350 400 LINE",
"350 700 LINE",
"50 700 LINE",
"50 0 LINE"
);
}
);
width = 400;
},
{
anchors = (
{
name = bottom;
position = "{200, 0}";
},
{
name = top;
position = "{200, 800}";
}
);
layerId = "3368C2D0-32A5-4C39-8D28-9DDD3DF16F4F";
paths = (
{
closed = 1;
nodes = (
"350 0 LINE",
"350 300 LINE",
"250 300 LINE",
"250 100 LINE",
"150 100 LINE",
"150 700 LINE",
"250 700 LINE",
"250 400 LINE",
"350 400 LINE",
"350 800 LINE",
"50 800 LINE",
"50 0 LINE"
);
}
);
width = 400;
},
{
anchors = (
{
name = bottom;
position = "{200, 0}";
},
{
name = top;
position = "{200, 500}";
}
);
layerId = "63CBFDDD-5FDA-43A8-A05C-FA26C6515AD1";
paths = (
{
closed = 1;
nodes = (
"350 0 LINE",
"350 200 LINE",
"250 200 LINE",
"250 100 LINE",
"150 100 LINE",
"150 400 LINE",
"250 400 LINE",
"250 300 LINE",
"350 300 LINE",
"350 500 LINE",
"50 500 LINE",
"50 0 LINE"
);
}
);
width = 400;
},
{
anchors = (
{
name = bottom;
position = "{200, 0}";
},
{
name = top;
position = "{200, 500}";
}
);
layerId = "CF134569-8278-46EB-8532-B06C964AA883";
paths = (
{
closed = 1;
nodes = (
"350 0 LINE",
"350 200 LINE",
"250 200 LINE",
"250 100 LINE",
"150 100 LINE",
"150 400 LINE",
"250 400 LINE",
"250 300 LINE",
"350 300 LINE",
"350 500 LINE",
"50 500 LINE",
"50 0 LINE"
);
}
);
width = 400;
},
{
anchors = (
{
name = bottom;
position = "{200, 0}";
},
{
name = top;
position = "{200, 500}";
}
);
layerId = "E8EB710A-6856-432C-AFE6-A1B9D47CAF04";
paths = (
{
closed = 1;
nodes = (
"350 0 LINE",
"350 200 LINE",
"250 200 LINE",
"250 100 LINE",
"150 100 LINE",
"150 400 LINE",
"250 400 LINE",
"250 300 LINE",
"350 300 LINE",
"350 500 LINE",
"50 500 LINE",
"50 0 LINE"
);
}
);
width = 400;
},
{
anchors = (
{
name = bottom;
position = "{200, 0}";
},
{
name = top;
position = "{200, 500}";
}
);
layerId = "0F8CD6F6-1A2C-4C7A-A427-3AAD4A6CFB6E";
paths = (
{
closed = 1;
nodes = (
"350 0 LINE",
"350 200 LINE",
"250 200 LINE",
"250 100 LINE",
"150 100 LINE",
"150 400 LINE",
"250 400 LINE",
"250 300 LINE",
"350 300 LINE",
"350 500 LINE",
"50 500 LINE",
"50 0 LINE"
);
}
);
width = 400;
},
{
anchors = (
{
name = bottom;
position = "{200, 0}";
},
{
name = top;
position = "{200, 900}";
}
);
layerId = "41108C99-B873-4F4A-9E88-CBCA12FB0D05";
paths = (
{
closed = 1;
nodes = (
"350 0 LINE",
"350 400 LINE",
"250 400 LINE",
"250 100 LINE",
"150 100 LINE",
"150 800 LINE",
"250 800 LINE",
"250 500 LINE",
"350 500 LINE",
"350 900 LINE",
"50 900 LINE",
"50 0 LINE"
);
}
);
width = 400;
},
{
anchors = (
{
name = bottom;
position = "{200, 0}";
},
{
name = top;
position = "{200, 1000}";
}
);
layerId = "5D56F4E4-2991-4C7C-A53E-FE560A092132";
paths = (
{
closed = 1;
nodes = (
"350 0 LINE",
"350 500 LINE",
"250 500 LINE",
"250 100 LINE",
"150 100 LINE",
"150 900 LINE",
"250 900 LINE",
"250 600 LINE",
"350 600 LINE",
"350 1000 LINE",
"50 1000 LINE",
"50 0 LINE"
);
}
);
width = 400;
},
{
anchors = (
{
name = bottom;
position = "{200, 0}";
},
{
name = top;
position = "{200, 1100}";
}
);
layerId = "9A1EF6BF-4314-493F-A17F-58969295D1C4";
paths = (
{
closed = 1;
nodes = (
"350 0 LINE",
"350 500 LINE",
"250 500 LINE",
"250 100 LINE",
"150 100 LINE",
"150 1000 LINE",
"250 1000 LINE",
"250 600 LINE",
"350 600 LINE",
"350 1100 LINE",
"50 1100 LINE",
"50 0 LINE"
);
}
);
width = 400;
},
{
anchors = (
{
name = bottom;
position = "{200, 0}";
},
{
name = top;
position = "{200, 1100}";
}
);
layerId = "2B4E891D-0483-4126-8041-32DB51B0785F";
paths = (
{
closed = 1;
nodes = (
"350 0 LINE",
"350 500 LINE",
"250 500 LINE",
"250 100 LINE",
"150 100 LINE",
"150 1000 LINE",
"250 1000 LINE",
"250 600 LINE",
"350 600 LINE",
"350 1100 LINE",
"50 1100 LINE",
"50 0 LINE"
);
}
);
width = 400;
},
{
anchors = (
{
name = bottom;
position = "{200, 0}";
},
{
name = top;
position = "{200, 1100}";
}
);
layerId = "0BC27080-89BE-4C15-A6F1-E37C70B5878F";
paths = (
{
closed = 1;
nodes = (
"350 0 LINE",
"350 500 LINE",
"250 500 LINE",
"250 100 LINE",
"150 100 LINE",
"150 1000 LINE",
"250 1000 LINE",
"250 600 LINE",
"350 600 LINE",
"350 1100 LINE",
"50 1100 LINE",
"50 0 LINE"
);
}
);
width = 400;
},
{
anchors = (
{
name = bottom;
position = "{200, 0}";
},
{
name = top;
position = "{200, 500}";
}
);
layerId = "B23A0BE0-4E2E-4DF4-BF30-A2BC448F9F8A";
paths = (
{
closed = 1;
nodes = (
"350 0 LINE",
"350 200 LINE",
"250 200 LINE",
"250 100 LINE",
"150 100 LINE",
"150 400 LINE",
"250 400 LINE",
"250 300 LINE",
"350 300 LINE",
"350 500 LINE",
"50 500 LINE",
"50 0 LINE"
);
}
);
width = 400;
},
{
anchors = (
{
name = bottom;
position = "{200, 0}";
},
{
name = top;
position = "{200, 500}";
}
);
layerId = "88AB7EF4-8E55-4FD8-B008-AC05EDAD63AD";
paths = (
{
closed = 1;
nodes = (
"350 0 LINE",
"350 200 LINE",
"250 200 LINE",
"250 100 LINE",
"150 100 LINE",
"150 400 LINE",
"250 400 LINE",
"250 300 LINE",
"350 300 LINE",
"350 500 LINE",
"50 500 LINE",
"50 0 LINE"
);
}
);
width = 400;
},
{
anchors = (
{
name = bottom;
position = "{200, 0}";
},
{
name = top;
position = "{200, 500}";
}
);
layerId = "B0007273-59F2-4CFD-A0FF-908ED627D6A1";
paths = (
{
closed = 1;
nodes = (
"350 0 LINE",
"350 200 LINE",
"250 200 LINE",
"250 100 LINE",
"150 100 LINE",
"150 400 LINE",
"250 400 LINE",
"250 300 LINE",
"350 300 LINE",
"350 500 LINE",
"50 500 LINE",
"50 0 LINE"
);
}
);
width = 400;
},
{
anchors = (
{
name = bottom;
position = "{200, 0}";
},
{
name = top;
position = "{200, 500}";
}
);
layerId = "27366F57-305D-4002-8F95-2432B7DC5E73";
paths = (
{
closed = 1;
nodes = (
"350 0 LINE",
"350 200 LINE",
"250 200 LINE",
"250 100 LINE",
"150 100 LINE",
"150 400 LINE",
"250 400 LINE",
"250 300 LINE",
"350 300 LINE",
"350 500 LINE",
"50 500 LINE",
"50 0 LINE"
);
}
);
width = 400;
},
{
anchors = (
{
name = bottom;
position = "{200, 0}";
},
{
name = top;
position = "{200, 500}";
}
);
layerId = "2A7B0294-BC97-4636-A9D3-8FF17374F61F";
paths = (
{
closed = 1;
nodes = (
"350 0 LINE",
"350 200 LINE",
"250 200 LINE",
"250 100 LINE",
"150 100 LINE",
"150 400 LINE",
"250 400 LINE",
"250 300 LINE",
"350 300 LINE",
"350 500 LINE",
"50 500 LINE",
"50 0 LINE"
);
}
);
width = 400;
},
{
anchors = (
{
name = bottom;
position = "{200, 0}";
},
{
name = top;
position = "{200, 500}";
}
);
layerId = "2B5AA849-E4E9-4E2A-878C-F5A75DAAE598";
paths = (
{
closed = 1;
nodes = (
"350 0 LINE",
"350 200 LINE",
"250 200 LINE",
"250 100 LINE",
"150 100 LINE",
"150 400 LINE",
"250 400 LINE",
"250 300 LINE",
"350 300 LINE",
"350 500 LINE",
"50 500 LINE",
"50 0 LINE"
);
}
);
width = 400;
},
{
anchors = (
{
name = bottom;
position = "{200, 0}";
},
{
name = top;
position = "{200, 500}";
}
);
layerId = "B8F51F5F-46B4-48F2-BB1F-FCDE2D036373";
paths = (
{
closed = 1;
nodes = (
"350 0 LINE",
"350 200 LINE",
"250 200 LINE",
"250 100 LINE",
"150 100 LINE",
"150 400 LINE",
"250 400 LINE",
"250 300 LINE",
"350 300 LINE",
"350 500 LINE",
"50 500 LINE",
"50 0 LINE"
);
}
);
width = 400;
},
{
anchors = (
{
name = bottom;
position = "{200, 0}";
},
{
name = top;
position = "{200, 500}";
}
);
layerId = "6F3F633C-62D2-446A-B7E2-3DF68A2746C0";
paths = (
{
closed = 1;
nodes = (
"350 0 LINE",
"350 200 LINE",
"250 200 LINE",
"250 100 LINE",
"150 100 LINE",
"150 400 LINE",
"250 400 LINE",
"250 300 LINE",
"350 300 LINE",
"350 500 LINE",
"50 500 LINE",
"50 0 LINE"
);
}
);
width = 400;
}
);
unicode = 0043;
},
{
glyphname = D;
lastChange = "2019-06-08 15:51:38 +0000";
layers = (
{
anchors = (
{
name = top;
position = "{150, 500}";
}
);
layerId = "4DDCB0F7-694C-40EE-9BA1-BC0E1DE62EB1";
paths = (
{
closed = 1;
nodes = (
"250 0 LINE",
"350 100 LINE",
"350 400 LINE",
"250 500 LINE",
"50 500 LINE",
"50 0 LINE"
);
},
{
closed = 1;
nodes = (
"150 400 LINE",
"208 400 LINE",
"250 358 LINE",
"250 142 LINE",
"208 100 LINE",
"150 100 LINE"
);
}
);
width = 400;
},
{
associatedMasterId = "4DDCB0F7-694C-40EE-9BA1-BC0E1DE62EB1";
layerId = "9B34955F-F039-4ADE-8818-E63A45E99A2F";
name = "Apr 24 19, 13:09";
paths = (
{
closed = 1;
nodes = (
"50 0 LINE",
"150 0 LINE",
"150 500 LINE",
"50 500 LINE"
);
},
{
closed = 1;
nodes = (
"50 0 LINE",
"350 0 LINE",
"350 100 LINE",
"50 100 LINE"
);
},
{
closed = 1;
nodes = (
"50 400 LINE",
"350 400 LINE",
"350 500 LINE",
"50 500 LINE"
);
},
{
closed = 1;
nodes = (
"350 100 LINE",
"450 100 LINE",
"450 400 LINE",
"350 400 LINE"
);
},
{
closed = 1;
nodes = (
"279 71 LINE",
"350 0 LINE",
"450 100 LINE",
"420 212 LINE"
);
},
{
closed = 1;
nodes = (
"450 400 LINE",
"350 500 LINE",
"279 429 LINE",
"420 288 LINE"
);
}
);
width = 300;
},
{
anchors = (
{
name = top;
position = "{150, 500}";
}
);
layerId = "1A5BB28E-E649-4EB3-8E8F-86ABB724B914";
paths = (
{
closed = 1;
nodes = (
"250 0 LINE",
"350 100 LINE",
"350 400 LINE",
"250 500 LINE",
"50 500 LINE",
"50 0 LINE"
);
},
{
closed = 1;
nodes = (
"150 400 LINE",
"208 400 LINE",
"250 358 LINE",
"250 142 LINE",
"208 100 LINE",
"150 100 LINE"
);
}
);
width = 400;
},
{
anchors = (
{
name = top;
position = "{150, 500}";
}
);
layerId = "066B400D-25E0-4076-ABC6-3C593E532716";
paths = (
{
closed = 1;
nodes = (
"250 0 LINE",
"350 100 LINE",
"350 400 LINE",
"250 500 LINE",
"50 500 LINE",
"50 0 LINE"
);
},
{
closed = 1;
nodes = (
"150 400 LINE",
"208 400 LINE",
"250 358 LINE",
"250 142 LINE",
"208 100 LINE",
"150 100 LINE"
);
}
);
width = 400;
},
{
anchors = (
{
name = top;
position = "{150, 500}";
}
);
layerId = "8A554741-4702-4062-BB66-90759B2989E8";
paths = (
{
closed = 1;
nodes = (
"250 0 LINE",
"350 100 LINE",
"350 400 LINE",
"250 500 LINE",
"50 500 LINE",
"50 0 LINE"
);
},
{
closed = 1;
nodes = (
"150 400 LINE",
"208 400 LINE",
"250 358 LINE",
"250 142 LINE",
"208 100 LINE",
"150 100 LINE"
);
}
);
width = 400;
},
{
anchors = (
{
name = top;
position = "{150, 600}";
}
);
layerId = "85A323BC-B6ED-4BBF-BDC0-2512995D313B";
paths = (
{
closed = 1;
nodes = (
"250 0 LINE",
"350 100 LINE",
"350 500 LINE",
"250 600 LINE",
"50 600 LINE",
"50 0 LINE"
);
},
{
closed = 1;
nodes = (
"150 500 LINE",
"208 500 LINE",
"250 458 LINE",
"250 142 LINE",
"208 100 LINE",
"150 100 LINE"
);
}
);
width = 400;
},
{
anchors = (
{
name = top;
position = "{150, 700}";
}
);
layerId = "58F0F7D9-EF21-4AE8-AA27-0883B656C4D9";
paths = (
{
closed = 1;
nodes = (
"250 0 LINE",
"350 100 LINE",
"350 600 LINE",
"250 700 LINE",
"50 700 LINE",
"50 0 LINE"
);
},
{
closed = 1;
nodes = (
"150 600 LINE",
"208 600 LINE",
"250 558 LINE",
"250 142 LINE",
"208 100 LINE",
"150 100 LINE"
);
}
);
width = 400;
},
{
anchors = (
{
name = top;
position = "{150, 800}";
}
);
layerId = "3368C2D0-32A5-4C39-8D28-9DDD3DF16F4F";
paths = (
{
closed = 1;
nodes = (
"250 0 LINE",
"350 100 LINE",
"350 700 LINE",
"250 800 LINE",
"50 800 LINE",
"50 0 LINE"
);
},
{
closed = 1;
nodes = (
"150 700 LINE",
"208 700 LINE",
"250 658 LINE",
"250 142 LINE",
"208 100 LINE",
"150 100 LINE"
);
}
);
width = 400;
},
{
anchors = (
{
name = top;
position = "{150, 500}";
}
);
layerId = "63CBFDDD-5FDA-43A8-A05C-FA26C6515AD1";
paths = (
{
closed = 1;
nodes = (
"250 0 LINE",
"350 100 LINE",
"350 400 LINE",
"250 500 LINE",
"50 500 LINE",
"50 0 LINE"
);
},
{
closed = 1;
nodes = (
"150 400 LINE",
"208 400 LINE",
"250 358 LINE",
"250 142 LINE",
"208 100 LINE",
"150 100 LINE"
);
}
);
width = 400;
},
{
anchors = (
{
name = top;
position = "{150, 500}";
}
);
layerId = "CF134569-8278-46EB-8532-B06C964AA883";
paths = (
{
closed = 1;
nodes = (
"250 0 LINE",
"350 100 LINE",
"350 400 LINE",
"250 500 LINE",
"50 500 LINE",
"50 0 LINE"
);
},
{
closed = 1;
nodes = (
"150 400 LINE",
"208 400 LINE",
"250 358 LINE",
"250 142 LINE",
"208 100 LINE",
"150 100 LINE"
);
}
);
width = 400;
},
{
anchors = (
{
name = top;
position = "{150, 500}";
}
);
layerId = "E8EB710A-6856-432C-AFE6-A1B9D47CAF04";
paths = (
{
closed = 1;
nodes = (
"250 0 LINE",
"350 100 LINE",
"350 400 LINE",
"250 500 LINE",
"50 500 LINE",
"50 0 LINE"
);
},
{
closed = 1;
nodes = (
"150 400 LINE",
"208 400 LINE",
"250 358 LINE",
"250 142 LINE",
"208 100 LINE",
"150 100 LINE"
);
}
);
width = 400;
},
{
anchors = (
{
name = top;
position = "{150, 500}";
}
);
layerId = "0F8CD6F6-1A2C-4C7A-A427-3AAD4A6CFB6E";
paths = (
{
closed = 1;
nodes = (
"250 0 LINE",
"350 100 LINE",
"350 400 LINE",
"250 500 LINE",
"50 500 LINE",
"50 0 LINE"
);
},
{
closed = 1;
nodes = (
"150 400 LINE",
"208 400 LINE",
"250 358 LINE",
"250 142 LINE",
"208 100 LINE",
"150 100 LINE"
);
}
);
width = 400;
},
{
anchors = (
{
name = top;
position = "{150, 500}";
}
);
associatedMasterId = "4DDCB0F7-694C-40EE-9BA1-BC0E1DE62EB1";
layerId = "566D56C7-08D7-495E-A2E9-86872D6BFDE7";
name = "May 28 19, 12:52";
paths = (
{
closed = 1;
nodes = (
"250 0 LINE",
"350 100 LINE",
"350 400 LINE",
"250 500 LINE",
"50 500 LINE",
"50 0 LINE"
);
},
{
closed = 1;
nodes = (
"150 400 LINE",
"208 400 LINE",
"250 358 LINE",
"250 142 LINE",
"208 100 LINE",
"150 100 LINE"
);
}
);
width = 400;
},
{
anchors = (
{
name = top;
position = "{150, 900}";
}
);
layerId = "41108C99-B873-4F4A-9E88-CBCA12FB0D05";
paths = (
{
closed = 1;
nodes = (
"250 0 LINE",
"350 100 LINE",
"350 800 LINE",
"250 900 LINE",
"50 900 LINE",
"50 0 LINE"
);
},
{
closed = 1;
nodes = (
"150 800 LINE",
"208 800 LINE",
"250 758 LINE",
"250 142 LINE",
"208 100 LINE",
"150 100 LINE"
);
}
);
width = 400;
},
{
anchors = (
{
name = top;
position = "{150, 1000}";
}
);
layerId = "5D56F4E4-2991-4C7C-A53E-FE560A092132";
paths = (
{
closed = 1;
nodes = (
"250 0 LINE",
"350 100 LINE",
"350 900 LINE",
"250 1000 LINE",
"50 1000 LINE",
"50 0 LINE"
);
},
{
closed = 1;
nodes = (
"150 900 LINE",
"208 900 LINE",
"250 858 LINE",
"250 142 LINE",
"208 100 LINE",
"150 100 LINE"
);
}
);
width = 400;
},
{
anchors = (
{
name = top;
position = "{150, 1100}";
}
);
layerId = "9A1EF6BF-4314-493F-A17F-58969295D1C4";
paths = (
{
closed = 1;
nodes = (
"250 0 LINE",
"350 100 LINE",
"350 1000 LINE",
"250 1100 LINE",
"50 1100 LINE",
"50 0 LINE"
);
},
{
closed = 1;
nodes = (
"150 1000 LINE",
"208 1000 LINE",
"250 958 LINE",
"250 142 LINE",
"208 100 LINE",
"150 100 LINE"
);
}
);
width = 400;
},
{
anchors = (
{
name = top;
position = "{150, 1100}";
}
);
layerId = "2B4E891D-0483-4126-8041-32DB51B0785F";
paths = (
{
closed = 1;
nodes = (
"250 0 LINE",
"350 100 LINE",
"350 1000 LINE",
"250 1100 LINE",
"50 1100 LINE",
"50 0 LINE"
);
},
{
closed = 1;
nodes = (
"150 1000 LINE",
"208 1000 LINE",
"250 958 LINE",
"250 142 LINE",
"208 100 LINE",
"150 100 LINE"
);
}
);
width = 400;
},
{
anchors = (
{
name = top;
position = "{150, 1100}";
}
);
layerId = "0BC27080-89BE-4C15-A6F1-E37C70B5878F";
paths = (
{
closed = 1;
nodes = (
"250 0 LINE",
"350 100 LINE",
"350 1000 LINE",
"250 1100 LINE",
"50 1100 LINE",
"50 0 LINE"
);
},
{
closed = 1;
nodes = (
"150 1000 LINE",
"208 1000 LINE",
"250 958 LINE",
"250 142 LINE",
"208 100 LINE",
"150 100 LINE"
);
}
);
width = 400;
},
{
anchors = (
{
name = top;
position = "{150, 500}";
}
);
layerId = "B23A0BE0-4E2E-4DF4-BF30-A2BC448F9F8A";
paths = (
{
closed = 1;
nodes = (
"250 0 LINE",
"350 100 LINE",
"350 400 LINE",
"250 500 LINE",
"50 500 LINE",
"50 0 LINE"
);
},
{
closed = 1;
nodes = (
"150 400 LINE",
"208 400 LINE",
"250 358 LINE",
"250 142 LINE",
"208 100 LINE",
"150 100 LINE"
);
}
);
width = 400;
},
{
anchors = (
{
name = top;
position = "{150, 500}";
}
);
layerId = "88AB7EF4-8E55-4FD8-B008-AC05EDAD63AD";
paths = (
{
closed = 1;
nodes = (
"250 0 LINE",
"350 100 LINE",
"350 400 LINE",
"250 500 LINE",
"50 500 LINE",
"50 0 LINE"
);
},
{
closed = 1;
nodes = (
"150 400 LINE",
"208 400 LINE",
"250 358 LINE",
"250 142 LINE",
"208 100 LINE",
"150 100 LINE"
);
}
);
width = 400;
},
{
anchors = (
{
name = top;
position = "{150, 500}";
}
);
layerId = "B0007273-59F2-4CFD-A0FF-908ED627D6A1";
paths = (
{
closed = 1;
nodes = (
"250 0 LINE",
"350 100 LINE",
"350 400 LINE",
"250 500 LINE",
"50 500 LINE",
"50 0 LINE"
);
},
{
closed = 1;
nodes = (
"150 400 LINE",
"208 400 LINE",
"250 358 LINE",
"250 142 LINE",
"208 100 LINE",
"150 100 LINE"
);
}
);
width = 400;
},
{
anchors = (
{
name = top;
position = "{150, 500}";
}
);
layerId = "27366F57-305D-4002-8F95-2432B7DC5E73";
paths = (
{
closed = 1;
nodes = (
"250 0 LINE",
"350 100 LINE",
"350 400 LINE",
"250 500 LINE",
"50 500 LINE",
"50 0 LINE"
);
},
{
closed = 1;
nodes = (
"150 400 LINE",
"208 400 LINE",
"250 358 LINE",
"250 142 LINE",
"208 100 LINE",
"150 100 LINE"
);
}
);
width = 400;
},
{
anchors = (
{
name = top;
position = "{150, 500}";
}
);
layerId = "2A7B0294-BC97-4636-A9D3-8FF17374F61F";
paths = (
{
closed = 1;
nodes = (
"250 0 LINE",
"350 100 LINE",
"350 400 LINE",
"250 500 LINE",
"50 500 LINE",
"50 0 LINE"
);
},
{
closed = 1;
nodes = (
"150 400 LINE",
"208 400 LINE",
"250 358 LINE",
"250 142 LINE",
"208 100 LINE",
"150 100 LINE"
);
}
);
width = 400;
},
{
anchors = (
{
name = top;
position = "{150, 500}";
}
);
layerId = "2B5AA849-E4E9-4E2A-878C-F5A75DAAE598";
paths = (
{
closed = 1;
nodes = (
"250 0 LINE",
"350 100 LINE",
"350 400 LINE",
"250 500 LINE",
"50 500 LINE",
"50 0 LINE"
);
},
{
closed = 1;
nodes = (
"150 400 LINE",
"208 400 LINE",
"250 358 LINE",
"250 142 LINE",
"208 100 LINE",
"150 100 LINE"
);
}
);
width = 400;
},
{
anchors = (
{
name = top;
position = "{150, 500}";
}
);
layerId = "B8F51F5F-46B4-48F2-BB1F-FCDE2D036373";
paths = (
{
closed = 1;
nodes = (
"250 0 LINE",
"350 100 LINE",
"350 400 LINE",
"250 500 LINE",
"50 500 LINE",
"50 0 LINE"
);
},
{
closed = 1;
nodes = (
"150 400 LINE",
"208 400 LINE",
"250 358 LINE",
"250 142 LINE",
"208 100 LINE",
"150 100 LINE"
);
}
);
width = 400;
},
{
anchors = (
{
name = top;
position = "{150, 500}";
}
);
layerId = "6F3F633C-62D2-446A-B7E2-3DF68A2746C0";
paths = (
{
closed = 1;
nodes = (
"250 0 LINE",
"350 100 LINE",
"350 400 LINE",
"250 500 LINE",
"50 500 LINE",
"50 0 LINE"
);
},
{
closed = 1;
nodes = (
"150 400 LINE",
"208 400 LINE",
"250 358 LINE",
"250 142 LINE",
"208 100 LINE",
"150 100 LINE"
);
}
);
width = 400;
}
);
unicode = 0044;
},
{
glyphname = Eth;
lastChange = "2019-06-08 15:51:38 +0000";
layers = (
{
components = (
{
name = D;
}
);
layerId = "4DDCB0F7-694C-40EE-9BA1-BC0E1DE62EB1";
paths = (
{
closed = 1;
nodes = (
"50 200 LINE",
"200 200 LINE",
"200 300 LINE",
"50 300 LINE"
);
}
);
width = 400;
},
{
components = (
{
name = D;
transform = "{1, 0, 0, 1, 100, 0}";
}
);
layerId = "1A5BB28E-E649-4EB3-8E8F-86ABB724B914";
paths = (
{
closed = 1;
nodes = (
"150 200 LINE",
"300 200 LINE",
"300 300 LINE",
"150 300 LINE"
);
}
);
width = 500;
},
{
components = (
{
name = D;
transform = "{1, 0, 0, 1, 100, 0}";
}
);
layerId = "066B400D-25E0-4076-ABC6-3C593E532716";
paths = (
{
closed = 1;
nodes = (
"150 200 LINE",
"300 200 LINE",
"300 300 LINE",
"150 300 LINE"
);
}
);
width = 500;
},
{
components = (
{
name = D;
transform = "{1, 0, 0, 1, 100, 0}";
}
);
layerId = "8A554741-4702-4062-BB66-90759B2989E8";
paths = (
{
closed = 1;
nodes = (
"150 200 LINE",
"300 200 LINE",
"300 300 LINE",
"150 300 LINE"
);
}
);
width = 500;
},
{
components = (
{
name = D;
transform = "{1, 0, 0, 1, 100, 0}";
}
);
layerId = "85A323BC-B6ED-4BBF-BDC0-2512995D313B";
paths = (
{
closed = 1;
nodes = (
"150 250 LINE",
"300 250 LINE",
"300 350 LINE",
"150 350 LINE"
);
}
);
width = 500;
},
{
components = (
{
name = D;
transform = "{1, 0, 0, 1, 100, 0}";
}
);
layerId = "58F0F7D9-EF21-4AE8-AA27-0883B656C4D9";
paths = (
{
closed = 1;
nodes = (
"150 300 LINE",
"300 300 LINE",
"300 400 LINE",
"150 400 LINE"
);
}
);
width = 500;
},
{
components = (
{
name = D;
transform = "{1, 0, 0, 1, 100, 0}";
}
);
layerId = "3368C2D0-32A5-4C39-8D28-9DDD3DF16F4F";
paths = (
{
closed = 1;
nodes = (
"150 350 LINE",
"300 350 LINE",
"300 450 LINE",
"150 450 LINE"
);
}
);
width = 500;
},
{
components = (
{
name = D;
transform = "{1, 0, 0, 1, 100, 0}";
}
);
layerId = "63CBFDDD-5FDA-43A8-A05C-FA26C6515AD1";
paths = (
{
closed = 1;
nodes = (
"150 200 LINE",
"300 200 LINE",
"300 300 LINE",
"150 300 LINE"
);
}
);
width = 500;
},
{
components = (
{
name = D;
transform = "{1, 0, 0, 1, 100, 0}";
}
);
layerId = "CF134569-8278-46EB-8532-B06C964AA883";
paths = (
{
closed = 1;
nodes = (
"150 200 LINE",
"300 200 LINE",
"300 300 LINE",
"150 300 LINE"
);
}
);
width = 500;
},
{
components = (
{
name = D;
transform = "{1, 0, 0, 1, 100, 0}";
}
);
layerId = "E8EB710A-6856-432C-AFE6-A1B9D47CAF04";
paths = (
{
closed = 1;
nodes = (
"150 200 LINE",
"300 200 LINE",
"300 300 LINE",
"150 300 LINE"
);
}
);
width = 500;
},
{
components = (
{
name = D;
transform = "{1, 0, 0, 1, 100, 0}";
}
);
layerId = "0F8CD6F6-1A2C-4C7A-A427-3AAD4A6CFB6E";
paths = (
{
closed = 1;
nodes = (
"150 200 LINE",
"300 200 LINE",
"300 300 LINE",
"150 300 LINE"
);
}
);
width = 500;
},
{
components = (
{
name = D;
transform = "{1, 0, 0, 1, 100, 0}";
}
);
layerId = "41108C99-B873-4F4A-9E88-CBCA12FB0D05";
paths = (
{
closed = 1;
nodes = (
"150 200 LINE",
"300 200 LINE",
"300 300 LINE",
"150 300 LINE"
);
}
);
width = 500;
},
{
components = (
{
name = D;
transform = "{1, 0, 0, 1, 100, 0}";
}
);
layerId = "5D56F4E4-2991-4C7C-A53E-FE560A092132";
paths = (
{
closed = 1;
nodes = (
"150 200 LINE",
"300 200 LINE",
"300 300 LINE",
"150 300 LINE"
);
}
);
width = 500;
},
{
components = (
{
name = D;
transform = "{1, 0, 0, 1, 100, 0}";
}
);
layerId = "9A1EF6BF-4314-493F-A17F-58969295D1C4";
paths = (
{
closed = 1;
nodes = (
"150 200 LINE",
"300 200 LINE",
"300 300 LINE",
"150 300 LINE"
);
}
);
width = 500;
},
{
components = (
{
name = D;
transform = "{1, 0, 0, 1, 100, 0}";
}
);
layerId = "2B4E891D-0483-4126-8041-32DB51B0785F";
paths = (
{
closed = 1;
nodes = (
"150 200 LINE",
"300 200 LINE",
"300 300 LINE",
"150 300 LINE"
);
}
);
width = 500;
},
{
components = (
{
name = D;
transform = "{1, 0, 0, 1, 100, 0}";
}
);
layerId = "0BC27080-89BE-4C15-A6F1-E37C70B5878F";
paths = (
{
closed = 1;
nodes = (
"150 200 LINE",
"300 200 LINE",
"300 300 LINE",
"150 300 LINE"
);
}
);
width = 500;
},
{
components = (
{
name = D;
transform = "{1, 0, 0, 1, 100, 0}";
}
);
layerId = "B23A0BE0-4E2E-4DF4-BF30-A2BC448F9F8A";
paths = (
{
closed = 1;
nodes = (
"150 200 LINE",
"300 200 LINE",
"300 300 LINE",
"150 300 LINE"
);
}
);
width = 500;
},
{
components = (
{
name = D;
transform = "{1, 0, 0, 1, 100, 0}";
}
);
layerId = "88AB7EF4-8E55-4FD8-B008-AC05EDAD63AD";
paths = (
{
closed = 1;
nodes = (
"150 200 LINE",
"300 200 LINE",
"300 300 LINE",
"150 300 LINE"
);
}
);
width = 500;
},
{
components = (
{
name = D;
transform = "{1, 0, 0, 1, 100, 0}";
}
);
layerId = "B0007273-59F2-4CFD-A0FF-908ED627D6A1";
paths = (
{
closed = 1;
nodes = (
"150 200 LINE",
"300 200 LINE",
"300 300 LINE",
"150 300 LINE"
);
}
);
width = 500;
},
{
components = (
{
name = D;
transform = "{1, 0, 0, 1, 100, 0}";
}
);
layerId = "27366F57-305D-4002-8F95-2432B7DC5E73";
paths = (
{
closed = 1;
nodes = (
"150 200 LINE",
"300 200 LINE",
"300 300 LINE",
"150 300 LINE"
);
}
);
width = 500;
},
{
components = (
{
name = D;
transform = "{1, 0, 0, 1, 100, 0}";
}
);
layerId = "2A7B0294-BC97-4636-A9D3-8FF17374F61F";
paths = (
{
closed = 1;
nodes = (
"150 200 LINE",
"300 200 LINE",
"300 300 LINE",
"150 300 LINE"
);
}
);
width = 500;
},
{
components = (
{
name = D;
transform = "{1, 0, 0, 1, 100, 0}";
}
);
layerId = "2B5AA849-E4E9-4E2A-878C-F5A75DAAE598";
paths = (
{
closed = 1;
nodes = (
"150 200 LINE",
"300 200 LINE",
"300 300 LINE",
"150 300 LINE"
);
}
);
width = 500;
},
{
components = (
{
name = D;
transform = "{1, 0, 0, 1, 100, 0}";
}
);
layerId = "B8F51F5F-46B4-48F2-BB1F-FCDE2D036373";
paths = (
{
closed = 1;
nodes = (
"150 200 LINE",
"300 200 LINE",
"300 300 LINE",
"150 300 LINE"
);
}
);
width = 500;
},
{
components = (
{
name = D;
transform = "{1, 0, 0, 1, 100, 0}";
}
);
layerId = "6F3F633C-62D2-446A-B7E2-3DF68A2746C0";
paths = (
{
closed = 1;
nodes = (
"150 200 LINE",
"300 200 LINE",
"300 300 LINE",
"150 300 LINE"
);
}
);
width = 500;
}
);
unicode = 00D0;
},
{
glyphname = Dcroat;
lastChange = "2019-06-08 15:51:38 +0000";
layers = (
{
components = (
{
name = D;
}
);
layerId = "4DDCB0F7-694C-40EE-9BA1-BC0E1DE62EB1";
paths = (
{
closed = 1;
nodes = (
"0 245 LINE",
"200 245 LINE",
"200 260 LINE",
"0 260 LINE"
);
}
);
width = 400;
},
{
components = (
{
name = D;
}
);
layerId = "1A5BB28E-E649-4EB3-8E8F-86ABB724B914";
paths = (
{
closed = 1;
nodes = (
"0 245 LINE",
"200 245 LINE",
"200 260 LINE",
"0 260 LINE"
);
}
);
width = 400;
},
{
components = (
{
name = D;
}
);
layerId = "066B400D-25E0-4076-ABC6-3C593E532716";
paths = (
{
closed = 1;
nodes = (
"0 245 LINE",
"200 245 LINE",
"200 260 LINE",
"0 260 LINE"
);
}
);
width = 400;
},
{
components = (
{
name = D;
}
);
layerId = "8A554741-4702-4062-BB66-90759B2989E8";
paths = (
{
closed = 1;
nodes = (
"0 245 LINE",
"200 245 LINE",
"200 260 LINE",
"0 260 LINE"
);
}
);
width = 400;
},
{
components = (
{
name = D;
}
);
layerId = "85A323BC-B6ED-4BBF-BDC0-2512995D313B";
paths = (
{
closed = 1;
nodes = (
"0 295 LINE",
"200 295 LINE",
"200 310 LINE",
"0 310 LINE"
);
}
);
width = 400;
},
{
components = (
{
name = D;
}
);
layerId = "58F0F7D9-EF21-4AE8-AA27-0883B656C4D9";
paths = (
{
closed = 1;
nodes = (
"0 345 LINE",
"200 345 LINE",
"200 360 LINE",
"0 360 LINE"
);
}
);
width = 400;
},
{
components = (
{
name = D;
}
);
layerId = "3368C2D0-32A5-4C39-8D28-9DDD3DF16F4F";
paths = (
{
closed = 1;
nodes = (
"0 395 LINE",
"200 395 LINE",
"200 410 LINE",
"0 410 LINE"
);
}
);
width = 400;
},
{
components = (
{
name = D;
}
);
layerId = "63CBFDDD-5FDA-43A8-A05C-FA26C6515AD1";
paths = (
{
closed = 1;
nodes = (
"0 245 LINE",
"200 245 LINE",
"200 260 LINE",
"0 260 LINE"
);
}
);
width = 400;
},
{
components = (
{
name = D;
}
);
layerId = "CF134569-8278-46EB-8532-B06C964AA883";
paths = (
{
closed = 1;
nodes = (
"0 245 LINE",
"200 245 LINE",
"200 260 LINE",
"0 260 LINE"
);
}
);
width = 400;
},
{
components = (
{
name = D;
}
);
layerId = "E8EB710A-6856-432C-AFE6-A1B9D47CAF04";
paths = (
{
closed = 1;
nodes = (
"0 245 LINE",
"200 245 LINE",
"200 260 LINE",
"0 260 LINE"
);
}
);
width = 400;
},
{
components = (
{
name = D;
}
);
layerId = "0F8CD6F6-1A2C-4C7A-A427-3AAD4A6CFB6E";
paths = (
{
closed = 1;
nodes = (
"0 245 LINE",
"200 245 LINE",
"200 260 LINE",
"0 260 LINE"
);
}
);
width = 400;
},
{
components = (
{
name = D;
}
);
layerId = "41108C99-B873-4F4A-9E88-CBCA12FB0D05";
paths = (
{
closed = 1;
nodes = (
"0 445 LINE",
"200 445 LINE",
"200 460 LINE",
"0 460 LINE"
);
}
);
width = 400;
},
{
components = (
{
name = D;
}
);
layerId = "5D56F4E4-2991-4C7C-A53E-FE560A092132";
paths = (
{
closed = 1;
nodes = (
"0 495 LINE",
"200 495 LINE",
"200 510 LINE",
"0 510 LINE"
);
}
);
width = 400;
},
{
components = (
{
name = D;
}
);
layerId = "9A1EF6BF-4314-493F-A17F-58969295D1C4";
paths = (
{
closed = 1;
nodes = (
"0 495 LINE",
"200 495 LINE",
"200 510 LINE",
"0 510 LINE"
);
}
);
width = 400;
},
{
components = (
{
name = D;
}
);
layerId = "2B4E891D-0483-4126-8041-32DB51B0785F";
paths = (
{
closed = 1;
nodes = (
"0 545 LINE",
"200 545 LINE",
"200 560 LINE",
"0 560 LINE"
);
}
);
width = 400;
},
{
components = (
{
name = D;
}
);
layerId = "0BC27080-89BE-4C15-A6F1-E37C70B5878F";
paths = (
{
closed = 1;
nodes = (
"0 595 LINE",
"200 595 LINE",
"200 610 LINE",
"0 610 LINE"
);
}
);
width = 400;
},
{
components = (
{
name = D;
}
);
layerId = "B23A0BE0-4E2E-4DF4-BF30-A2BC448F9F8A";
paths = (
{
closed = 1;
nodes = (
"0 245 LINE",
"200 245 LINE",
"200 260 LINE",
"0 260 LINE"
);
}
);
width = 400;
},
{
components = (
{
name = D;
}
);
layerId = "88AB7EF4-8E55-4FD8-B008-AC05EDAD63AD";
paths = (
{
closed = 1;
nodes = (
"0 245 LINE",
"200 245 LINE",
"200 260 LINE",
"0 260 LINE"
);
}
);
width = 400;
},
{
components = (
{
name = D;
}
);
layerId = "B0007273-59F2-4CFD-A0FF-908ED627D6A1";
paths = (
{
closed = 1;
nodes = (
"0 245 LINE",
"200 245 LINE",
"200 260 LINE",
"0 260 LINE"
);
}
);
width = 400;
},
{
components = (
{
name = D;
}
);
layerId = "27366F57-305D-4002-8F95-2432B7DC5E73";
paths = (
{
closed = 1;
nodes = (
"0 245 LINE",
"200 245 LINE",
"200 260 LINE",
"0 260 LINE"
);
}
);
width = 400;
},
{
components = (
{
name = D;
}
);
layerId = "2A7B0294-BC97-4636-A9D3-8FF17374F61F";
paths = (
{
closed = 1;
nodes = (
"0 245 LINE",
"200 245 LINE",
"200 260 LINE",
"0 260 LINE"
);
}
);
width = 400;
},
{
components = (
{
name = D;
}
);
layerId = "2B5AA849-E4E9-4E2A-878C-F5A75DAAE598";
paths = (
{
closed = 1;
nodes = (
"0 245 LINE",
"200 245 LINE",
"200 260 LINE",
"0 260 LINE"
);
}
);
width = 400;
},
{
components = (
{
name = D;
}
);
layerId = "B8F51F5F-46B4-48F2-BB1F-FCDE2D036373";
paths = (
{
closed = 1;
nodes = (
"0 245 LINE",
"200 245 LINE",
"200 260 LINE",
"0 260 LINE"
);
}
);
width = 400;
},
{
components = (
{
name = D;
}
);
layerId = "6F3F633C-62D2-446A-B7E2-3DF68A2746C0";
paths = (
{
closed = 1;
nodes = (
"0 245 LINE",
"200 245 LINE",
"200 260 LINE",
"0 260 LINE"
);
}
);
width = 400;
}
);
unicode = 0110;
},
{
glyphname = E;
lastChange = "2019-06-08 15:51:38 +0000";
layers = (
{
anchors = (
{
name = bottom;
position = "{200, 0}";
},
{
name = top;
position = "{200, 501}";
}
);
layerId = "4DDCB0F7-694C-40EE-9BA1-BC0E1DE62EB1";
paths = (
{
closed = 1;
nodes = (
"350 0 LINE",
"350 100 LINE",
"150 100 LINE",
"150 200 LINE",
"350 200 LINE",
"350 300 LINE",
"150 300 LINE",
"150 400 LINE",
"350 400 LINE",
"350 500 LINE",
"50 500 LINE",
"50 0 LINE"
);
}
);
width = 400;
},
{
anchors = (
{
name = bottom;
position = "{200, 0}";
},
{
name = top;
position = "{200, 501}";
}
);
layerId = "1A5BB28E-E649-4EB3-8E8F-86ABB724B914";
paths = (
{
closed = 1;
nodes = (
"350 0 LINE",
"350 100 LINE",
"150 100 LINE",
"150 200 LINE",
"350 200 LINE",
"350 300 LINE",
"150 300 LINE",
"150 400 LINE",
"450 400 LINE",
"450 500 LINE",
"50 500 LINE",
"50 0 LINE"
);
}
);
width = 400;
},
{
anchors = (
{
name = bottom;
position = "{200, 0}";
},
{
name = top;
position = "{200, 501}";
}
);
layerId = "066B400D-25E0-4076-ABC6-3C593E532716";
paths = (
{
closed = 1;
nodes = (
"350 0 LINE",
"350 100 LINE",
"150 100 LINE",
"150 200 LINE",
"450 200 LINE",
"450 300 LINE",
"150 300 LINE",
"150 400 LINE",
"350 400 LINE",
"350 500 LINE",
"50 500 LINE",
"50 0 LINE"
);
}
);
width = 400;
},
{
anchors = (
{
name = bottom;
position = "{200, 0}";
},
{
name = top;
position = "{200, 501}";
}
);
layerId = "8A554741-4702-4062-BB66-90759B2989E8";
paths = (
{
closed = 1;
nodes = (
"450 0 LINE",
"450 100 LINE",
"150 100 LINE",
"150 200 LINE",
"350 200 LINE",
"350 300 LINE",
"150 300 LINE",
"150 400 LINE",
"350 400 LINE",
"350 500 LINE",
"50 500 LINE",
"50 0 LINE"
);
}
);
width = 400;
},
{
anchors = (
{
name = bottom;
position = "{200, 0}";
},
{
name = top;
position = "{200, 601}";
}
);
layerId = "85A323BC-B6ED-4BBF-BDC0-2512995D313B";
paths = (
{
closed = 1;
nodes = (
"350 0 LINE",
"350 100 LINE",
"150 100 LINE",
"150 200 LINE",
"350 200 LINE",
"350 300 LINE",
"150 300 LINE",
"150 500 LINE",
"350 500 LINE",
"350 600 LINE",
"50 600 LINE",
"50 0 LINE"
);
}
);
width = 400;
},
{
anchors = (
{
name = bottom;
position = "{200, 0}";
},
{
name = top;
position = "{200, 701}";
}
);
layerId = "58F0F7D9-EF21-4AE8-AA27-0883B656C4D9";
paths = (
{
closed = 1;
nodes = (
"350 0 LINE",
"350 100 LINE",
"150 100 LINE",
"150 300 LINE",
"350 300 LINE",
"350 400 LINE",
"150 400 LINE",
"150 600 LINE",
"350 600 LINE",
"350 700 LINE",
"50 700 LINE",
"50 0 LINE"
);
}
);
width = 400;
},
{
anchors = (
{
name = bottom;
position = "{200, 0}";
},
{
name = top;
position = "{200, 801}";
}
);
layerId = "3368C2D0-32A5-4C39-8D28-9DDD3DF16F4F";
paths = (
{
closed = 1;
nodes = (
"350 0 LINE",
"350 100 LINE",
"150 100 LINE",
"150 300 LINE",
"350 300 LINE",
"350 400 LINE",
"150 400 LINE",
"150 700 LINE",
"350 700 LINE",
"350 800 LINE",
"50 800 LINE",
"50 0 LINE"
);
}
);
width = 400;
},
{
anchors = (
{
name = bottom;
position = "{200, 0}";
},
{
name = top;
position = "{200, 501}";
}
);
layerId = "63CBFDDD-5FDA-43A8-A05C-FA26C6515AD1";
paths = (
{
closed = 1;
nodes = (
"350 0 LINE",
"350 100 LINE",
"150 100 LINE",
"150 200 LINE",
"450 200 LINE",
"450 300 LINE",
"150 300 LINE",
"150 400 LINE",
"450 400 LINE",
"450 500 LINE",
"50 500 LINE",
"50 0 LINE"
);
}
);
width = 400;
},
{
anchors = (
{
name = bottom;
position = "{200, 0}";
},
{
name = top;
position = "{200, 501}";
}
);
layerId = "CF134569-8278-46EB-8532-B06C964AA883";
paths = (
{
closed = 1;
nodes = (
"450 0 LINE",
"450 100 LINE",
"150 100 LINE",
"150 200 LINE",
"350 200 LINE",
"350 300 LINE",
"150 300 LINE",
"150 400 LINE",
"450 400 LINE",
"450 500 LINE",
"50 500 LINE",
"50 0 LINE"
);
}
);
width = 400;
},
{
anchors = (
{
name = bottom;
position = "{200, 0}";
},
{
name = top;
position = "{200, 501}";
}
);
layerId = "E8EB710A-6856-432C-AFE6-A1B9D47CAF04";
paths = (
{
closed = 1;
nodes = (
"450 0 LINE",
"450 100 LINE",
"150 100 LINE",
"150 200 LINE",
"450 200 LINE",
"450 300 LINE",
"150 300 LINE",
"150 400 LINE",
"350 400 LINE",
"350 500 LINE",
"50 500 LINE",
"50 0 LINE"
);
}
);
width = 400;
},
{
anchors = (
{
name = bottom;
position = "{200, 0}";
},
{
name = top;
position = "{200, 501}";
}
);
layerId = "0F8CD6F6-1A2C-4C7A-A427-3AAD4A6CFB6E";
paths = (
{
closed = 1;
nodes = (
"450 0 LINE",
"450 100 LINE",
"150 100 LINE",
"150 200 LINE",
"450 200 LINE",
"450 300 LINE",
"150 300 LINE",
"150 400 LINE",
"450 400 LINE",
"450 500 LINE",
"50 500 LINE",
"50 0 LINE"
);
}
);
width = 400;
},
{
anchors = (
{
name = bottom;
position = "{200, 0}";
},
{
name = top;
position = "{200, 901}";
}
);
layerId = "41108C99-B873-4F4A-9E88-CBCA12FB0D05";
paths = (
{
closed = 1;
nodes = (
"350 0 LINE",
"350 100 LINE",
"150 100 LINE",
"150 400 LINE",
"350 400 LINE",
"350 500 LINE",
"150 500 LINE",
"150 800 LINE",
"350 800 LINE",
"350 900 LINE",
"50 900 LINE",
"50 0 LINE"
);
}
);
width = 400;
},
{
anchors = (
{
name = bottom;
position = "{200, 0}";
},
{
name = top;
position = "{200, 1001}";
}
);
layerId = "5D56F4E4-2991-4C7C-A53E-FE560A092132";
paths = (
{
closed = 1;
nodes = (
"350 0 LINE",
"350 100 LINE",
"150 100 LINE",
"150 400 LINE",
"350 400 LINE",
"350 500 LINE",
"150 500 LINE",
"150 900 LINE",
"350 900 LINE",
"350 1000 LINE",
"50 1000 LINE",
"50 0 LINE"
);
}
);
width = 400;
},
{
anchors = (
{
name = bottom;
position = "{200, 0}";
},
{
name = top;
position = "{200, 1101}";
}
);
layerId = "9A1EF6BF-4314-493F-A17F-58969295D1C4";
paths = (
{
closed = 1;
nodes = (
"350 0 LINE",
"350 100 LINE",
"150 100 LINE",
"150 500 LINE",
"350 500 LINE",
"350 600 LINE",
"150 600 LINE",
"150 1000 LINE",
"350 1000 LINE",
"350 1100 LINE",
"50 1100 LINE",
"50 0 LINE"
);
}
);
width = 400;
},
{
anchors = (
{
name = bottom;
position = "{200, 0}";
},
{
name = top;
position = "{200, 1101}";
}
);
layerId = "2B4E891D-0483-4126-8041-32DB51B0785F";
paths = (
{
closed = 1;
nodes = (
"350 0 LINE",
"350 100 LINE",
"150 100 LINE",
"150 500 LINE",
"350 500 LINE",
"350 600 LINE",
"150 600 LINE",
"150 1000 LINE",
"350 1000 LINE",
"350 1100 LINE",
"50 1100 LINE",
"50 0 LINE"
);
}
);
width = 400;
},
{
anchors = (
{
name = bottom;
position = "{200, 0}";
},
{
name = top;
position = "{200, 1101}";
}
);
layerId = "0BC27080-89BE-4C15-A6F1-E37C70B5878F";
paths = (
{
closed = 1;
nodes = (
"350 0 LINE",
"350 100 LINE",
"150 100 LINE",
"150 500 LINE",
"350 500 LINE",
"350 600 LINE",
"150 600 LINE",
"150 1000 LINE",
"350 1000 LINE",
"350 1100 LINE",
"50 1100 LINE",
"50 0 LINE"
);
}
);
width = 400;
},
{
anchors = (
{
name = bottom;
position = "{200, 0}";
},
{
name = top;
position = "{200, 501}";
}
);
layerId = "B23A0BE0-4E2E-4DF4-BF30-A2BC448F9F8A";
paths = (
{
closed = 1;
nodes = (
"450 0 LINE",
"450 100 LINE",
"150 100 LINE",
"150 200 LINE",
"450 200 LINE",
"450 300 LINE",
"150 300 LINE",
"150 400 LINE",
"450 400 LINE",
"450 500 LINE",
"50 500 LINE",
"50 0 LINE"
);
}
);
width = 400;
},
{
anchors = (
{
name = bottom;
position = "{200, 0}";
},
{
name = top;
position = "{200, 501}";
}
);
layerId = "88AB7EF4-8E55-4FD8-B008-AC05EDAD63AD";
paths = (
{
closed = 1;
nodes = (
"450 0 LINE",
"450 100 LINE",
"150 100 LINE",
"150 200 LINE",
"450 200 LINE",
"450 300 LINE",
"150 300 LINE",
"150 400 LINE",
"450 400 LINE",
"450 500 LINE",
"50 500 LINE",
"50 0 LINE"
);
}
);
width = 400;
},
{
anchors = (
{
name = bottom;
position = "{200, 0}";
},
{
name = top;
position = "{200, 501}";
}
);
layerId = "B0007273-59F2-4CFD-A0FF-908ED627D6A1";
paths = (
{
closed = 1;
nodes = (
"450 0 LINE",
"450 100 LINE",
"150 100 LINE",
"150 200 LINE",
"450 200 LINE",
"450 300 LINE",
"150 300 LINE",
"150 400 LINE",
"450 400 LINE",
"450 500 LINE",
"50 500 LINE",
"50 0 LINE"
);
}
);
width = 400;
},
{
anchors = (
{
name = bottom;
position = "{200, 0}";
},
{
name = top;
position = "{200, 501}";
}
);
layerId = "27366F57-305D-4002-8F95-2432B7DC5E73";
paths = (
{
closed = 1;
nodes = (
"450 0 LINE",
"450 100 LINE",
"150 100 LINE",
"150 200 LINE",
"450 200 LINE",
"450 300 LINE",
"150 300 LINE",
"150 400 LINE",
"450 400 LINE",
"450 500 LINE",
"50 500 LINE",
"50 0 LINE"
);
}
);
width = 400;
},
{
anchors = (
{
name = bottom;
position = "{200, 0}";
},
{
name = top;
position = "{200, 501}";
}
);
layerId = "2A7B0294-BC97-4636-A9D3-8FF17374F61F";
paths = (
{
closed = 1;
nodes = (
"450 0 LINE",
"450 100 LINE",
"150 100 LINE",
"150 200 LINE",
"450 200 LINE",
"450 300 LINE",
"150 300 LINE",
"150 400 LINE",
"450 400 LINE",
"450 500 LINE",
"50 500 LINE",
"50 0 LINE"
);
}
);
width = 400;
},
{
anchors = (
{
name = bottom;
position = "{200, 0}";
},
{
name = top;
position = "{200, 501}";
}
);
layerId = "2B5AA849-E4E9-4E2A-878C-F5A75DAAE598";
paths = (
{
closed = 1;
nodes = (
"450 0 LINE",
"450 100 LINE",
"150 100 LINE",
"150 200 LINE",
"450 200 LINE",
"450 300 LINE",
"150 300 LINE",
"150 400 LINE",
"450 400 LINE",
"450 500 LINE",
"50 500 LINE",
"50 0 LINE"
);
}
);
width = 400;
},
{
anchors = (
{
name = bottom;
position = "{200, 0}";
},
{
name = top;
position = "{200, 501}";
}
);
layerId = "B8F51F5F-46B4-48F2-BB1F-FCDE2D036373";
paths = (
{
closed = 1;
nodes = (
"450 0 LINE",
"450 100 LINE",
"150 100 LINE",
"150 200 LINE",
"450 200 LINE",
"450 300 LINE",
"150 300 LINE",
"150 400 LINE",
"450 400 LINE",
"450 500 LINE",
"50 500 LINE",
"50 0 LINE"
);
}
);
width = 400;
},
{
anchors = (
{
name = bottom;
position = "{200, 0}";
},
{
name = top;
position = "{200, 501}";
}
);
layerId = "6F3F633C-62D2-446A-B7E2-3DF68A2746C0";
paths = (
{
closed = 1;
nodes = (
"450 0 LINE",
"450 100 LINE",
"150 100 LINE",
"150 200 LINE",
"450 200 LINE",
"450 300 LINE",
"150 300 LINE",
"150 400 LINE",
"450 400 LINE",
"450 500 LINE",
"50 500 LINE",
"50 0 LINE"
);
}
);
width = 400;
}
);
unicode = 0045;
},
{
glyphname = F;
lastChange = "2019-06-08 15:51:38 +0000";
layers = (
{
layerId = "4DDCB0F7-694C-40EE-9BA1-BC0E1DE62EB1";
paths = (
{
closed = 1;
nodes = (
"150 0 LINE",
"150 200 LINE",
"350 200 LINE",
"350 300 LINE",
"150 300 LINE",
"150 400 LINE",
"350 400 LINE",
"350 500 LINE",
"50 500 LINE",
"50 0 LINE"
);
}
);
width = 400;
},
{
layerId = "1A5BB28E-E649-4EB3-8E8F-86ABB724B914";
paths = (
{
closed = 1;
nodes = (
"150 0 LINE",
"150 200 LINE",
"350 200 LINE",
"350 300 LINE",
"150 300 LINE",
"150 400 LINE",
"450 400 LINE",
"450 500 LINE",
"50 500 LINE",
"50 0 LINE"
);
}
);
width = 400;
},
{
layerId = "066B400D-25E0-4076-ABC6-3C593E532716";
paths = (
{
closed = 1;
nodes = (
"150 0 LINE",
"150 200 LINE",
"450 200 LINE",
"450 300 LINE",
"150 300 LINE",
"150 400 LINE",
"350 400 LINE",
"350 500 LINE",
"50 500 LINE",
"50 0 LINE"
);
}
);
width = 400;
},
{
layerId = "8A554741-4702-4062-BB66-90759B2989E8";
paths = (
{
closed = 1;
nodes = (
"150 0 LINE",
"150 200 LINE",
"450 200 LINE",
"450 300 LINE",
"150 300 LINE",
"150 400 LINE",
"450 400 LINE",
"450 500 LINE",
"50 500 LINE",
"50 0 LINE"
);
}
);
width = 400;
},
{
layerId = "85A323BC-B6ED-4BBF-BDC0-2512995D313B";
paths = (
{
closed = 1;
nodes = (
"150 0 LINE",
"150 300 LINE",
"350 300 LINE",
"350 400 LINE",
"150 400 LINE",
"150 500 LINE",
"350 500 LINE",
"350 600 LINE",
"50 600 LINE",
"50 0 LINE"
);
}
);
width = 400;
},
{
layerId = "58F0F7D9-EF21-4AE8-AA27-0883B656C4D9";
paths = (
{
closed = 1;
nodes = (
"150 0 LINE",
"150 400 LINE",
"350 400 LINE",
"350 500 LINE",
"150 500 LINE",
"150 600 LINE",
"350 600 LINE",
"350 700 LINE",
"50 700 LINE",
"50 0 LINE"
);
}
);
width = 400;
},
{
layerId = "3368C2D0-32A5-4C39-8D28-9DDD3DF16F4F";
paths = (
{
closed = 1;
nodes = (
"150 0 LINE",
"150 500 LINE",
"350 500 LINE",
"350 600 LINE",
"150 600 LINE",
"150 700 LINE",
"350 700 LINE",
"350 800 LINE",
"50 800 LINE",
"50 0 LINE"
);
}
);
width = 400;
},
{
layerId = "63CBFDDD-5FDA-43A8-A05C-FA26C6515AD1";
paths = (
{
closed = 1;
nodes = (
"150 0 LINE",
"150 200 LINE",
"450 200 LINE",
"450 300 LINE",
"150 300 LINE",
"150 400 LINE",
"450 400 LINE",
"450 500 LINE",
"50 500 LINE",
"50 0 LINE"
);
}
);
width = 400;
},
{
layerId = "CF134569-8278-46EB-8532-B06C964AA883";
paths = (
{
closed = 1;
nodes = (
"150 0 LINE",
"150 200 LINE",
"450 200 LINE",
"450 300 LINE",
"150 300 LINE",
"150 400 LINE",
"450 400 LINE",
"450 500 LINE",
"50 500 LINE",
"50 0 LINE"
);
}
);
width = 400;
},
{
layerId = "E8EB710A-6856-432C-AFE6-A1B9D47CAF04";
paths = (
{
closed = 1;
nodes = (
"150 0 LINE",
"150 200 LINE",
"450 200 LINE",
"450 300 LINE",
"150 300 LINE",
"150 400 LINE",
"450 400 LINE",
"450 500 LINE",
"50 500 LINE",
"50 0 LINE"
);
}
);
width = 400;
},
{
layerId = "0F8CD6F6-1A2C-4C7A-A427-3AAD4A6CFB6E";
paths = (
{
closed = 1;
nodes = (
"150 0 LINE",
"150 200 LINE",
"450 200 LINE",
"450 300 LINE",
"150 300 LINE",
"150 400 LINE",
"450 400 LINE",
"450 500 LINE",
"50 500 LINE",
"50 0 LINE"
);
}
);
width = 400;
},
{
layerId = "41108C99-B873-4F4A-9E88-CBCA12FB0D05";
paths = (
{
closed = 1;
nodes = (
"150 0 LINE",
"150 600 LINE",
"350 600 LINE",
"350 700 LINE",
"150 700 LINE",
"150 800 LINE",
"350 800 LINE",
"350 900 LINE",
"50 900 LINE",
"50 0 LINE"
);
}
);
width = 400;
},
{
layerId = "5D56F4E4-2991-4C7C-A53E-FE560A092132";
paths = (
{
closed = 1;
nodes = (
"150 0 LINE",
"150 700 LINE",
"350 700 LINE",
"350 800 LINE",
"150 800 LINE",
"150 900 LINE",
"350 900 LINE",
"350 1000 LINE",
"50 1000 LINE",
"50 0 LINE"
);
}
);
width = 400;
},
{
layerId = "9A1EF6BF-4314-493F-A17F-58969295D1C4";
paths = (
{
closed = 1;
nodes = (
"150 0 LINE",
"150 800 LINE",
"350 800 LINE",
"350 900 LINE",
"150 900 LINE",
"150 1000 LINE",
"350 1000 LINE",
"350 1100 LINE",
"50 1100 LINE",
"50 0 LINE"
);
}
);
width = 400;
},
{
layerId = "2B4E891D-0483-4126-8041-32DB51B0785F";
paths = (
{
closed = 1;
nodes = (
"150 0 LINE",
"150 800 LINE",
"350 800 LINE",
"350 900 LINE",
"150 900 LINE",
"150 1000 LINE",
"350 1000 LINE",
"350 1100 LINE",
"50 1100 LINE",
"50 0 LINE"
);
}
);
width = 400;
},
{
layerId = "0BC27080-89BE-4C15-A6F1-E37C70B5878F";
paths = (
{
closed = 1;
nodes = (
"150 0 LINE",
"150 800 LINE",
"350 800 LINE",
"350 900 LINE",
"150 900 LINE",
"150 1000 LINE",
"350 1000 LINE",
"350 1100 LINE",
"50 1100 LINE",
"50 0 LINE"
);
}
);
width = 400;
},
{
layerId = "B23A0BE0-4E2E-4DF4-BF30-A2BC448F9F8A";
paths = (
{
closed = 1;
nodes = (
"150 0 LINE",
"150 200 LINE",
"450 200 LINE",
"450 300 LINE",
"150 300 LINE",
"150 400 LINE",
"450 400 LINE",
"450 500 LINE",
"50 500 LINE",
"50 0 LINE"
);
}
);
width = 400;
},
{
layerId = "88AB7EF4-8E55-4FD8-B008-AC05EDAD63AD";
paths = (
{
closed = 1;
nodes = (
"150 0 LINE",
"150 200 LINE",
"450 200 LINE",
"450 300 LINE",
"150 300 LINE",
"150 400 LINE",
"450 400 LINE",
"450 500 LINE",
"50 500 LINE",
"50 0 LINE"
);
}
);
width = 400;
},
{
layerId = "B0007273-59F2-4CFD-A0FF-908ED627D6A1";
paths = (
{
closed = 1;
nodes = (
"150 0 LINE",
"150 200 LINE",
"450 200 LINE",
"450 300 LINE",
"150 300 LINE",
"150 400 LINE",
"450 400 LINE",
"450 500 LINE",
"50 500 LINE",
"50 0 LINE"
);
}
);
width = 400;
},
{
layerId = "27366F57-305D-4002-8F95-2432B7DC5E73";
paths = (
{
closed = 1;
nodes = (
"150 0 LINE",
"150 200 LINE",
"450 200 LINE",
"450 300 LINE",
"150 300 LINE",
"150 400 LINE",
"450 400 LINE",
"450 500 LINE",
"50 500 LINE",
"50 0 LINE"
);
}
);
width = 400;
},
{
layerId = "2A7B0294-BC97-4636-A9D3-8FF17374F61F";
paths = (
{
closed = 1;
nodes = (
"150 0 LINE",
"150 200 LINE",
"450 200 LINE",
"450 300 LINE",
"150 300 LINE",
"150 400 LINE",
"450 400 LINE",
"450 500 LINE",
"50 500 LINE",
"50 0 LINE"
);
}
);
width = 400;
},
{
layerId = "2B5AA849-E4E9-4E2A-878C-F5A75DAAE598";
paths = (
{
closed = 1;
nodes = (
"150 0 LINE",
"150 200 LINE",
"450 200 LINE",
"450 300 LINE",
"150 300 LINE",
"150 400 LINE",
"450 400 LINE",
"450 500 LINE",
"50 500 LINE",
"50 0 LINE"
);
}
);
width = 400;
},
{
layerId = "B8F51F5F-46B4-48F2-BB1F-FCDE2D036373";
paths = (
{
closed = 1;
nodes = (
"150 0 LINE",
"150 200 LINE",
"450 200 LINE",
"450 300 LINE",
"150 300 LINE",
"150 400 LINE",
"450 400 LINE",
"450 500 LINE",
"50 500 LINE",
"50 0 LINE"
);
}
);
width = 400;
},
{
layerId = "6F3F633C-62D2-446A-B7E2-3DF68A2746C0";
paths = (
{
closed = 1;
nodes = (
"150 0 LINE",
"150 200 LINE",
"450 200 LINE",
"450 300 LINE",
"150 300 LINE",
"150 400 LINE",
"450 400 LINE",
"450 500 LINE",
"50 500 LINE",
"50 0 LINE"
);
}
);
width = 400;
}
);
unicode = 0046;
},
{
glyphname = G;
lastChange = "2019-06-08 15:51:38 +0000";
layers = (
{
anchors = (
{
name = bottom;
position = "{200, 0}";
},
{
name = top;
position = "{200, 500}";
}
);
layerId = "4DDCB0F7-694C-40EE-9BA1-BC0E1DE62EB1";
paths = (
{
closed = 1;
nodes = (
"350 0 LINE",
"350 300 LINE",
"250 300 LINE",
"250 100 LINE",
"150 100 LINE",
"150 400 LINE",
"350 400 LINE",
"350 500 LINE",
"50 500 LINE",
"50 0 LINE"
);
}
);
width = 400;
},
{
associatedMasterId = "4DDCB0F7-694C-40EE-9BA1-BC0E1DE62EB1";
layerId = "7664198D-B8E6-4A54-AF17-12B81F774B4C";
name = "Apr 24 19, 13:12";
paths = (
{
closed = 1;
nodes = (
"50 0 LINE",
"450 0 LINE",
"450 100 LINE",
"50 100 LINE"
);
},
{
closed = 1;
nodes = (
"50 0 LINE",
"150 0 LINE",
"150 500 LINE",
"50 500 LINE"
);
},
{
closed = 1;
nodes = (
"50 400 LINE",
"550 400 LINE",
"550 500 LINE",
"50 500 LINE"
);
},
{
closed = 1;
nodes = (
"250 200 LINE",
"550 200 LINE",
"550 300 LINE",
"250 300 LINE"
);
},
{
closed = 1;
nodes = (
"450 0 LINE",
"550 0 LINE",
"550 300 LINE",
"450 300 LINE"
);
}
);
width = 300;
},
{
anchors = (
{
name = bottom;
position = "{200, 0}";
},
{
name = top;
position = "{200, 500}";
}
);
layerId = "1A5BB28E-E649-4EB3-8E8F-86ABB724B914";
paths = (
{
closed = 1;
nodes = (
"350 0 LINE",
"350 300 LINE",
"250 300 LINE",
"250 100 LINE",
"150 100 LINE",
"150 400 LINE",
"450 400 LINE",
"450 500 LINE",
"50 500 LINE",
"50 0 LINE"
);
}
);
width = 400;
},
{
anchors = (
{
name = bottom;
position = "{200, 0}";
},
{
name = top;
position = "{200, 500}";
}
);
layerId = "066B400D-25E0-4076-ABC6-3C593E532716";
paths = (
{
closed = 1;
nodes = (
"350 0 LINE",
"350 300 LINE",
"250 300 LINE",
"250 100 LINE",
"150 100 LINE",
"150 400 LINE",
"450 400 LINE",
"450 500 LINE",
"50 500 LINE",
"50 0 LINE"
);
}
);
width = 400;
},
{
anchors = (
{
name = bottom;
position = "{200, 0}";
},
{
name = top;
position = "{200, 500}";
}
);
layerId = "8A554741-4702-4062-BB66-90759B2989E8";
paths = (
{
closed = 1;
nodes = (
"350 0 LINE",
"350 300 LINE",
"250 300 LINE",
"250 100 LINE",
"150 100 LINE",
"150 400 LINE",
"450 400 LINE",
"450 500 LINE",
"50 500 LINE",
"50 0 LINE"
);
}
);
width = 600;
},
{
anchors = (
{
name = bottom;
position = "{200, 0}";
},
{
name = top;
position = "{200, 600}";
}
);
layerId = "85A323BC-B6ED-4BBF-BDC0-2512995D313B";
paths = (
{
closed = 1;
nodes = (
"350 0 LINE",
"350 400 LINE",
"250 400 LINE",
"250 100 LINE",
"150 100 LINE",
"150 500 LINE",
"350 500 LINE",
"350 600 LINE",
"50 600 LINE",
"50 0 LINE"
);
}
);
width = 600;
},
{
anchors = (
{
name = bottom;
position = "{200, 0}";
},
{
name = top;
position = "{200, 700}";
}
);
layerId = "58F0F7D9-EF21-4AE8-AA27-0883B656C4D9";
paths = (
{
closed = 1;
nodes = (
"350 0 LINE",
"350 500 LINE",
"250 500 LINE",
"250 100 LINE",
"150 100 LINE",
"150 600 LINE",
"350 600 LINE",
"350 700 LINE",
"50 700 LINE",
"50 0 LINE"
);
}
);
width = 600;
},
{
anchors = (
{
name = bottom;
position = "{200, 0}";
},
{
name = top;
position = "{200, 800}";
}
);
layerId = "3368C2D0-32A5-4C39-8D28-9DDD3DF16F4F";
paths = (
{
closed = 1;
nodes = (
"350 0 LINE",
"350 600 LINE",
"250 600 LINE",
"250 100 LINE",
"150 100 LINE",
"150 700 LINE",
"350 700 LINE",
"350 800 LINE",
"50 800 LINE",
"50 0 LINE"
);
}
);
width = 400;
},
{
anchors = (
{
name = bottom;
position = "{200, 0}";
},
{
name = top;
position = "{200, 500}";
}
);
layerId = "63CBFDDD-5FDA-43A8-A05C-FA26C6515AD1";
paths = (
{
closed = 1;
nodes = (
"350 0 LINE",
"350 300 LINE",
"250 300 LINE",
"250 100 LINE",
"150 100 LINE",
"150 400 LINE",
"450 400 LINE",
"450 500 LINE",
"50 500 LINE",
"50 0 LINE"
);
}
);
width = 600;
},
{
anchors = (
{
name = bottom;
position = "{200, 0}";
},
{
name = top;
position = "{200, 500}";
}
);
layerId = "CF134569-8278-46EB-8532-B06C964AA883";
paths = (
{
closed = 1;
nodes = (
"350 0 LINE",
"350 300 LINE",
"250 300 LINE",
"250 100 LINE",
"150 100 LINE",
"150 400 LINE",
"450 400 LINE",
"450 500 LINE",
"50 500 LINE",
"50 0 LINE"
);
}
);
width = 600;
},
{
anchors = (
{
name = bottom;
position = "{200, 0}";
},
{
name = top;
position = "{200, 500}";
}
);
layerId = "E8EB710A-6856-432C-AFE6-A1B9D47CAF04";
paths = (
{
closed = 1;
nodes = (
"350 0 LINE",
"350 300 LINE",
"250 300 LINE",
"250 100 LINE",
"150 100 LINE",
"150 400 LINE",
"450 400 LINE",
"450 500 LINE",
"50 500 LINE",
"50 0 LINE"
);
}
);
width = 600;
},
{
anchors = (
{
name = bottom;
position = "{200, 0}";
},
{
name = top;
position = "{200, 500}";
}
);
layerId = "0F8CD6F6-1A2C-4C7A-A427-3AAD4A6CFB6E";
paths = (
{
closed = 1;
nodes = (
"350 0 LINE",
"350 300 LINE",
"250 300 LINE",
"250 100 LINE",
"150 100 LINE",
"150 400 LINE",
"450 400 LINE",
"450 500 LINE",
"50 500 LINE",
"50 0 LINE"
);
}
);
width = 600;
},
{
anchors = (
{
name = bottom;
position = "{200, 0}";
},
{
name = top;
position = "{200, 900}";
}
);
layerId = "41108C99-B873-4F4A-9E88-CBCA12FB0D05";
paths = (
{
closed = 1;
nodes = (
"350 0 LINE",
"350 700 LINE",
"250 700 LINE",
"250 100 LINE",
"150 100 LINE",
"150 800 LINE",
"350 800 LINE",
"350 900 LINE",
"50 900 LINE",
"50 0 LINE"
);
}
);
width = 400;
},
{
anchors = (
{
name = bottom;
position = "{200, 0}";
},
{
name = top;
position = "{200, 1000}";
}
);
layerId = "5D56F4E4-2991-4C7C-A53E-FE560A092132";
paths = (
{
closed = 1;
nodes = (
"350 0 LINE",
"350 800 LINE",
"250 800 LINE",
"250 100 LINE",
"150 100 LINE",
"150 900 LINE",
"350 900 LINE",
"350 1000 LINE",
"50 1000 LINE",
"50 0 LINE"
);
}
);
width = 400;
},
{
anchors = (
{
name = bottom;
position = "{200, 0}";
},
{
name = top;
position = "{200, 1100}";
}
);
layerId = "9A1EF6BF-4314-493F-A17F-58969295D1C4";
paths = (
{
closed = 1;
nodes = (
"350 0 LINE",
"350 900 LINE",
"250 900 LINE",
"250 100 LINE",
"150 100 LINE",
"150 1000 LINE",
"350 1000 LINE",
"350 1100 LINE",
"50 1100 LINE",
"50 0 LINE"
);
}
);
width = 400;
},
{
anchors = (
{
name = bottom;
position = "{200, 0}";
},
{
name = top;
position = "{200, 1100}";
}
);
layerId = "2B4E891D-0483-4126-8041-32DB51B0785F";
paths = (
{
closed = 1;
nodes = (
"350 0 LINE",
"350 900 LINE",
"250 900 LINE",
"250 100 LINE",
"150 100 LINE",
"150 1000 LINE",
"350 1000 LINE",
"350 1100 LINE",
"50 1100 LINE",
"50 0 LINE"
);
}
);
width = 400;
},
{
anchors = (
{
name = bottom;
position = "{200, 0}";
},
{
name = top;
position = "{200, 1100}";
}
);
layerId = "0BC27080-89BE-4C15-A6F1-E37C70B5878F";
paths = (
{
closed = 1;
nodes = (
"350 0 LINE",
"350 900 LINE",
"250 900 LINE",
"250 100 LINE",
"150 100 LINE",
"150 1000 LINE",
"350 1000 LINE",
"350 1100 LINE",
"50 1100 LINE",
"50 0 LINE"
);
}
);
width = 400;
},
{
anchors = (
{
name = bottom;
position = "{200, 0}";
},
{
name = top;
position = "{200, 500}";
}
);
layerId = "B23A0BE0-4E2E-4DF4-BF30-A2BC448F9F8A";
paths = (
{
closed = 1;
nodes = (
"350 0 LINE",
"350 300 LINE",
"250 300 LINE",
"250 100 LINE",
"150 100 LINE",
"150 400 LINE",
"450 400 LINE",
"450 500 LINE",
"50 500 LINE",
"50 0 LINE"
);
}
);
width = 600;
},
{
anchors = (
{
name = bottom;
position = "{200, 0}";
},
{
name = top;
position = "{200, 500}";
}
);
layerId = "88AB7EF4-8E55-4FD8-B008-AC05EDAD63AD";
paths = (
{
closed = 1;
nodes = (
"350 0 LINE",
"350 300 LINE",
"250 300 LINE",
"250 100 LINE",
"150 100 LINE",
"150 400 LINE",
"450 400 LINE",
"450 500 LINE",
"50 500 LINE",
"50 0 LINE"
);
}
);
width = 600;
},
{
anchors = (
{
name = bottom;
position = "{200, 0}";
},
{
name = top;
position = "{200, 500}";
}
);
layerId = "B0007273-59F2-4CFD-A0FF-908ED627D6A1";
paths = (
{
closed = 1;
nodes = (
"350 0 LINE",
"350 300 LINE",
"250 300 LINE",
"250 100 LINE",
"150 100 LINE",
"150 400 LINE",
"450 400 LINE",
"450 500 LINE",
"50 500 LINE",
"50 0 LINE"
);
}
);
width = 600;
},
{
anchors = (
{
name = bottom;
position = "{200, 0}";
},
{
name = top;
position = "{200, 500}";
}
);
layerId = "27366F57-305D-4002-8F95-2432B7DC5E73";
paths = (
{
closed = 1;
nodes = (
"350 0 LINE",
"350 300 LINE",
"250 300 LINE",
"250 100 LINE",
"150 100 LINE",
"150 400 LINE",
"450 400 LINE",
"450 500 LINE",
"50 500 LINE",
"50 0 LINE"
);
}
);
width = 600;
},
{
anchors = (
{
name = bottom;
position = "{200, 0}";
},
{
name = top;
position = "{200, 500}";
}
);
layerId = "2A7B0294-BC97-4636-A9D3-8FF17374F61F";
paths = (
{
closed = 1;
nodes = (
"350 0 LINE",
"350 300 LINE",
"250 300 LINE",
"250 100 LINE",
"150 100 LINE",
"150 400 LINE",
"450 400 LINE",
"450 500 LINE",
"50 500 LINE",
"50 0 LINE"
);
}
);
width = 600;
},
{
anchors = (
{
name = bottom;
position = "{200, 0}";
},
{
name = top;
position = "{200, 500}";
}
);
layerId = "2B5AA849-E4E9-4E2A-878C-F5A75DAAE598";
paths = (
{
closed = 1;
nodes = (
"350 0 LINE",
"350 300 LINE",
"250 300 LINE",
"250 100 LINE",
"150 100 LINE",
"150 400 LINE",
"450 400 LINE",
"450 500 LINE",
"50 500 LINE",
"50 0 LINE"
);
}
);
width = 600;
},
{
anchors = (
{
name = bottom;
position = "{200, 0}";
},
{
name = top;
position = "{200, 500}";
}
);
layerId = "B8F51F5F-46B4-48F2-BB1F-FCDE2D036373";
paths = (
{
closed = 1;
nodes = (
"350 0 LINE",
"350 300 LINE",
"250 300 LINE",
"250 100 LINE",
"150 100 LINE",
"150 400 LINE",
"450 400 LINE",
"450 500 LINE",
"50 500 LINE",
"50 0 LINE"
);
}
);
width = 600;
},
{
anchors = (
{
name = bottom;
position = "{200, 0}";
},
{
name = top;
position = "{200, 500}";
}
);
layerId = "6F3F633C-62D2-446A-B7E2-3DF68A2746C0";
paths = (
{
closed = 1;
nodes = (
"350 0 LINE",
"350 300 LINE",
"250 300 LINE",
"250 100 LINE",
"150 100 LINE",
"150 400 LINE",
"450 400 LINE",
"450 500 LINE",
"50 500 LINE",
"50 0 LINE"
);
}
);
width = 600;
}
);
unicode = 0047;
},
{
glyphname = H;
lastChange = "2019-06-12 14:10:24 +0000";
layers = (
{
layerId = "4DDCB0F7-694C-40EE-9BA1-BC0E1DE62EB1";
paths = (
{
closed = 1;
nodes = (
"150 0 LINE",
"150 201 LINE",
"250 202 LINE",
"250 1 LINE",
"350 1 LINE",
"350 501 LINE",
"250 501 LINE",
"250 302 LINE",
"150 301 LINE",
"150 500 LINE",
"50 500 LINE",
"50 0 LINE"
);
}
);
width = 400;
},
{
layerId = "1A5BB28E-E649-4EB3-8E8F-86ABB724B914";
paths = (
{
closed = 1;
nodes = (
"150 0 LINE",
"150 201 LINE",
"250 202 LINE",
"250 1 LINE",
"350 1 LINE",
"350 501 LINE",
"250 501 LINE",
"250 302 LINE",
"150 301 LINE",
"150 600 LINE",
"50 600 LINE",
"50 0 LINE"
);
}
);
width = 400;
},
{
layerId = "066B400D-25E0-4076-ABC6-3C593E532716";
paths = (
{
closed = 1;
nodes = (
"150 0 LINE",
"150 201 LINE",
"250 202 LINE",
"250 1 LINE",
"350 1 LINE",
"350 600 LINE",
"250 600 LINE",
"250 302 LINE",
"150 301 LINE",
"150 500 LINE",
"50 500 LINE",
"50 0 LINE"
);
}
);
width = 400;
},
{
layerId = "8A554741-4702-4062-BB66-90759B2989E8";
paths = (
{
closed = 1;
nodes = (
"150 -100 LINE",
"150 201 LINE",
"250 202 LINE",
"250 1 LINE",
"350 1 LINE",
"350 501 LINE",
"250 501 LINE",
"250 302 LINE",
"150 301 LINE",
"150 500 LINE",
"50 500 LINE",
"50 -100 LINE"
);
}
);
width = 400;
},
{
layerId = "85A323BC-B6ED-4BBF-BDC0-2512995D313B";
paths = (
{
closed = 1;
nodes = (
"150 0 LINE",
"150 201 LINE",
"250 202 LINE",
"250 1 LINE",
"350 1 LINE",
"350 600 LINE",
"250 600 LINE",
"250 302 LINE",
"150 301 LINE",
"150 599 LINE",
"50 599 LINE",
"50 0 LINE"
);
}
);
width = 400;
},
{
layerId = "58F0F7D9-EF21-4AE8-AA27-0883B656C4D9";
paths = (
{
closed = 1;
nodes = (
"150 0 LINE",
"150 299 LINE",
"250 300 LINE",
"250 1 LINE",
"350 1 LINE",
"350 700 LINE",
"250 700 LINE",
"250 400 LINE",
"150 399 LINE",
"150 699 LINE",
"50 699 LINE",
"50 0 LINE"
);
}
);
width = 400;
},
{
layerId = "3368C2D0-32A5-4C39-8D28-9DDD3DF16F4F";
paths = (
{
closed = 1;
nodes = (
"150 0 LINE",
"150 299 LINE",
"250 300 LINE",
"250 1 LINE",
"350 1 LINE",
"350 800 LINE",
"250 800 LINE",
"250 400 LINE",
"150 399 LINE",
"150 799 LINE",
"50 799 LINE",
"50 0 LINE"
);
}
);
width = 400;
},
{
layerId = "63CBFDDD-5FDA-43A8-A05C-FA26C6515AD1";
paths = (
{
closed = 1;
nodes = (
"150 0 LINE",
"150 201 LINE",
"250 202 LINE",
"250 -100 LINE",
"350 -100 LINE",
"350 501 LINE",
"250 501 LINE",
"250 302 LINE",
"150 301 LINE",
"150 500 LINE",
"50 500 LINE",
"50 0 LINE"
);
}
);
width = 400;
},
{
layerId = "CF134569-8278-46EB-8532-B06C964AA883";
paths = (
{
closed = 1;
nodes = (
"150 0 LINE",
"150 201 LINE",
"250 202 LINE",
"250 1 LINE",
"350 1 LINE",
"350 601 LINE",
"250 601 LINE",
"250 302 LINE",
"150 301 LINE",
"150 600 LINE",
"50 600 LINE",
"50 0 LINE"
);
}
);
width = 400;
},
{
layerId = "E8EB710A-6856-432C-AFE6-A1B9D47CAF04";
paths = (
{
closed = 1;
nodes = (
"150 -100 LINE",
"150 201 LINE",
"250 202 LINE",
"250 1 LINE",
"350 1 LINE",
"350 501 LINE",
"250 501 LINE",
"250 302 LINE",
"150 301 LINE",
"150 600 LINE",
"50 600 LINE",
"50 -100 LINE"
);
}
);
width = 400;
},
{
layerId = "0F8CD6F6-1A2C-4C7A-A427-3AAD4A6CFB6E";
paths = (
{
closed = 1;
nodes = (
"150 0 LINE",
"150 201 LINE",
"250 202 LINE",
"250 -100 LINE",
"350 -100 LINE",
"350 501 LINE",
"250 501 LINE",
"250 302 LINE",
"150 301 LINE",
"150 600 LINE",
"50 600 LINE",
"50 0 LINE"
);
}
);
width = 400;
},
{
layerId = "41108C99-B873-4F4A-9E88-CBCA12FB0D05";
paths = (
{
closed = 1;
nodes = (
"150 0 LINE",
"150 399 LINE",
"250 400 LINE",
"250 1 LINE",
"350 1 LINE",
"350 900 LINE",
"250 900 LINE",
"250 500 LINE",
"150 499 LINE",
"150 899 LINE",
"50 899 LINE",
"50 0 LINE"
);
}
);
width = 400;
},
{
layerId = "5D56F4E4-2991-4C7C-A53E-FE560A092132";
paths = (
{
closed = 1;
nodes = (
"150 0 LINE",
"150 399 LINE",
"250 400 LINE",
"250 1 LINE",
"350 1 LINE",
"350 1000 LINE",
"250 1000 LINE",
"250 500 LINE",
"150 499 LINE",
"150 999 LINE",
"50 999 LINE",
"50 0 LINE"
);
}
);
width = 400;
},
{
layerId = "9A1EF6BF-4314-493F-A17F-58969295D1C4";
paths = (
{
closed = 1;
nodes = (
"150 0 LINE",
"150 499 LINE",
"250 500 LINE",
"250 1 LINE",
"350 1 LINE",
"350 1100 LINE",
"250 1100 LINE",
"250 600 LINE",
"150 599 LINE",
"150 1099 LINE",
"50 1099 LINE",
"50 0 LINE"
);
}
);
width = 400;
},
{
layerId = "2B4E891D-0483-4126-8041-32DB51B0785F";
paths = (
{
closed = 1;
nodes = (
"150 0 LINE",
"150 499 LINE",
"250 500 LINE",
"250 1 LINE",
"350 1 LINE",
"350 1100 LINE",
"250 1100 LINE",
"250 600 LINE",
"150 599 LINE",
"150 1099 LINE",
"50 1099 LINE",
"50 0 LINE"
);
}
);
width = 400;
},
{
layerId = "0BC27080-89BE-4C15-A6F1-E37C70B5878F";
paths = (
{
closed = 1;
nodes = (
"150 0 LINE",
"150 499 LINE",
"250 500 LINE",
"250 1 LINE",
"350 1 LINE",
"350 1100 LINE",
"250 1100 LINE",
"250 600 LINE",
"150 599 LINE",
"150 1099 LINE",
"50 1099 LINE",
"50 0 LINE"
);
}
);
width = 400;
},
{
layerId = "B23A0BE0-4E2E-4DF4-BF30-A2BC448F9F8A";
paths = (
{
closed = 1;
nodes = (
"150 -100 LINE",
"150 201 LINE",
"250 202 LINE",
"250 0 LINE",
"350 0 LINE",
"350 601 LINE",
"250 601 LINE",
"250 302 LINE",
"150 301 LINE",
"150 500 LINE",
"50 500 LINE",
"50 -100 LINE"
);
}
);
width = 400;
},
{
layerId = "88AB7EF4-8E55-4FD8-B008-AC05EDAD63AD";
paths = (
{
closed = 1;
nodes = (
"150 0 LINE",
"150 201 LINE",
"250 202 LINE",
"250 -100 LINE",
"350 -100 LINE",
"350 600 LINE",
"250 600 LINE",
"250 302 LINE",
"150 301 LINE",
"150 500 LINE",
"50 500 LINE",
"50 0 LINE"
);
}
);
width = 400;
},
{
layerId = "B0007273-59F2-4CFD-A0FF-908ED627D6A1";
paths = (
{
closed = 1;
nodes = (
"150 -100 LINE",
"150 201 LINE",
"250 202 LINE",
"250 -100 LINE",
"350 -100 LINE",
"350 501 LINE",
"250 501 LINE",
"250 302 LINE",
"150 301 LINE",
"150 500 LINE",
"50 500 LINE",
"50 -100 LINE"
);
}
);
width = 400;
},
{
layerId = "27366F57-305D-4002-8F95-2432B7DC5E73";
paths = (
{
closed = 1;
nodes = (
"150 -100 LINE",
"150 201 LINE",
"250 202 LINE",
"250 0 LINE",
"350 0 LINE",
"350 601 LINE",
"250 601 LINE",
"250 302 LINE",
"150 301 LINE",
"150 600 LINE",
"50 600 LINE",
"50 -100 LINE"
);
}
);
width = 400;
},
{
layerId = "2A7B0294-BC97-4636-A9D3-8FF17374F61F";
paths = (
{
closed = 1;
nodes = (
"150 0 LINE",
"150 201 LINE",
"250 202 LINE",
"250 -100 LINE",
"350 -100 LINE",
"350 600 LINE",
"250 600 LINE",
"250 302 LINE",
"150 301 LINE",
"150 600 LINE",
"50 600 LINE",
"50 0 LINE"
);
}
);
width = 400;
},
{
layerId = "2B5AA849-E4E9-4E2A-878C-F5A75DAAE598";
paths = (
{
closed = 1;
nodes = (
"150 -100 LINE",
"150 201 LINE",
"250 202 LINE",
"250 -100 LINE",
"350 -100 LINE",
"350 600 LINE",
"250 600 LINE",
"250 302 LINE",
"150 301 LINE",
"150 500 LINE",
"50 500 LINE",
"50 -100 LINE"
);
}
);
width = 400;
},
{
layerId = "B8F51F5F-46B4-48F2-BB1F-FCDE2D036373";
paths = (
{
closed = 1;
nodes = (
"150 -100 LINE",
"150 201 LINE",
"250 202 LINE",
"250 -100 LINE",
"350 -100 LINE",
"350 500 LINE",
"250 500 LINE",
"250 302 LINE",
"150 301 LINE",
"150 600 LINE",
"50 600 LINE",
"50 -100 LINE"
);
}
);
width = 400;
},
{
layerId = "6F3F633C-62D2-446A-B7E2-3DF68A2746C0";
paths = (
{
closed = 1;
nodes = (
"150 -100 LINE",
"150 201 LINE",
"250 202 LINE",
"250 -100 LINE",
"350 -100 LINE",
"350 600 LINE",
"250 600 LINE",
"250 302 LINE",
"150 301 LINE",
"150 600 LINE",
"50 600 LINE",
"50 -100 LINE"
);
}
);
width = 400;
}
);
unicode = 0048;
},
{
glyphname = Hbar;
lastChange = "2019-06-12 14:23:20 +0000";
layers = (
{
layerId = "4DDCB0F7-694C-40EE-9BA1-BC0E1DE62EB1";
paths = (
{
closed = 1;
nodes = (
"150 0 LINE",
"150 99 LINE",
"250 100 LINE",
"250 1 LINE",
"350 1 LINE",
"350 501 LINE",
"250 501 LINE",
"250 400 LINE",
"150 400 LINE",
"150 500 LINE",
"50 500 LINE",
"50 0 LINE"
);
},
{
closed = 1;
nodes = (
"150 300 LINE",
"250 300 LINE",
"250 200 LINE",
"150 199 LINE"
);
}
);
width = 400;
},
{
layerId = "1A5BB28E-E649-4EB3-8E8F-86ABB724B914";
paths = (
{
closed = 1;
nodes = (
"150 0 LINE",
"150 99 LINE",
"250 100 LINE",
"250 1 LINE",
"350 1 LINE",
"350 501 LINE",
"250 501 LINE",
"250 400 LINE",
"150 400 LINE",
"150 600 LINE",
"50 600 LINE",
"50 0 LINE"
);
},
{
closed = 1;
nodes = (
"150 300 LINE",
"250 300 LINE",
"250 200 LINE",
"150 199 LINE"
);
}
);
width = 400;
},
{
layerId = "066B400D-25E0-4076-ABC6-3C593E532716";
paths = (
{
closed = 1;
nodes = (
"150 0 LINE",
"150 99 LINE",
"250 100 LINE",
"250 1 LINE",
"350 1 LINE",
"350 600 LINE",
"250 600 LINE",
"250 400 LINE",
"150 400 LINE",
"150 500 LINE",
"50 500 LINE",
"50 0 LINE"
);
},
{
closed = 1;
nodes = (
"150 300 LINE",
"250 300 LINE",
"250 200 LINE",
"150 199 LINE"
);
}
);
width = 400;
},
{
layerId = "8A554741-4702-4062-BB66-90759B2989E8";
paths = (
{
closed = 1;
nodes = (
"150 -100 LINE",
"150 99 LINE",
"250 100 LINE",
"250 1 LINE",
"350 1 LINE",
"350 501 LINE",
"250 501 LINE",
"250 400 LINE",
"150 400 LINE",
"150 500 LINE",
"50 500 LINE",
"50 -100 LINE"
);
},
{
closed = 1;
nodes = (
"150 300 LINE",
"250 300 LINE",
"250 200 LINE",
"150 199 LINE"
);
}
);
width = 400;
},
{
layerId = "85A323BC-B6ED-4BBF-BDC0-2512995D313B";
paths = (
{
closed = 1;
nodes = (
"150 0 LINE",
"150 99 LINE",
"250 100 LINE",
"250 1 LINE",
"350 1 LINE",
"350 600 LINE",
"250 600 LINE",
"250 400 LINE",
"150 400 LINE",
"150 599 LINE",
"50 599 LINE",
"50 0 LINE"
);
},
{
closed = 1;
nodes = (
"150 300 LINE",
"250 300 LINE",
"250 200 LINE",
"150 199 LINE"
);
}
);
width = 400;
},
{
layerId = "58F0F7D9-EF21-4AE8-AA27-0883B656C4D9";
paths = (
{
closed = 1;
nodes = (
"150 0 LINE",
"150 199 LINE",
"250 200 LINE",
"250 1 LINE",
"350 1 LINE",
"350 700 LINE",
"250 700 LINE",
"250 500 LINE",
"150 500 LINE",
"150 699 LINE",
"50 699 LINE",
"50 0 LINE"
);
},
{
closed = 1;
nodes = (
"150 400 LINE",
"250 400 LINE",
"250 300 LINE",
"150 299 LINE"
);
}
);
width = 400;
},
{
layerId = "3368C2D0-32A5-4C39-8D28-9DDD3DF16F4F";
paths = (
{
closed = 1;
nodes = (
"150 0 LINE",
"150 199 LINE",
"250 200 LINE",
"250 1 LINE",
"350 1 LINE",
"350 800 LINE",
"250 800 LINE",
"250 500 LINE",
"150 500 LINE",
"150 799 LINE",
"50 799 LINE",
"50 0 LINE"
);
},
{
closed = 1;
nodes = (
"150 400 LINE",
"250 400 LINE",
"250 300 LINE",
"150 299 LINE"
);
}
);
width = 400;
},
{
layerId = "63CBFDDD-5FDA-43A8-A05C-FA26C6515AD1";
paths = (
{
closed = 1;
nodes = (
"150 0 LINE",
"150 99 LINE",
"250 100 LINE",
"250 -100 LINE",
"350 -100 LINE",
"350 501 LINE",
"250 501 LINE",
"250 400 LINE",
"150 400 LINE",
"150 500 LINE",
"50 500 LINE",
"50 0 LINE"
);
},
{
closed = 1;
nodes = (
"150 300 LINE",
"250 300 LINE",
"250 200 LINE",
"150 199 LINE"
);
}
);
width = 400;
},
{
layerId = "CF134569-8278-46EB-8532-B06C964AA883";
paths = (
{
closed = 1;
nodes = (
"150 0 LINE",
"150 99 LINE",
"250 100 LINE",
"250 1 LINE",
"350 1 LINE",
"350 601 LINE",
"250 601 LINE",
"250 400 LINE",
"150 400 LINE",
"150 600 LINE",
"50 600 LINE",
"50 0 LINE"
);
},
{
closed = 1;
nodes = (
"150 300 LINE",
"250 300 LINE",
"250 200 LINE",
"150 199 LINE"
);
}
);
width = 400;
},
{
layerId = "E8EB710A-6856-432C-AFE6-A1B9D47CAF04";
paths = (
{
closed = 1;
nodes = (
"150 -100 LINE",
"150 99 LINE",
"250 100 LINE",
"250 1 LINE",
"350 1 LINE",
"350 501 LINE",
"250 501 LINE",
"250 400 LINE",
"150 400 LINE",
"150 600 LINE",
"50 600 LINE",
"50 -100 LINE"
);
},
{
closed = 1;
nodes = (
"150 300 LINE",
"250 300 LINE",
"250 200 LINE",
"150 199 LINE"
);
}
);
width = 400;
},
{
layerId = "0F8CD6F6-1A2C-4C7A-A427-3AAD4A6CFB6E";
paths = (
{
closed = 1;
nodes = (
"150 0 LINE",
"150 99 LINE",
"250 100 LINE",
"250 -100 LINE",
"350 -100 LINE",
"350 501 LINE",
"250 501 LINE",
"250 400 LINE",
"150 400 LINE",
"150 600 LINE",
"50 600 LINE",
"50 0 LINE"
);
},
{
closed = 1;
nodes = (
"150 300 LINE",
"250 300 LINE",
"250 200 LINE",
"150 199 LINE"
);
}
);
width = 400;
},
{
layerId = "41108C99-B873-4F4A-9E88-CBCA12FB0D05";
paths = (
{
closed = 1;
nodes = (
"150 0 LINE",
"150 299 LINE",
"250 300 LINE",
"250 1 LINE",
"350 1 LINE",
"350 900 LINE",
"250 900 LINE",
"250 600 LINE",
"150 600 LINE",
"150 899 LINE",
"50 899 LINE",
"50 0 LINE"
);
},
{
closed = 1;
nodes = (
"150 500 LINE",
"250 500 LINE",
"250 400 LINE",
"150 399 LINE"
);
}
);
width = 400;
},
{
layerId = "5D56F4E4-2991-4C7C-A53E-FE560A092132";
paths = (
{
closed = 1;
nodes = (
"150 0 LINE",
"150 299 LINE",
"250 300 LINE",
"250 1 LINE",
"350 1 LINE",
"350 1000 LINE",
"250 1000 LINE",
"250 600 LINE",
"150 600 LINE",
"150 999 LINE",
"50 999 LINE",
"50 0 LINE"
);
},
{
closed = 1;
nodes = (
"150 500 LINE",
"250 500 LINE",
"250 400 LINE",
"150 399 LINE"
);
}
);
width = 400;
},
{
layerId = "9A1EF6BF-4314-493F-A17F-58969295D1C4";
paths = (
{
closed = 1;
nodes = (
"150 0 LINE",
"150 399 LINE",
"250 400 LINE",
"250 1 LINE",
"350 1 LINE",
"350 1100 LINE",
"250 1100 LINE",
"250 700 LINE",
"150 700 LINE",
"150 1099 LINE",
"50 1099 LINE",
"50 0 LINE"
);
},
{
closed = 1;
nodes = (
"150 600 LINE",
"250 600 LINE",
"250 500 LINE",
"150 499 LINE"
);
}
);
width = 400;
},
{
layerId = "2B4E891D-0483-4126-8041-32DB51B0785F";
paths = (
{
closed = 1;
nodes = (
"150 0 LINE",
"150 399 LINE",
"250 400 LINE",
"250 1 LINE",
"350 1 LINE",
"350 1100 LINE",
"250 1100 LINE",
"250 700 LINE",
"150 700 LINE",
"150 1099 LINE",
"50 1099 LINE",
"50 0 LINE"
);
},
{
closed = 1;
nodes = (
"150 600 LINE",
"250 600 LINE",
"250 500 LINE",
"150 499 LINE"
);
}
);
width = 400;
},
{
layerId = "0BC27080-89BE-4C15-A6F1-E37C70B5878F";
paths = (
{
closed = 1;
nodes = (
"150 0 LINE",
"150 399 LINE",
"250 400 LINE",
"250 1 LINE",
"350 1 LINE",
"350 1100 LINE",
"250 1100 LINE",
"250 700 LINE",
"150 700 LINE",
"150 1099 LINE",
"50 1099 LINE",
"50 0 LINE"
);
},
{
closed = 1;
nodes = (
"150 600 LINE",
"250 600 LINE",
"250 500 LINE",
"150 499 LINE"
);
}
);
width = 400;
},
{
layerId = "B23A0BE0-4E2E-4DF4-BF30-A2BC448F9F8A";
paths = (
{
closed = 1;
nodes = (
"150 -100 LINE",
"150 99 LINE",
"250 100 LINE",
"250 0 LINE",
"350 0 LINE",
"350 601 LINE",
"250 601 LINE",
"250 400 LINE",
"150 400 LINE",
"150 500 LINE",
"50 500 LINE",
"50 -100 LINE"
);
},
{
closed = 1;
nodes = (
"150 300 LINE",
"250 300 LINE",
"250 200 LINE",
"150 199 LINE"
);
}
);
width = 400;
},
{
layerId = "88AB7EF4-8E55-4FD8-B008-AC05EDAD63AD";
paths = (
{
closed = 1;
nodes = (
"150 0 LINE",
"150 99 LINE",
"250 100 LINE",
"250 -100 LINE",
"350 -100 LINE",
"350 600 LINE",
"250 600 LINE",
"250 400 LINE",
"150 400 LINE",
"150 500 LINE",
"50 500 LINE",
"50 0 LINE"
);
},
{
closed = 1;
nodes = (
"150 300 LINE",
"250 300 LINE",
"250 200 LINE",
"150 199 LINE"
);
}
);
width = 400;
},
{
layerId = "B0007273-59F2-4CFD-A0FF-908ED627D6A1";
paths = (
{
closed = 1;
nodes = (
"150 -100 LINE",
"150 99 LINE",
"250 100 LINE",
"250 -100 LINE",
"350 -100 LINE",
"350 501 LINE",
"250 501 LINE",
"250 400 LINE",
"150 400 LINE",
"150 500 LINE",
"50 500 LINE",
"50 -100 LINE"
);
},
{
closed = 1;
nodes = (
"150 300 LINE",
"250 300 LINE",
"250 200 LINE",
"150 199 LINE"
);
}
);
width = 400;
},
{
layerId = "27366F57-305D-4002-8F95-2432B7DC5E73";
paths = (
{
closed = 1;
nodes = (
"150 -100 LINE",
"150 99 LINE",
"250 100 LINE",
"250 0 LINE",
"350 0 LINE",
"350 600 LINE",
"250 600 LINE",
"250 400 LINE",
"150 400 LINE",
"150 600 LINE",
"50 600 LINE",
"50 -100 LINE"
);
},
{
closed = 1;
nodes = (
"150 300 LINE",
"250 300 LINE",
"250 200 LINE",
"150 199 LINE"
);
}
);
width = 400;
},
{
layerId = "2A7B0294-BC97-4636-A9D3-8FF17374F61F";
paths = (
{
closed = 1;
nodes = (
"150 0 LINE",
"150 99 LINE",
"250 100 LINE",
"250 -100 LINE",
"350 -100 LINE",
"350 600 LINE",
"250 600 LINE",
"250 400 LINE",
"150 400 LINE",
"150 600 LINE",
"50 600 LINE",
"50 0 LINE"
);
},
{
closed = 1;
nodes = (
"150 300 LINE",
"250 300 LINE",
"250 200 LINE",
"150 199 LINE"
);
}
);
width = 400;
},
{
layerId = "2B5AA849-E4E9-4E2A-878C-F5A75DAAE598";
paths = (
{
closed = 1;
nodes = (
"150 -100 LINE",
"150 99 LINE",
"250 100 LINE",
"250 -100 LINE",
"350 -100 LINE",
"350 600 LINE",
"250 600 LINE",
"250 400 LINE",
"150 400 LINE",
"150 500 LINE",
"50 500 LINE",
"50 -100 LINE"
);
},
{
closed = 1;
nodes = (
"150 300 LINE",
"250 300 LINE",
"250 200 LINE",
"150 199 LINE"
);
}
);
width = 400;
},
{
layerId = "B8F51F5F-46B4-48F2-BB1F-FCDE2D036373";
paths = (
{
closed = 1;
nodes = (
"150 -100 LINE",
"150 99 LINE",
"250 100 LINE",
"250 -100 LINE",
"350 -100 LINE",
"350 501 LINE",
"250 501 LINE",
"250 400 LINE",
"150 400 LINE",
"150 600 LINE",
"50 600 LINE",
"50 -100 LINE"
);
},
{
closed = 1;
nodes = (
"150 300 LINE",
"250 300 LINE",
"250 200 LINE",
"150 199 LINE"
);
}
);
width = 400;
},
{
layerId = "6F3F633C-62D2-446A-B7E2-3DF68A2746C0";
paths = (
{
closed = 1;
nodes = (
"150 -100 LINE",
"150 99 LINE",
"250 100 LINE",
"250 -100 LINE",
"350 -100 LINE",
"350 600 LINE",
"250 600 LINE",
"250 400 LINE",
"150 400 LINE",
"150 600 LINE",
"50 600 LINE",
"50 -100 LINE"
);
},
{
closed = 1;
nodes = (
"150 300 LINE",
"250 300 LINE",
"250 200 LINE",
"150 199 LINE"
);
}
);
width = 400;
}
);
unicode = 0126;
},
{
glyphname = I;
lastChange = "2019-06-08 15:51:38 +0000";
layers = (
{
anchors = (
{
name = bottom;
position = "{100, 0}";
},
{
name = ogonek;
position = "{100, 0}";
},
{
name = top;
position = "{100, 500}";
}
);
layerId = "4DDCB0F7-694C-40EE-9BA1-BC0E1DE62EB1";
paths = (
{
closed = 1;
nodes = (
"50 0 LINE",
"150 0 LINE",
"150 500 LINE",
"50 500 LINE"
);
}
);
width = 200;
},
{
anchors = (
{
name = bottom;
position = "{100, 0}";
},
{
name = ogonek;
position = "{100, 0}";
},
{
name = top;
position = "{100, 600}";
}
);
layerId = "1A5BB28E-E649-4EB3-8E8F-86ABB724B914";
paths = (
{
closed = 1;
nodes = (
"50 0 LINE",
"150 0 LINE",
"150 600 LINE",
"50 600 LINE"
);
}
);
width = 200;
},
{
anchors = (
{
name = bottom;
position = "{100, -100}";
},
{
name = ogonek;
position = "{100, -100}";
},
{
name = top;
position = "{100, 500}";
}
);
layerId = "066B400D-25E0-4076-ABC6-3C593E532716";
paths = (
{
closed = 1;
nodes = (
"50 -100 LINE",
"150 -100 LINE",
"150 500 LINE",
"50 500 LINE"
);
}
);
width = 200;
},
{
anchors = (
{
name = bottom;
position = "{100, -100}";
},
{
name = ogonek;
position = "{100, -100}";
},
{
name = top;
position = "{100, 600}";
}
);
layerId = "8A554741-4702-4062-BB66-90759B2989E8";
paths = (
{
closed = 1;
nodes = (
"50 -100 LINE",
"150 -100 LINE",
"150 600 LINE",
"50 600 LINE"
);
}
);
width = 200;
},
{
anchors = (
{
name = bottom;
position = "{100, 0}";
},
{
name = ogonek;
position = "{100, 0}";
},
{
name = top;
position = "{100, 600}";
}
);
layerId = "85A323BC-B6ED-4BBF-BDC0-2512995D313B";
paths = (
{
closed = 1;
nodes = (
"50 0 LINE",
"150 0 LINE",
"150 600 LINE",
"50 600 LINE"
);
}
);
width = 200;
},
{
anchors = (
{
name = bottom;
position = "{100, 0}";
},
{
name = ogonek;
position = "{100, 0}";
},
{
name = top;
position = "{100, 700}";
}
);
layerId = "58F0F7D9-EF21-4AE8-AA27-0883B656C4D9";
paths = (
{
closed = 1;
nodes = (
"50 0 LINE",
"150 0 LINE",
"150 700 LINE",
"50 700 LINE"
);
}
);
width = 200;
},
{
anchors = (
{
name = bottom;
position = "{100, 0}";
},
{
name = ogonek;
position = "{100, 0}";
},
{
name = top;
position = "{100, 800}";
}
);
layerId = "3368C2D0-32A5-4C39-8D28-9DDD3DF16F4F";
paths = (
{
closed = 1;
nodes = (
"50 0 LINE",
"150 0 LINE",
"150 800 LINE",
"50 800 LINE"
);
}
);
width = 200;
},
{
anchors = (
{
name = bottom;
position = "{100, -100}";
},
{
name = ogonek;
position = "{100, -100}";
},
{
name = top;
position = "{100, 600}";
}
);
layerId = "63CBFDDD-5FDA-43A8-A05C-FA26C6515AD1";
paths = (
{
closed = 1;
nodes = (
"50 -100 LINE",
"150 -100 LINE",
"150 600 LINE",
"50 600 LINE"
);
}
);
width = 200;
},
{
anchors = (
{
name = bottom;
position = "{100, -100}";
},
{
name = ogonek;
position = "{100, -100}";
},
{
name = top;
position = "{100, 600}";
}
);
layerId = "CF134569-8278-46EB-8532-B06C964AA883";
paths = (
{
closed = 1;
nodes = (
"50 -100 LINE",
"150 -100 LINE",
"150 600 LINE",
"50 600 LINE"
);
}
);
width = 200;
},
{
anchors = (
{
name = bottom;
position = "{100, -100}";
},
{
name = ogonek;
position = "{100, -100}";
},
{
name = top;
position = "{100, 600}";
}
);
layerId = "E8EB710A-6856-432C-AFE6-A1B9D47CAF04";
paths = (
{
closed = 1;
nodes = (
"50 -100 LINE",
"150 -100 LINE",
"150 600 LINE",
"50 600 LINE"
);
}
);
width = 200;
},
{
anchors = (
{
name = bottom;
position = "{100, -100}";
},
{
name = ogonek;
position = "{100, -100}";
},
{
name = top;
position = "{100, 600}";
}
);
layerId = "0F8CD6F6-1A2C-4C7A-A427-3AAD4A6CFB6E";
paths = (
{
closed = 1;
nodes = (
"50 -100 LINE",
"150 -100 LINE",
"150 600 LINE",
"50 600 LINE"
);
}
);
width = 200;
},
{
anchors = (
{
name = bottom;
position = "{100, 0}";
},
{
name = ogonek;
position = "{100, 0}";
},
{
name = top;
position = "{100, 900}";
}
);
layerId = "41108C99-B873-4F4A-9E88-CBCA12FB0D05";
paths = (
{
closed = 1;
nodes = (
"50 0 LINE",
"150 0 LINE",
"150 900 LINE",
"50 900 LINE"
);
}
);
width = 200;
},
{
anchors = (
{
name = bottom;
position = "{100, 0}";
},
{
name = ogonek;
position = "{100, 0}";
},
{
name = top;
position = "{100, 1000}";
}
);
layerId = "5D56F4E4-2991-4C7C-A53E-FE560A092132";
paths = (
{
closed = 1;
nodes = (
"50 0 LINE",
"150 0 LINE",
"150 1000 LINE",
"50 1000 LINE"
);
}
);
width = 200;
},
{
anchors = (
{
name = bottom;
position = "{100, 0}";
},
{
name = ogonek;
position = "{100, 0}";
},
{
name = top;
position = "{100, 1100}";
}
);
layerId = "9A1EF6BF-4314-493F-A17F-58969295D1C4";
paths = (
{
closed = 1;
nodes = (
"50 0 LINE",
"150 0 LINE",
"150 1100 LINE",
"50 1100 LINE"
);
}
);
width = 200;
},
{
anchors = (
{
name = bottom;
position = "{100, 0}";
},
{
name = ogonek;
position = "{100, 0}";
},
{
name = top;
position = "{100, 1100}";
}
);
layerId = "2B4E891D-0483-4126-8041-32DB51B0785F";
paths = (
{
closed = 1;
nodes = (
"50 0 LINE",
"150 0 LINE",
"150 1100 LINE",
"50 1100 LINE"
);
}
);
width = 200;
},
{
anchors = (
{
name = bottom;
position = "{100, 0}";
},
{
name = ogonek;
position = "{100, 0}";
},
{
name = top;
position = "{100, 1100}";
}
);
layerId = "0BC27080-89BE-4C15-A6F1-E37C70B5878F";
paths = (
{
closed = 1;
nodes = (
"50 0 LINE",
"150 0 LINE",
"150 1100 LINE",
"50 1100 LINE"
);
}
);
width = 200;
},
{
anchors = (
{
name = bottom;
position = "{100, -100}";
},
{
name = ogonek;
position = "{100, -100}";
},
{
name = top;
position = "{100, 600}";
}
);
layerId = "B23A0BE0-4E2E-4DF4-BF30-A2BC448F9F8A";
paths = (
{
closed = 1;
nodes = (
"50 -100 LINE",
"150 -100 LINE",
"150 600 LINE",
"50 600 LINE"
);
}
);
width = 200;
},
{
anchors = (
{
name = bottom;
position = "{100, -100}";
},
{
name = ogonek;
position = "{100, -100}";
},
{
name = top;
position = "{100, 600}";
}
);
layerId = "88AB7EF4-8E55-4FD8-B008-AC05EDAD63AD";
paths = (
{
closed = 1;
nodes = (
"50 -100 LINE",
"150 -100 LINE",
"150 600 LINE",
"50 600 LINE"
);
}
);
width = 200;
},
{
anchors = (
{
name = bottom;
position = "{100, -100}";
},
{
name = ogonek;
position = "{100, -100}";
},
{
name = top;
position = "{100, 600}";
}
);
layerId = "B0007273-59F2-4CFD-A0FF-908ED627D6A1";
paths = (
{
closed = 1;
nodes = (
"50 -100 LINE",
"150 -100 LINE",
"150 600 LINE",
"50 600 LINE"
);
}
);
width = 200;
},
{
anchors = (
{
name = bottom;
position = "{100, -100}";
},
{
name = ogonek;
position = "{100, -100}";
},
{
name = top;
position = "{100, 600}";
}
);
layerId = "27366F57-305D-4002-8F95-2432B7DC5E73";
paths = (
{
closed = 1;
nodes = (
"50 -100 LINE",
"150 -100 LINE",
"150 600 LINE",
"50 600 LINE"
);
}
);
width = 200;
},
{
anchors = (
{
name = bottom;
position = "{100, -100}";
},
{
name = ogonek;
position = "{100, -100}";
},
{
name = top;
position = "{100, 600}";
}
);
layerId = "2A7B0294-BC97-4636-A9D3-8FF17374F61F";
paths = (
{
closed = 1;
nodes = (
"50 -100 LINE",
"150 -100 LINE",
"150 600 LINE",
"50 600 LINE"
);
}
);
width = 200;
},
{
anchors = (
{
name = bottom;
position = "{100, -100}";
},
{
name = ogonek;
position = "{100, -100}";
},
{
name = top;
position = "{100, 600}";
}
);
layerId = "2B5AA849-E4E9-4E2A-878C-F5A75DAAE598";
paths = (
{
closed = 1;
nodes = (
"50 -100 LINE",
"150 -100 LINE",
"150 600 LINE",
"50 600 LINE"
);
}
);
width = 200;
},
{
anchors = (
{
name = bottom;
position = "{100, -100}";
},
{
name = ogonek;
position = "{100, -100}";
},
{
name = top;
position = "{100, 600}";
}
);
layerId = "B8F51F5F-46B4-48F2-BB1F-FCDE2D036373";
paths = (
{
closed = 1;
nodes = (
"50 -100 LINE",
"150 -100 LINE",
"150 600 LINE",
"50 600 LINE"
);
}
);
width = 200;
},
{
anchors = (
{
name = bottom;
position = "{100, -100}";
},
{
name = ogonek;
position = "{100, -100}";
},
{
name = top;
position = "{100, 600}";
}
);
layerId = "6F3F633C-62D2-446A-B7E2-3DF68A2746C0";
paths = (
{
closed = 1;
nodes = (
"50 -100 LINE",
"150 -100 LINE",
"150 600 LINE",
"50 600 LINE"
);
}
);
width = 200;
}
);
unicode = 0049;
},
{
glyphname = J;
lastChange = "2019-06-08 15:51:38 +0000";
layers = (
{
layerId = "4DDCB0F7-694C-40EE-9BA1-BC0E1DE62EB1";
paths = (
{
closed = 1;
nodes = (
"350 0 LINE",
"350 500 LINE",
"50 500 LINE",
"50 400 LINE",
"250 400 LINE",
"250 100 LINE",
"150 100 LINE",
"150 300 LINE",
"50 300 LINE",
"50 0 LINE"
);
}
);
width = 400;
},
{
layerId = "1A5BB28E-E649-4EB3-8E8F-86ABB724B914";
paths = (
{
closed = 1;
nodes = (
"350 0 LINE",
"350 500 LINE",
"-50 500 LINE",
"-50 400 LINE",
"250 400 LINE",
"250 100 LINE",
"150 100 LINE",
"150 300 LINE",
"50 300 LINE",
"50 0 LINE"
);
}
);
width = 400;
},
{
layerId = "066B400D-25E0-4076-ABC6-3C593E532716";
paths = (
{
closed = 1;
nodes = (
"350 0 LINE",
"350 500 LINE",
"-50 500 LINE",
"-50 400 LINE",
"250 400 LINE",
"250 100 LINE",
"150 100 LINE",
"150 300 LINE",
"50 300 LINE",
"50 0 LINE"
);
}
);
width = 400;
},
{
layerId = "8A554741-4702-4062-BB66-90759B2989E8";
paths = (
{
closed = 1;
nodes = (
"350 0 LINE",
"350 500 LINE",
"-50 500 LINE",
"-50 400 LINE",
"250 400 LINE",
"250 100 LINE",
"150 100 LINE",
"150 300 LINE",
"50 300 LINE",
"50 0 LINE"
);
}
);
width = 400;
},
{
layerId = "85A323BC-B6ED-4BBF-BDC0-2512995D313B";
paths = (
{
closed = 1;
nodes = (
"350 0 LINE",
"350 600 LINE",
"50 600 LINE",
"50 500 LINE",
"250 500 LINE",
"250 100 LINE",
"150 100 LINE",
"150 400 LINE",
"50 400 LINE",
"50 0 LINE"
);
}
);
width = 400;
},
{
layerId = "58F0F7D9-EF21-4AE8-AA27-0883B656C4D9";
paths = (
{
closed = 1;
nodes = (
"350 0 LINE",
"350 700 LINE",
"50 700 LINE",
"50 600 LINE",
"250 600 LINE",
"250 100 LINE",
"150 100 LINE",
"150 500 LINE",
"50 500 LINE",
"50 0 LINE"
);
}
);
width = 400;
},
{
layerId = "3368C2D0-32A5-4C39-8D28-9DDD3DF16F4F";
paths = (
{
closed = 1;
nodes = (
"350 0 LINE",
"350 800 LINE",
"50 800 LINE",
"50 700 LINE",
"250 700 LINE",
"250 100 LINE",
"150 100 LINE",
"150 600 LINE",
"50 600 LINE",
"50 0 LINE"
);
}
);
width = 400;
},
{
layerId = "63CBFDDD-5FDA-43A8-A05C-FA26C6515AD1";
paths = (
{
closed = 1;
nodes = (
"350 0 LINE",
"350 500 LINE",
"-50 500 LINE",
"-50 400 LINE",
"250 400 LINE",
"250 100 LINE",
"150 100 LINE",
"150 300 LINE",
"50 300 LINE",
"50 0 LINE"
);
}
);
width = 400;
},
{
layerId = "CF134569-8278-46EB-8532-B06C964AA883";
paths = (
{
closed = 1;
nodes = (
"350 0 LINE",
"350 500 LINE",
"-50 500 LINE",
"-50 400 LINE",
"250 400 LINE",
"250 100 LINE",
"150 100 LINE",
"150 300 LINE",
"50 300 LINE",
"50 0 LINE"
);
}
);
width = 400;
},
{
layerId = "E8EB710A-6856-432C-AFE6-A1B9D47CAF04";
paths = (
{
closed = 1;
nodes = (
"350 0 LINE",
"350 500 LINE",
"-50 500 LINE",
"-50 400 LINE",
"250 400 LINE",
"250 100 LINE",
"150 100 LINE",
"150 300 LINE",
"50 300 LINE",
"50 0 LINE"
);
}
);
width = 400;
},
{
layerId = "0F8CD6F6-1A2C-4C7A-A427-3AAD4A6CFB6E";
paths = (
{
closed = 1;
nodes = (
"350 0 LINE",
"350 500 LINE",
"-50 500 LINE",
"-50 400 LINE",
"250 400 LINE",
"250 100 LINE",
"150 100 LINE",
"150 300 LINE",
"50 300 LINE",
"50 0 LINE"
);
}
);
width = 400;
},
{
layerId = "41108C99-B873-4F4A-9E88-CBCA12FB0D05";
paths = (
{
closed = 1;
nodes = (
"350 0 LINE",
"350 900 LINE",
"50 900 LINE",
"50 800 LINE",
"250 800 LINE",
"250 100 LINE",
"150 100 LINE",
"150 700 LINE",
"50 700 LINE",
"50 0 LINE"
);
}
);
width = 400;
},
{
guideLines = (
{
locked = 1;
position = "{650, 1000}";
}
);
layerId = "5D56F4E4-2991-4C7C-A53E-FE560A092132";
paths = (
{
closed = 1;
nodes = (
"350 0 LINE",
"350 1000 LINE",
"50 1000 LINE",
"50 900 LINE",
"250 900 LINE",
"250 100 LINE",
"150 100 LINE",
"150 800 LINE",
"50 800 LINE",
"50 0 LINE"
);
}
);
width = 400;
},
{
layerId = "9A1EF6BF-4314-493F-A17F-58969295D1C4";
paths = (
{
closed = 1;
nodes = (
"350 0 LINE",
"350 1100 LINE",
"50 1100 LINE",
"50 1000 LINE",
"250 1000 LINE",
"250 100 LINE",
"150 100 LINE",
"150 900 LINE",
"50 900 LINE",
"50 0 LINE"
);
}
);
width = 400;
},
{
layerId = "2B4E891D-0483-4126-8041-32DB51B0785F";
paths = (
{
closed = 1;
nodes = (
"350 0 LINE",
"350 1100 LINE",
"50 1100 LINE",
"50 1000 LINE",
"250 1000 LINE",
"250 100 LINE",
"150 100 LINE",
"150 900 LINE",
"50 900 LINE",
"50 0 LINE"
);
}
);
width = 400;
},
{
layerId = "0BC27080-89BE-4C15-A6F1-E37C70B5878F";
paths = (
{
closed = 1;
nodes = (
"350 0 LINE",
"350 1100 LINE",
"50 1100 LINE",
"50 1000 LINE",
"250 1000 LINE",
"250 100 LINE",
"150 100 LINE",
"150 900 LINE",
"50 900 LINE",
"50 0 LINE"
);
}
);
width = 400;
},
{
layerId = "B23A0BE0-4E2E-4DF4-BF30-A2BC448F9F8A";
paths = (
{
closed = 1;
nodes = (
"350 0 LINE",
"350 500 LINE",
"-50 500 LINE",
"-50 400 LINE",
"250 400 LINE",
"250 100 LINE",
"150 100 LINE",
"150 300 LINE",
"50 300 LINE",
"50 0 LINE"
);
}
);
width = 400;
},
{
layerId = "88AB7EF4-8E55-4FD8-B008-AC05EDAD63AD";
paths = (
{
closed = 1;
nodes = (
"350 0 LINE",
"350 500 LINE",
"-50 500 LINE",
"-50 400 LINE",
"250 400 LINE",
"250 100 LINE",
"150 100 LINE",
"150 300 LINE",
"50 300 LINE",
"50 0 LINE"
);
}
);
width = 400;
},
{
layerId = "B0007273-59F2-4CFD-A0FF-908ED627D6A1";
paths = (
{
closed = 1;
nodes = (
"350 0 LINE",
"350 500 LINE",
"-50 500 LINE",
"-50 400 LINE",
"250 400 LINE",
"250 100 LINE",
"150 100 LINE",
"150 300 LINE",
"50 300 LINE",
"50 0 LINE"
);
}
);
width = 400;
},
{
layerId = "27366F57-305D-4002-8F95-2432B7DC5E73";
paths = (
{
closed = 1;
nodes = (
"350 0 LINE",
"350 500 LINE",
"-50 500 LINE",
"-50 400 LINE",
"250 400 LINE",
"250 100 LINE",
"150 100 LINE",
"150 300 LINE",
"50 300 LINE",
"50 0 LINE"
);
}
);
width = 400;
},
{
layerId = "2A7B0294-BC97-4636-A9D3-8FF17374F61F";
paths = (
{
closed = 1;
nodes = (
"350 0 LINE",
"350 500 LINE",
"-50 500 LINE",
"-50 400 LINE",
"250 400 LINE",
"250 100 LINE",
"150 100 LINE",
"150 300 LINE",
"50 300 LINE",
"50 0 LINE"
);
}
);
width = 400;
},
{
layerId = "2B5AA849-E4E9-4E2A-878C-F5A75DAAE598";
paths = (
{
closed = 1;
nodes = (
"350 0 LINE",
"350 500 LINE",
"-50 500 LINE",
"-50 400 LINE",
"250 400 LINE",
"250 100 LINE",
"150 100 LINE",
"150 300 LINE",
"50 300 LINE",
"50 0 LINE"
);
}
);
width = 400;
},
{
layerId = "B8F51F5F-46B4-48F2-BB1F-FCDE2D036373";
paths = (
{
closed = 1;
nodes = (
"350 0 LINE",
"350 500 LINE",
"-50 500 LINE",
"-50 400 LINE",
"250 400 LINE",
"250 100 LINE",
"150 100 LINE",
"150 300 LINE",
"50 300 LINE",
"50 0 LINE"
);
}
);
width = 400;
},
{
layerId = "6F3F633C-62D2-446A-B7E2-3DF68A2746C0";
paths = (
{
closed = 1;
nodes = (
"350 0 LINE",
"350 500 LINE",
"-50 500 LINE",
"-50 400 LINE",
"250 400 LINE",
"250 100 LINE",
"150 100 LINE",
"150 300 LINE",
"50 300 LINE",
"50 0 LINE"
);
}
);
width = 400;
}
);
unicode = 004A;
},
{
glyphname = K;
lastChange = "2019-06-12 14:10:24 +0000";
layers = (
{
anchors = (
{
name = bottom;
position = "{200, 0}";
}
);
layerId = "4DDCB0F7-694C-40EE-9BA1-BC0E1DE62EB1";
paths = (
{
closed = 1;
nodes = (
"150 0 LINE",
"150 258 LINE",
"250 158 LINE",
"250 0 LINE",
"350 0 LINE",
"350 200 LINE",
"250 300 LINE",
"350 400 LINE",
"350 500 LINE",
"250 500 LINE",
"250 442 LINE",
"179 371 LINE",
"150 400 LINE",
"150 500 LINE",
"50 500 LINE",
"50 0 LINE"
);
}
);
width = 400;
},
{
associatedMasterId = "4DDCB0F7-694C-40EE-9BA1-BC0E1DE62EB1";
layerId = "3338AC82-5B42-4E48-AE59-2B2ECE86040B";
name = "Apr 24 19, 13:18";
paths = (
{
closed = 1;
nodes = (
"50 0 LINE",
"150 0 LINE",
"150 600 LINE",
"50 600 LINE"
);
},
{
closed = 1;
nodes = (
"250 0 LINE",
"350 0 LINE",
"350 200 LINE",
"250 200 LINE"
);
},
{
closed = 1;
nodes = (
"250 400 LINE",
"350 400 LINE",
"350 600 LINE",
"250 600 LINE"
);
},
{
closed = 1;
nodes = (
"279 129 LINE",
"350 200 LINE",
"138 412 LINE",
"67 341 LINE"
);
},
{
closed = 1;
nodes = (
"205 255 LINE",
"350 400 LINE",
"279 471 LINE",
"135 327 LINE"
);
}
);
width = 400;
},
{
anchors = (
{
name = bottom;
position = "{200, 0}";
}
);
layerId = "1A5BB28E-E649-4EB3-8E8F-86ABB724B914";
paths = (
{
closed = 1;
nodes = (
"150 0 LINE",
"150 258 LINE",
"250 158 LINE",
"250 0 LINE",
"350 0 LINE",
"350 200 LINE",
"250 300 LINE",
"350 400 LINE",
"350 500 LINE",
"250 500 LINE",
"250 442 LINE",
"179 371 LINE",
"150 400 LINE",
"150 600 LINE",
"50 600 LINE",
"50 0 LINE"
);
}
);
width = 400;
},
{
anchors = (
{
name = bottom;
position = "{200, 0}";
}
);
layerId = "066B400D-25E0-4076-ABC6-3C593E532716";
paths = (
{
closed = 1;
nodes = (
"150 0 LINE",
"150 258 LINE",
"250 158 LINE",
"250 0 LINE",
"350 0 LINE",
"350 200 LINE",
"250 300 LINE",
"350 400 LINE",
"350 600 LINE",
"250 600 LINE",
"250 442 LINE",
"179 371 LINE",
"150 400 LINE",
"150 500 LINE",
"50 500 LINE",
"50 0 LINE"
);
}
);
width = 400;
},
{
anchors = (
{
name = bottom;
position = "{200, 0}";
}
);
layerId = "8A554741-4702-4062-BB66-90759B2989E8";
paths = (
{
closed = 1;
nodes = (
"150 -100 LINE",
"150 258 LINE",
"250 158 LINE",
"250 0 LINE",
"350 0 LINE",
"350 200 LINE",
"250 300 LINE",
"350 400 LINE",
"350 500 LINE",
"250 500 LINE",
"250 442 LINE",
"179 371 LINE",
"150 400 LINE",
"150 500 LINE",
"50 500 LINE",
"50 -100 LINE"
);
}
);
width = 400;
},
{
anchors = (
{
name = bottom;
position = "{200, 0}";
}
);
layerId = "85A323BC-B6ED-4BBF-BDC0-2512995D313B";
paths = (
{
closed = 1;
nodes = (
"150 0 LINE",
"150 258 LINE",
"250 158 LINE",
"250 0 LINE",
"350 0 LINE",
"350 200 LINE",
"250 300 LINE",
"350 400 LINE",
"350 600 LINE",
"250 600 LINE",
"250 442 LINE",
"179 371 LINE",
"150 400 LINE",
"150 600 LINE",
"50 600 LINE",
"50 0 LINE"
);
}
);
width = 400;
},
{
anchors = (
{
name = bottom;
position = "{200, 0}";
}
);
layerId = "58F0F7D9-EF21-4AE8-AA27-0883B656C4D9";
paths = (
{
closed = 1;
nodes = (
"150 0 LINE",
"150 358 LINE",
"250 258 LINE",
"250 0 LINE",
"350 0 LINE",
"350 300 LINE",
"250 400 LINE",
"350 500 LINE",
"350 700 LINE",
"250 700 LINE",
"250 542 LINE",
"179 471 LINE",
"150 500 LINE",
"150 700 LINE",
"50 700 LINE",
"50 0 LINE"
);
}
);
width = 400;
},
{
anchors = (
{
name = bottom;
position = "{200, 0}";
}
);
layerId = "3368C2D0-32A5-4C39-8D28-9DDD3DF16F4F";
paths = (
{
closed = 1;
nodes = (
"150 0 LINE",
"150 358 LINE",
"250 258 LINE",
"250 0 LINE",
"350 0 LINE",
"350 300 LINE",
"250 400 LINE",
"350 500 LINE",
"350 800 LINE",
"250 800 LINE",
"250 542 LINE",
"179 471 LINE",
"150 500 LINE",
"150 800 LINE",
"50 800 LINE",
"50 0 LINE"
);
}
);
width = 400;
},
{
anchors = (
{
name = bottom;
position = "{200, 0}";
}
);
layerId = "63CBFDDD-5FDA-43A8-A05C-FA26C6515AD1";
paths = (
{
closed = 1;
nodes = (
"150 0 LINE",
"150 258 LINE",
"250 158 LINE",
"250 -100 LINE",
"350 -100 LINE",
"350 200 LINE",
"250 300 LINE",
"350 400 LINE",
"350 500 LINE",
"250 500 LINE",
"250 442 LINE",
"179 371 LINE",
"150 400 LINE",
"150 500 LINE",
"50 500 LINE",
"50 0 LINE"
);
}
);
width = 400;
},
{
anchors = (
{
name = bottom;
position = "{200, 0}";
}
);
layerId = "CF134569-8278-46EB-8532-B06C964AA883";
paths = (
{
closed = 1;
nodes = (
"150 0 LINE",
"150 258 LINE",
"250 158 LINE",
"250 0 LINE",
"350 0 LINE",
"350 200 LINE",
"250 300 LINE",
"350 400 LINE",
"350 600 LINE",
"250 600 LINE",
"250 442 LINE",
"179 371 LINE",
"150 400 LINE",
"150 600 LINE",
"50 600 LINE",
"50 0 LINE"
);
}
);
width = 400;
},
{
anchors = (
{
name = bottom;
position = "{200, 0}";
}
);
layerId = "E8EB710A-6856-432C-AFE6-A1B9D47CAF04";
paths = (
{
closed = 1;
nodes = (
"150 -100 LINE",
"150 258 LINE",
"250 158 LINE",
"250 0 LINE",
"350 0 LINE",
"350 200 LINE",
"250 300 LINE",
"350 400 LINE",
"350 500 LINE",
"250 500 LINE",
"250 442 LINE",
"179 371 LINE",
"150 400 LINE",
"150 600 LINE",
"50 600 LINE",
"50 -100 LINE"
);
}
);
width = 400;
},
{
anchors = (
{
name = bottom;
position = "{200, 0}";
}
);
layerId = "0F8CD6F6-1A2C-4C7A-A427-3AAD4A6CFB6E";
paths = (
{
closed = 1;
nodes = (
"150 0 LINE",
"150 258 LINE",
"250 158 LINE",
"250 -100 LINE",
"350 -100 LINE",
"350 200 LINE",
"250 300 LINE",
"350 400 LINE",
"350 500 LINE",
"250 500 LINE",
"250 442 LINE",
"179 371 LINE",
"150 400 LINE",
"150 600 LINE",
"50 600 LINE",
"50 0 LINE"
);
}
);
width = 400;
},
{
anchors = (
{
name = bottom;
position = "{200, 0}";
}
);
layerId = "41108C99-B873-4F4A-9E88-CBCA12FB0D05";
paths = (
{
closed = 1;
nodes = (
"150 0 LINE",
"150 458 LINE",
"250 358 LINE",
"250 0 LINE",
"350 0 LINE",
"350 400 LINE",
"250 500 LINE",
"350 600 LINE",
"350 900 LINE",
"250 900 LINE",
"250 642 LINE",
"179 571 LINE",
"150 600 LINE",
"150 900 LINE",
"50 900 LINE",
"50 0 LINE"
);
}
);
width = 400;
},
{
anchors = (
{
name = bottom;
position = "{200, 0}";
}
);
layerId = "5D56F4E4-2991-4C7C-A53E-FE560A092132";
paths = (
{
closed = 1;
nodes = (
"150 0 LINE",
"150 458 LINE",
"250 358 LINE",
"250 0 LINE",
"350 0 LINE",
"350 400 LINE",
"250 500 LINE",
"350 600 LINE",
"350 1000 LINE",
"250 1000 LINE",
"250 642 LINE",
"179 571 LINE",
"150 600 LINE",
"150 1000 LINE",
"50 1000 LINE",
"50 0 LINE"
);
}
);
width = 400;
},
{
anchors = (
{
name = bottom;
position = "{200, 0}";
}
);
layerId = "9A1EF6BF-4314-493F-A17F-58969295D1C4";
paths = (
{
closed = 1;
nodes = (
"150 0 LINE",
"150 458 LINE",
"250 358 LINE",
"250 0 LINE",
"350 0 LINE",
"350 400 LINE",
"250 500 LINE",
"350 600 LINE",
"350 1100 LINE",
"250 1100 LINE",
"250 642 LINE",
"179 571 LINE",
"150 600 LINE",
"150 1100 LINE",
"50 1100 LINE",
"50 0 LINE"
);
}
);
width = 400;
},
{
anchors = (
{
name = bottom;
position = "{200, 0}";
}
);
layerId = "2B4E891D-0483-4126-8041-32DB51B0785F";
paths = (
{
closed = 1;
nodes = (
"150 0 LINE",
"150 458 LINE",
"250 358 LINE",
"250 0 LINE",
"350 0 LINE",
"350 400 LINE",
"250 500 LINE",
"350 600 LINE",
"350 1100 LINE",
"250 1100 LINE",
"250 642 LINE",
"179 571 LINE",
"150 600 LINE",
"150 1100 LINE",
"50 1100 LINE",
"50 0 LINE"
);
}
);
width = 400;
},
{
anchors = (
{
name = bottom;
position = "{200, 0}";
}
);
layerId = "0BC27080-89BE-4C15-A6F1-E37C70B5878F";
paths = (
{
closed = 1;
nodes = (
"150 0 LINE",
"150 458 LINE",
"250 358 LINE",
"250 0 LINE",
"350 0 LINE",
"350 400 LINE",
"250 500 LINE",
"350 600 LINE",
"350 1100 LINE",
"250 1100 LINE",
"250 642 LINE",
"179 571 LINE",
"150 600 LINE",
"150 1100 LINE",
"50 1100 LINE",
"50 0 LINE"
);
}
);
width = 400;
},
{
anchors = (
{
name = bottom;
position = "{200, 0}";
}
);
layerId = "B23A0BE0-4E2E-4DF4-BF30-A2BC448F9F8A";
paths = (
{
closed = 1;
nodes = (
"150 -100 LINE",
"150 258 LINE",
"250 158 LINE",
"250 0 LINE",
"350 0 LINE",
"350 200 LINE",
"250 300 LINE",
"350 400 LINE",
"350 600 LINE",
"250 600 LINE",
"250 442 LINE",
"179 371 LINE",
"150 400 LINE",
"150 500 LINE",
"50 500 LINE",
"50 -100 LINE"
);
}
);
width = 400;
},
{
anchors = (
{
name = bottom;
position = "{200, 0}";
}
);
layerId = "88AB7EF4-8E55-4FD8-B008-AC05EDAD63AD";
paths = (
{
closed = 1;
nodes = (
"150 0 LINE",
"150 258 LINE",
"250 158 LINE",
"250 -100 LINE",
"350 -100 LINE",
"350 200 LINE",
"250 300 LINE",
"350 400 LINE",
"350 600 LINE",
"250 600 LINE",
"250 442 LINE",
"179 371 LINE",
"150 400 LINE",
"150 500 LINE",
"50 500 LINE",
"50 0 LINE"
);
}
);
width = 400;
},
{
anchors = (
{
name = bottom;
position = "{200, -100}";
}
);
layerId = "B0007273-59F2-4CFD-A0FF-908ED627D6A1";
paths = (
{
closed = 1;
nodes = (
"150 -100 LINE",
"150 258 LINE",
"250 158 LINE",
"250 -100 LINE",
"350 -100 LINE",
"350 200 LINE",
"250 300 LINE",
"350 400 LINE",
"350 500 LINE",
"250 500 LINE",
"250 442 LINE",
"179 371 LINE",
"150 400 LINE",
"150 500 LINE",
"50 500 LINE",
"50 -100 LINE"
);
}
);
width = 400;
},
{
anchors = (
{
name = bottom;
position = "{200, 0}";
}
);
layerId = "27366F57-305D-4002-8F95-2432B7DC5E73";
paths = (
{
closed = 1;
nodes = (
"150 -100 LINE",
"150 258 LINE",
"250 158 LINE",
"250 0 LINE",
"350 0 LINE",
"350 200 LINE",
"250 300 LINE",
"350 400 LINE",
"350 600 LINE",
"250 600 LINE",
"250 442 LINE",
"179 371 LINE",
"150 400 LINE",
"150 600 LINE",
"50 600 LINE",
"50 -100 LINE"
);
}
);
width = 400;
},
{
anchors = (
{
name = bottom;
position = "{200, 0}";
}
);
layerId = "2A7B0294-BC97-4636-A9D3-8FF17374F61F";
paths = (
{
closed = 1;
nodes = (
"150 0 LINE",
"150 258 LINE",
"250 158 LINE",
"250 -100 LINE",
"350 -100 LINE",
"350 200 LINE",
"250 300 LINE",
"350 400 LINE",
"350 600 LINE",
"250 600 LINE",
"250 442 LINE",
"179 371 LINE",
"150 400 LINE",
"150 600 LINE",
"50 600 LINE",
"50 0 LINE"
);
}
);
width = 400;
},
{
anchors = (
{
name = bottom;
position = "{200, -100}";
}
);
layerId = "2B5AA849-E4E9-4E2A-878C-F5A75DAAE598";
paths = (
{
closed = 1;
nodes = (
"151 -100 LINE",
"150 258 LINE",
"250 158 LINE",
"250 -100 LINE",
"350 -100 LINE",
"350 200 LINE",
"250 300 LINE",
"350 400 LINE",
"350 600 LINE",
"250 600 LINE",
"250 442 LINE",
"179 371 LINE",
"150 400 LINE",
"150 500 LINE",
"50 500 LINE",
"51 -100 LINE"
);
}
);
width = 400;
},
{
anchors = (
{
name = bottom;
position = "{200, -100}";
}
);
layerId = "B8F51F5F-46B4-48F2-BB1F-FCDE2D036373";
paths = (
{
closed = 1;
nodes = (
"150 -100 LINE",
"150 258 LINE",
"250 158 LINE",
"250 -100 LINE",
"350 -100 LINE",
"350 200 LINE",
"250 300 LINE",
"350 400 LINE",
"350 500 LINE",
"250 500 LINE",
"250 442 LINE",
"179 371 LINE",
"150 400 LINE",
"150 600 LINE",
"50 600 LINE",
"50 -100 LINE"
);
}
);
width = 400;
},
{
anchors = (
{
name = bottom;
position = "{200, -100}";
}
);
layerId = "6F3F633C-62D2-446A-B7E2-3DF68A2746C0";
paths = (
{
closed = 1;
nodes = (
"150 -100 LINE",
"150 258 LINE",
"250 158 LINE",
"250 -100 LINE",
"350 -100 LINE",
"350 200 LINE",
"250 300 LINE",
"350 400 LINE",
"350 600 LINE",
"250 600 LINE",
"250 442 LINE",
"179 371 LINE",
"150 400 LINE",
"150 600 LINE",
"50 600 LINE",
"50 -100 LINE"
);
}
);
width = 400;
}
);
unicode = 004B;
},
{
glyphname = L;
lastChange = "2019-06-08 15:51:38 +0000";
layers = (
{
anchors = (
{
name = bottom;
position = "{100, 0}";
},
{
name = middle;
position = "{100, 250}";
},
{
name = top;
position = "{100, 500}";
}
);
layerId = "4DDCB0F7-694C-40EE-9BA1-BC0E1DE62EB1";
paths = (
{
closed = 1;
nodes = (
"350 0 LINE",
"350 100 LINE",
"150 100 LINE",
"150 500 LINE",
"50 500 LINE",
"50 0 LINE"
);
}
);
width = 400;
},
{
anchors = (
{
name = bottom;
position = "{100, 0}";
},
{
name = middle;
position = "{100, 250}";
},
{
name = top;
position = "{100, 600}";
}
);
layerId = "1A5BB28E-E649-4EB3-8E8F-86ABB724B914";
paths = (
{
closed = 1;
nodes = (
"350 0 LINE",
"350 100 LINE",
"150 100 LINE",
"150 600 LINE",
"50 600 LINE",
"50 0 LINE"
);
}
);
width = 400;
},
{
anchors = (
{
name = bottom;
position = "{100, 0}";
},
{
name = middle;
position = "{100, 250}";
},
{
name = top;
position = "{100, 500}";
}
);
layerId = "066B400D-25E0-4076-ABC6-3C593E532716";
paths = (
{
closed = 1;
nodes = (
"450 0 LINE",
"450 100 LINE",
"150 100 LINE",
"150 500 LINE",
"50 500 LINE",
"50 0 LINE"
);
}
);
width = 400;
},
{
anchors = (
{
name = bottom;
position = "{100, 0}";
},
{
name = middle;
position = "{100, 250}";
},
{
name = top;
position = "{100, 600}";
}
);
layerId = "8A554741-4702-4062-BB66-90759B2989E8";
paths = (
{
closed = 1;
nodes = (
"450 0 LINE",
"450 100 LINE",
"150 100 LINE",
"150 600 LINE",
"50 600 LINE",
"50 0 LINE"
);
}
);
width = 400;
},
{
anchors = (
{
name = bottom;
position = "{100, 0}";
},
{
name = middle;
position = "{100, 300}";
},
{
name = top;
position = "{100, 600}";
}
);
layerId = "85A323BC-B6ED-4BBF-BDC0-2512995D313B";
paths = (
{
closed = 1;
nodes = (
"350 0 LINE",
"350 100 LINE",
"150 100 LINE",
"150 600 LINE",
"50 600 LINE",
"50 0 LINE"
);
}
);
width = 400;
},
{
anchors = (
{
name = bottom;
position = "{100, 0}";
},
{
name = middle;
position = "{100, 350}";
},
{
name = top;
position = "{100, 700}";
}
);
layerId = "58F0F7D9-EF21-4AE8-AA27-0883B656C4D9";
paths = (
{
closed = 1;
nodes = (
"350 0 LINE",
"350 100 LINE",
"150 100 LINE",
"150 700 LINE",
"50 700 LINE",
"50 0 LINE"
);
}
);
width = 400;
},
{
anchors = (
{
name = bottom;
position = "{100, 0}";
},
{
name = middle;
position = "{100, 400}";
},
{
name = top;
position = "{100, 800}";
}
);
layerId = "3368C2D0-32A5-4C39-8D28-9DDD3DF16F4F";
paths = (
{
closed = 1;
nodes = (
"350 0 LINE",
"350 100 LINE",
"150 100 LINE",
"150 800 LINE",
"50 800 LINE",
"50 0 LINE"
);
}
);
width = 400;
},
{
anchors = (
{
name = bottom;
position = "{100, 0}";
},
{
name = middle;
position = "{100, 250}";
},
{
name = top;
position = "{100, 600}";
}
);
layerId = "63CBFDDD-5FDA-43A8-A05C-FA26C6515AD1";
paths = (
{
closed = 1;
nodes = (
"450 0 LINE",
"450 100 LINE",
"150 100 LINE",
"150 600 LINE",
"50 600 LINE",
"50 0 LINE"
);
}
);
width = 400;
},
{
anchors = (
{
name = bottom;
position = "{100, 0}";
},
{
name = middle;
position = "{100, 250}";
},
{
name = top;
position = "{100, 600}";
}
);
layerId = "CF134569-8278-46EB-8532-B06C964AA883";
paths = (
{
closed = 1;
nodes = (
"450 0 LINE",
"450 100 LINE",
"150 100 LINE",
"150 600 LINE",
"50 600 LINE",
"50 0 LINE"
);
}
);
width = 400;
},
{
anchors = (
{
name = bottom;
position = "{100, 0}";
},
{
name = middle;
position = "{100, 250}";
},
{
name = top;
position = "{100, 600}";
}
);
layerId = "E8EB710A-6856-432C-AFE6-A1B9D47CAF04";
paths = (
{
closed = 1;
nodes = (
"450 0 LINE",
"450 100 LINE",
"150 100 LINE",
"150 600 LINE",
"50 600 LINE",
"50 0 LINE"
);
}
);
width = 400;
},
{
anchors = (
{
name = bottom;
position = "{100, 0}";
},
{
name = middle;
position = "{100, 250}";
},
{
name = top;
position = "{100, 600}";
}
);
layerId = "0F8CD6F6-1A2C-4C7A-A427-3AAD4A6CFB6E";
paths = (
{
closed = 1;
nodes = (
"450 0 LINE",
"450 100 LINE",
"150 100 LINE",
"150 600 LINE",
"50 600 LINE",
"50 0 LINE"
);
}
);
width = 400;
},
{
anchors = (
{
name = bottom;
position = "{100, 0}";
},
{
name = middle;
position = "{100, 450}";
},
{
name = top;
position = "{100, 900}";
}
);
layerId = "41108C99-B873-4F4A-9E88-CBCA12FB0D05";
paths = (
{
closed = 1;
nodes = (
"350 0 LINE",
"350 100 LINE",
"150 100 LINE",
"150 900 LINE",
"50 900 LINE",
"50 0 LINE"
);
}
);
width = 400;
},
{
anchors = (
{
name = bottom;
position = "{100, 0}";
},
{
name = middle;
position = "{100, 500}";
},
{
name = top;
position = "{100, 1000}";
}
);
layerId = "5D56F4E4-2991-4C7C-A53E-FE560A092132";
paths = (
{
closed = 1;
nodes = (
"350 0 LINE",
"350 100 LINE",
"150 100 LINE",
"150 1000 LINE",
"50 1000 LINE",
"50 0 LINE"
);
}
);
width = 400;
},
{
anchors = (
{
name = bottom;
position = "{100, 0}";
},
{
name = middle;
position = "{100, 550}";
},
{
name = top;
position = "{100, 1100}";
}
);
layerId = "9A1EF6BF-4314-493F-A17F-58969295D1C4";
paths = (
{
closed = 1;
nodes = (
"350 0 LINE",
"350 100 LINE",
"150 100 LINE",
"150 1100 LINE",
"50 1100 LINE",
"50 0 LINE"
);
}
);
width = 400;
},
{
anchors = (
{
name = bottom;
position = "{100, 0}";
},
{
name = middle;
position = "{100, 550}";
},
{
name = top;
position = "{100, 1100}";
}
);
layerId = "2B4E891D-0483-4126-8041-32DB51B0785F";
paths = (
{
closed = 1;
nodes = (
"350 0 LINE",
"350 100 LINE",
"150 100 LINE",
"150 1100 LINE",
"50 1100 LINE",
"50 0 LINE"
);
}
);
width = 400;
},
{
anchors = (
{
name = bottom;
position = "{100, 0}";
},
{
name = middle;
position = "{100, 550}";
},
{
name = top;
position = "{100, 1100}";
}
);
layerId = "0BC27080-89BE-4C15-A6F1-E37C70B5878F";
paths = (
{
closed = 1;
nodes = (
"350 0 LINE",
"350 100 LINE",
"150 100 LINE",
"150 1100 LINE",
"50 1100 LINE",
"50 0 LINE"
);
}
);
width = 400;
},
{
anchors = (
{
name = bottom;
position = "{100, 0}";
},
{
name = middle;
position = "{100, 250}";
},
{
name = top;
position = "{100, 600}";
}
);
layerId = "B23A0BE0-4E2E-4DF4-BF30-A2BC448F9F8A";
paths = (
{
closed = 1;
nodes = (
"450 0 LINE",
"450 100 LINE",
"150 100 LINE",
"150 600 LINE",
"50 600 LINE",
"50 0 LINE"
);
}
);
width = 400;
},
{
anchors = (
{
name = bottom;
position = "{100, 0}";
},
{
name = middle;
position = "{100, 250}";
},
{
name = top;
position = "{100, 600}";
}
);
layerId = "88AB7EF4-8E55-4FD8-B008-AC05EDAD63AD";
paths = (
{
closed = 1;
nodes = (
"450 0 LINE",
"450 100 LINE",
"150 100 LINE",
"150 600 LINE",
"50 600 LINE",
"50 0 LINE"
);
}
);
width = 400;
},
{
anchors = (
{
name = bottom;
position = "{100, 0}";
},
{
name = middle;
position = "{100, 250}";
},
{
name = top;
position = "{100, 600}";
}
);
layerId = "B0007273-59F2-4CFD-A0FF-908ED627D6A1";
paths = (
{
closed = 1;
nodes = (
"450 0 LINE",
"450 100 LINE",
"150 100 LINE",
"150 600 LINE",
"50 600 LINE",
"50 0 LINE"
);
}
);
width = 400;
},
{
anchors = (
{
name = bottom;
position = "{100, 0}";
},
{
name = middle;
position = "{100, 250}";
},
{
name = top;
position = "{100, 600}";
}
);
layerId = "27366F57-305D-4002-8F95-2432B7DC5E73";
paths = (
{
closed = 1;
nodes = (
"450 0 LINE",
"450 100 LINE",
"150 100 LINE",
"150 600 LINE",
"50 600 LINE",
"50 0 LINE"
);
}
);
width = 400;
},
{
anchors = (
{
name = bottom;
position = "{100, 0}";
},
{
name = middle;
position = "{100, 250}";
},
{
name = top;
position = "{100, 600}";
}
);
layerId = "2A7B0294-BC97-4636-A9D3-8FF17374F61F";
paths = (
{
closed = 1;
nodes = (
"450 0 LINE",
"450 100 LINE",
"150 100 LINE",
"150 600 LINE",
"50 600 LINE",
"50 0 LINE"
);
}
);
width = 400;
},
{
anchors = (
{
name = bottom;
position = "{100, 0}";
},
{
name = middle;
position = "{100, 250}";
},
{
name = top;
position = "{100, 600}";
}
);
layerId = "2B5AA849-E4E9-4E2A-878C-F5A75DAAE598";
paths = (
{
closed = 1;
nodes = (
"450 0 LINE",
"450 100 LINE",
"150 100 LINE",
"150 600 LINE",
"50 600 LINE",
"50 0 LINE"
);
}
);
width = 400;
},
{
anchors = (
{
name = bottom;
position = "{100, 0}";
},
{
name = middle;
position = "{100, 250}";
},
{
name = top;
position = "{100, 600}";
}
);
layerId = "B8F51F5F-46B4-48F2-BB1F-FCDE2D036373";
paths = (
{
closed = 1;
nodes = (
"450 0 LINE",
"450 100 LINE",
"150 100 LINE",
"150 600 LINE",
"50 600 LINE",
"50 0 LINE"
);
}
);
width = 400;
},
{
anchors = (
{
name = bottom;
position = "{100, 0}";
},
{
name = middle;
position = "{100, 250}";
},
{
name = top;
position = "{100, 600}";
}
);
layerId = "6F3F633C-62D2-446A-B7E2-3DF68A2746C0";
paths = (
{
closed = 1;
nodes = (
"450 0 LINE",
"450 100 LINE",
"150 100 LINE",
"150 600 LINE",
"50 600 LINE",
"50 0 LINE"
);
}
);
width = 400;
}
);
unicode = 004C;
},
{
glyphname = M;
lastChange = "2019-06-08 15:51:38 +0000";
layers = (
{
layerId = "4DDCB0F7-694C-40EE-9BA1-BC0E1DE62EB1";
paths = (
{
closed = 1;
nodes = (
"150 0 LINE",
"150 400 LINE",
"250 400 LINE",
"250 100 LINE",
"350 100 LINE",
"350 400 LINE",
"450 400 LINE",
"450 0 LINE",
"550 0 LINE",
"550 500 LINE",
"50 500 LINE",
"50 0 LINE"
);
}
);
width = 600;
},
{
associatedMasterId = "4DDCB0F7-694C-40EE-9BA1-BC0E1DE62EB1";
layerId = "B6FE6F3F-B458-4121-A4FC-10B7155CCBF9";
name = "Apr 24 19, 13:20";
paths = (
{
closed = 1;
nodes = (
"50 0 LINE",
"150 0 LINE",
"150 600 LINE",
"50 600 LINE"
);
},
{
closed = 1;
nodes = (
"450 0 LINE",
"550 0 LINE",
"550 600 LINE",
"450 600 LINE"
);
},
{
closed = 1;
nodes = (
"75 511 LINE",
"250 100 LINE",
"342 139 LINE",
"150 600 LINE"
);
},
{
closed = 1;
nodes = (
"258 139 LINE",
"350 100 LINE",
"525 511 LINE",
"450 600 LINE"
);
},
{
closed = 1;
nodes = (
"250 100 LINE",
"350 100 LINE",
"350 200 LINE",
"250 200 LINE"
);
}
);
width = 800;
},
{
associatedMasterId = "4DDCB0F7-694C-40EE-9BA1-BC0E1DE62EB1";
layerId = "ACE43871-AABE-4073-A8AA-6DD5D0BDF367";
name = "May 4 19, 14:52";
paths = (
{
closed = 1;
nodes = (
"50 0 LINE",
"150 0 LINE",
"150 500 LINE",
"50 500 LINE"
);
},
{
closed = 1;
nodes = (
"50 400 LINE",
"550 400 LINE",
"550 500 LINE",
"50 500 LINE"
);
},
{
closed = 1;
nodes = (
"450 0 LINE",
"550 0 LINE",
"550 500 LINE",
"450 500 LINE"
);
},
{
closed = 1;
nodes = (
"250 100 LINE",
"350 100 LINE",
"350 500 LINE",
"250 500 LINE"
);
}
);
width = 600;
},
{
layerId = "1A5BB28E-E649-4EB3-8E8F-86ABB724B914";
paths = (
{
closed = 1;
nodes = (
"150 -100 LINE",
"150 400 LINE",
"250 400 LINE",
"250 100 LINE",
"350 100 LINE",
"350 400 LINE",
"450 400 LINE",
"450 0 LINE",
"550 0 LINE",
"550 500 LINE",
"50 500 LINE",
"50 -100 LINE"
);
}
);
width = 600;
},
{
layerId = "066B400D-25E0-4076-ABC6-3C593E532716";
paths = (
{
closed = 1;
nodes = (
"150 0 LINE",
"150 400 LINE",
"250 400 LINE",
"250 0 LINE",
"350 0 LINE",
"350 400 LINE",
"450 400 LINE",
"450 0 LINE",
"550 0 LINE",
"550 500 LINE",
"50 500 LINE",
"50 0 LINE"
);
}
);
width = 600;
},
{
layerId = "8A554741-4702-4062-BB66-90759B2989E8";
paths = (
{
closed = 1;
nodes = (
"150 0 LINE",
"150 400 LINE",
"250 400 LINE",
"250 100 LINE",
"350 100 LINE",
"350 400 LINE",
"450 400 LINE",
"450 -100 LINE",
"550 -100 LINE",
"550 500 LINE",
"50 500 LINE",
"50 0 LINE"
);
}
);
width = 600;
},
{
layerId = "85A323BC-B6ED-4BBF-BDC0-2512995D313B";
paths = (
{
closed = 1;
nodes = (
"150 0 LINE",
"150 500 LINE",
"250 500 LINE",
"250 100 LINE",
"350 100 LINE",
"350 500 LINE",
"450 500 LINE",
"450 0 LINE",
"550 0 LINE",
"550 600 LINE",
"50 600 LINE",
"50 0 LINE"
);
}
);
width = 600;
},
{
layerId = "58F0F7D9-EF21-4AE8-AA27-0883B656C4D9";
paths = (
{
closed = 1;
nodes = (
"150 0 LINE",
"150 600 LINE",
"250 600 LINE",
"250 100 LINE",
"350 100 LINE",
"350 600 LINE",
"450 600 LINE",
"450 0 LINE",
"550 0 LINE",
"550 700 LINE",
"50 700 LINE",
"50 0 LINE"
);
}
);
width = 600;
},
{
layerId = "3368C2D0-32A5-4C39-8D28-9DDD3DF16F4F";
paths = (
{
closed = 1;
nodes = (
"150 0 LINE",
"150 700 LINE",
"250 700 LINE",
"250 100 LINE",
"350 100 LINE",
"350 700 LINE",
"450 700 LINE",
"450 0 LINE",
"550 0 LINE",
"550 800 LINE",
"50 800 LINE",
"50 0 LINE"
);
}
);
width = 600;
},
{
layerId = "63CBFDDD-5FDA-43A8-A05C-FA26C6515AD1";
paths = (
{
closed = 1;
nodes = (
"150 -100 LINE",
"150 400 LINE",
"250 400 LINE",
"250 0 LINE",
"350 0 LINE",
"350 400 LINE",
"450 400 LINE",
"450 0 LINE",
"550 0 LINE",
"550 500 LINE",
"50 500 LINE",
"50 -100 LINE"
);
}
);
width = 600;
},
{
layerId = "CF134569-8278-46EB-8532-B06C964AA883";
paths = (
{
closed = 1;
nodes = (
"150 -100 LINE",
"150 400 LINE",
"250 400 LINE",
"250 100 LINE",
"350 100 LINE",
"350 400 LINE",
"450 400 LINE",
"450 -100 LINE",
"550 -100 LINE",
"550 500 LINE",
"50 500 LINE",
"50 -100 LINE"
);
}
);
width = 600;
},
{
layerId = "E8EB710A-6856-432C-AFE6-A1B9D47CAF04";
paths = (
{
closed = 1;
nodes = (
"150 0 LINE",
"150 400 LINE",
"250 400 LINE",
"250 0 LINE",
"350 0 LINE",
"350 400 LINE",
"450 400 LINE",
"450 -100 LINE",
"550 -100 LINE",
"550 500 LINE",
"50 500 LINE",
"50 0 LINE"
);
}
);
width = 600;
},
{
layerId = "0F8CD6F6-1A2C-4C7A-A427-3AAD4A6CFB6E";
paths = (
{
closed = 1;
nodes = (
"150 -100 LINE",
"150 400 LINE",
"250 400 LINE",
"250 0 LINE",
"350 0 LINE",
"350 400 LINE",
"450 400 LINE",
"450 -100 LINE",
"550 -100 LINE",
"550 500 LINE",
"50 500 LINE",
"50 -100 LINE"
);
}
);
width = 600;
},
{
layerId = "41108C99-B873-4F4A-9E88-CBCA12FB0D05";
paths = (
{
closed = 1;
nodes = (
"150 0 LINE",
"150 800 LINE",
"250 800 LINE",
"250 100 LINE",
"350 100 LINE",
"350 800 LINE",
"450 800 LINE",
"450 0 LINE",
"550 0 LINE",
"550 900 LINE",
"50 900 LINE",
"50 0 LINE"
);
}
);
width = 600;
},
{
layerId = "5D56F4E4-2991-4C7C-A53E-FE560A092132";
paths = (
{
closed = 1;
nodes = (
"150 0 LINE",
"150 900 LINE",
"250 900 LINE",
"250 100 LINE",
"350 100 LINE",
"350 900 LINE",
"450 900 LINE",
"450 0 LINE",
"550 0 LINE",
"550 1000 LINE",
"50 1000 LINE",
"50 0 LINE"
);
}
);
width = 600;
},
{
layerId = "9A1EF6BF-4314-493F-A17F-58969295D1C4";
paths = (
{
closed = 1;
nodes = (
"150 0 LINE",
"150 1000 LINE",
"250 1000 LINE",
"250 100 LINE",
"350 100 LINE",
"350 1000 LINE",
"450 1000 LINE",
"450 0 LINE",
"550 0 LINE",
"550 1100 LINE",
"50 1100 LINE",
"50 0 LINE"
);
}
);
width = 600;
},
{
layerId = "2B4E891D-0483-4126-8041-32DB51B0785F";
paths = (
{
closed = 1;
nodes = (
"150 0 LINE",
"150 1000 LINE",
"250 1000 LINE",
"250 100 LINE",
"350 100 LINE",
"350 1000 LINE",
"450 1000 LINE",
"450 0 LINE",
"550 0 LINE",
"550 1100 LINE",
"50 1100 LINE",
"50 0 LINE"
);
}
);
width = 600;
},
{
layerId = "0BC27080-89BE-4C15-A6F1-E37C70B5878F";
paths = (
{
closed = 1;
nodes = (
"150 0 LINE",
"150 1000 LINE",
"250 1000 LINE",
"250 100 LINE",
"350 100 LINE",
"350 1000 LINE",
"450 1000 LINE",
"450 0 LINE",
"550 0 LINE",
"550 1100 LINE",
"50 1100 LINE",
"50 0 LINE"
);
}
);
width = 600;
},
{
layerId = "B23A0BE0-4E2E-4DF4-BF30-A2BC448F9F8A";
paths = (
{
closed = 1;
nodes = (
"150 -100 LINE",
"150 400 LINE",
"250 400 LINE",
"250 0 LINE",
"350 0 LINE",
"350 400 LINE",
"450 400 LINE",
"450 -100 LINE",
"550 -100 LINE",
"550 500 LINE",
"50 500 LINE",
"50 -100 LINE"
);
}
);
width = 600;
},
{
layerId = "88AB7EF4-8E55-4FD8-B008-AC05EDAD63AD";
paths = (
{
closed = 1;
nodes = (
"150 -100 LINE",
"150 400 LINE",
"250 400 LINE",
"250 0 LINE",
"350 0 LINE",
"350 400 LINE",
"450 400 LINE",
"450 -100 LINE",
"550 -100 LINE",
"550 500 LINE",
"50 500 LINE",
"50 -100 LINE"
);
}
);
width = 600;
},
{
layerId = "B0007273-59F2-4CFD-A0FF-908ED627D6A1";
paths = (
{
closed = 1;
nodes = (
"150 -100 LINE",
"150 400 LINE",
"250 400 LINE",
"250 0 LINE",
"350 0 LINE",
"350 400 LINE",
"450 400 LINE",
"450 -100 LINE",
"550 -100 LINE",
"550 500 LINE",
"50 500 LINE",
"50 -100 LINE"
);
}
);
width = 600;
},
{
layerId = "27366F57-305D-4002-8F95-2432B7DC5E73";
paths = (
{
closed = 1;
nodes = (
"150 -100 LINE",
"150 400 LINE",
"250 400 LINE",
"250 0 LINE",
"350 0 LINE",
"350 400 LINE",
"450 400 LINE",
"450 -100 LINE",
"550 -100 LINE",
"550 500 LINE",
"50 500 LINE",
"50 -100 LINE"
);
}
);
width = 600;
},
{
layerId = "2A7B0294-BC97-4636-A9D3-8FF17374F61F";
paths = (
{
closed = 1;
nodes = (
"150 -100 LINE",
"150 400 LINE",
"250 400 LINE",
"250 0 LINE",
"350 0 LINE",
"350 400 LINE",
"450 400 LINE",
"450 -100 LINE",
"550 -100 LINE",
"550 500 LINE",
"50 500 LINE",
"50 -100 LINE"
);
}
);
width = 600;
},
{
layerId = "2B5AA849-E4E9-4E2A-878C-F5A75DAAE598";
paths = (
{
closed = 1;
nodes = (
"150 -100 LINE",
"150 400 LINE",
"250 400 LINE",
"250 0 LINE",
"350 0 LINE",
"350 400 LINE",
"450 400 LINE",
"450 -100 LINE",
"550 -100 LINE",
"550 500 LINE",
"50 500 LINE",
"50 -100 LINE"
);
}
);
width = 600;
},
{
layerId = "B8F51F5F-46B4-48F2-BB1F-FCDE2D036373";
paths = (
{
closed = 1;
nodes = (
"150 -100 LINE",
"150 400 LINE",
"250 400 LINE",
"250 0 LINE",
"350 0 LINE",
"350 400 LINE",
"450 400 LINE",
"450 -100 LINE",
"550 -100 LINE",
"550 500 LINE",
"50 500 LINE",
"50 -100 LINE"
);
}
);
width = 600;
},
{
layerId = "6F3F633C-62D2-446A-B7E2-3DF68A2746C0";
paths = (
{
closed = 1;
nodes = (
"150 -100 LINE",
"150 400 LINE",
"250 400 LINE",
"250 0 LINE",
"350 0 LINE",
"350 400 LINE",
"450 400 LINE",
"450 -100 LINE",
"550 -100 LINE",
"550 500 LINE",
"50 500 LINE",
"50 -100 LINE"
);
}
);
width = 600;
}
);
unicode = 004D;
},
{
glyphname = N;
lastChange = "2019-06-08 15:51:38 +0000";
layers = (
{
anchors = (
{
name = top;
position = "{200, 500}";
}
);
layerId = "4DDCB0F7-694C-40EE-9BA1-BC0E1DE62EB1";
paths = (
{
closed = 1;
nodes = (
"150 0 LINE",
"150 244 LINE",
"250 0 LINE",
"350 0 LINE",
"350 500 LINE",
"250 500 LINE",
"250 258 LINE",
"150 500 LINE",
"50 500 LINE",
"50 0 LINE"
);
}
);
width = 400;
},
{
associatedMasterId = "4DDCB0F7-694C-40EE-9BA1-BC0E1DE62EB1";
layerId = "853FA6F6-D09B-46DE-8665-4C4EEF45DC8C";
name = "Apr 24 19, 13:22";
paths = (
{
closed = 1;
nodes = (
"50 0 LINE",
"150 0 LINE",
"150 600 LINE",
"50 600 LINE"
);
},
{
closed = 1;
nodes = (
"250 0 LINE",
"350 0 LINE",
"350 600 LINE",
"250 600 LINE"
);
},
{
closed = 1;
nodes = (
"74 515 LINE",
"250 0 LINE",
"345 33 LINE",
"150 600 LINE"
);
}
);
width = 300;
},
{
anchors = (
{
name = top;
position = "{200, 500}";
}
);
layerId = "1A5BB28E-E649-4EB3-8E8F-86ABB724B914";
paths = (
{
closed = 1;
nodes = (
"150 0 LINE",
"150 244 LINE",
"250 0 LINE",
"350 0 LINE",
"350 600 LINE",
"250 600 LINE",
"250 258 LINE",
"150 500 LINE",
"50 500 LINE",
"50 0 LINE"
);
}
);
width = 400;
},
{
anchors = (
{
name = top;
position = "{200, 500}";
}
);
layerId = "066B400D-25E0-4076-ABC6-3C593E532716";
paths = (
{
closed = 1;
nodes = (
"150 -100 LINE",
"150 244 LINE",
"250 0 LINE",
"350 0 LINE",
"350 500 LINE",
"250 500 LINE",
"250 258 LINE",
"150 500 LINE",
"50 500 LINE",
"50 -100 LINE"
);
}
);
width = 400;
},
{
anchors = (
{
name = top;
position = "{200, 500}";
}
);
layerId = "8A554741-4702-4062-BB66-90759B2989E8";
paths = (
{
closed = 1;
nodes = (
"150 -100 LINE",
"150 244 LINE",
"250 0 LINE",
"350 0 LINE",
"350 600 LINE",
"250 600 LINE",
"250 258 LINE",
"150 500 LINE",
"50 500 LINE",
"50 -100 LINE"
);
}
);
width = 400;
},
{
anchors = (
{
name = top;
position = "{200, 600}";
}
);
layerId = "85A323BC-B6ED-4BBF-BDC0-2512995D313B";
paths = (
{
closed = 1;
nodes = (
"150 0 LINE",
"150 289 LINE",
"250 0 LINE",
"350 0 LINE",
"350 600 LINE",
"250 600 LINE",
"250 307 LINE",
"150 600 LINE",
"50 600 LINE",
"50 0 LINE"
);
}
);
width = 400;
},
{
anchors = (
{
name = top;
position = "{200, 700}";
}
);
layerId = "58F0F7D9-EF21-4AE8-AA27-0883B656C4D9";
paths = (
{
closed = 1;
nodes = (
"150 0 LINE",
"150 338 LINE",
"250 0 LINE",
"350 0 LINE",
"350 700 LINE",
"250 700 LINE",
"250 352 LINE",
"150 700 LINE",
"50 700 LINE",
"50 0 LINE"
);
}
);
width = 400;
},
{
anchors = (
{
name = top;
position = "{200, 800}";
}
);
layerId = "3368C2D0-32A5-4C39-8D28-9DDD3DF16F4F";
paths = (
{
closed = 1;
nodes = (
"150 0 LINE",
"150 388 LINE",
"250 0 LINE",
"350 0 LINE",
"350 800 LINE",
"250 800 LINE",
"250 402 LINE",
"150 800 LINE",
"50 800 LINE",
"50 0 LINE"
);
}
);
width = 400;
},
{
anchors = (
{
name = top;
position = "{200, 500}";
}
);
layerId = "63CBFDDD-5FDA-43A8-A05C-FA26C6515AD1";
paths = (
{
closed = 1;
nodes = (
"150 -100 LINE",
"150 244 LINE",
"250 0 LINE",
"350 0 LINE",
"350 600 LINE",
"250 600 LINE",
"250 258 LINE",
"150 500 LINE",
"50 500 LINE",
"50 -100 LINE"
);
}
);
width = 400;
},
{
anchors = (
{
name = top;
position = "{200, 500}";
}
);
layerId = "CF134569-8278-46EB-8532-B06C964AA883";
paths = (
{
closed = 1;
nodes = (
"150 -100 LINE",
"150 244 LINE",
"250 0 LINE",
"350 0 LINE",
"350 600 LINE",
"250 600 LINE",
"250 258 LINE",
"150 500 LINE",
"50 500 LINE",
"50 -100 LINE"
);
}
);
width = 400;
},
{
anchors = (
{
name = top;
position = "{200, 500}";
}
);
layerId = "E8EB710A-6856-432C-AFE6-A1B9D47CAF04";
paths = (
{
closed = 1;
nodes = (
"150 -100 LINE",
"150 244 LINE",
"250 0 LINE",
"350 0 LINE",
"350 600 LINE",
"250 600 LINE",
"250 258 LINE",
"150 500 LINE",
"50 500 LINE",
"50 -100 LINE"
);
}
);
width = 400;
},
{
anchors = (
{
name = top;
position = "{200, 500}";
}
);
layerId = "0F8CD6F6-1A2C-4C7A-A427-3AAD4A6CFB6E";
paths = (
{
closed = 1;
nodes = (
"150 -100 LINE",
"150 244 LINE",
"250 0 LINE",
"350 0 LINE",
"350 600 LINE",
"250 600 LINE",
"250 258 LINE",
"150 500 LINE",
"50 500 LINE",
"50 -100 LINE"
);
}
);
width = 400;
},
{
anchors = (
{
name = top;
position = "{200, 900}";
}
);
layerId = "41108C99-B873-4F4A-9E88-CBCA12FB0D05";
paths = (
{
closed = 1;
nodes = (
"150 0 LINE",
"150 438 LINE",
"250 0 LINE",
"350 0 LINE",
"350 900 LINE",
"250 900 LINE",
"250 452 LINE",
"150 900 LINE",
"50 900 LINE",
"50 0 LINE"
);
}
);
width = 400;
},
{
anchors = (
{
name = top;
position = "{200, 1000}";
}
);
layerId = "5D56F4E4-2991-4C7C-A53E-FE560A092132";
paths = (
{
closed = 1;
nodes = (
"150 0 LINE",
"150 488 LINE",
"250 0 LINE",
"350 0 LINE",
"350 1000 LINE",
"250 1000 LINE",
"250 502 LINE",
"150 1000 LINE",
"50 1000 LINE",
"50 0 LINE"
);
}
);
width = 400;
},
{
anchors = (
{
name = top;
position = "{200, 1100}";
}
);
layerId = "9A1EF6BF-4314-493F-A17F-58969295D1C4";
paths = (
{
closed = 1;
nodes = (
"150 0 LINE",
"150 538 LINE",
"250 0 LINE",
"350 0 LINE",
"350 1100 LINE",
"250 1100 LINE",
"250 552 LINE",
"150 1100 LINE",
"50 1100 LINE",
"50 0 LINE"
);
}
);
width = 400;
},
{
anchors = (
{
name = top;
position = "{200, 1100}";
}
);
layerId = "2B4E891D-0483-4126-8041-32DB51B0785F";
paths = (
{
closed = 1;
nodes = (
"150 0 LINE",
"150 538 LINE",
"250 0 LINE",
"350 0 LINE",
"350 1100 LINE",
"250 1100 LINE",
"250 552 LINE",
"150 1100 LINE",
"50 1100 LINE",
"50 0 LINE"
);
}
);
width = 400;
},
{
anchors = (
{
name = top;
position = "{200, 1100}";
}
);
layerId = "0BC27080-89BE-4C15-A6F1-E37C70B5878F";
paths = (
{
closed = 1;
nodes = (
"150 0 LINE",
"150 538 LINE",
"250 0 LINE",
"350 0 LINE",
"350 1100 LINE",
"250 1100 LINE",
"250 552 LINE",
"150 1100 LINE",
"50 1100 LINE",
"50 0 LINE"
);
}
);
width = 400;
},
{
anchors = (
{
name = top;
position = "{200, 500}";
}
);
layerId = "B23A0BE0-4E2E-4DF4-BF30-A2BC448F9F8A";
paths = (
{
closed = 1;
nodes = (
"150 -100 LINE",
"150 244 LINE",
"250 0 LINE",
"350 0 LINE",
"350 600 LINE",
"250 600 LINE",
"250 258 LINE",
"150 500 LINE",
"50 500 LINE",
"50 -100 LINE"
);
}
);
width = 400;
},
{
anchors = (
{
name = top;
position = "{200, 500}";
}
);
layerId = "88AB7EF4-8E55-4FD8-B008-AC05EDAD63AD";
paths = (
{
closed = 1;
nodes = (
"150 -100 LINE",
"150 244 LINE",
"250 0 LINE",
"350 0 LINE",
"350 600 LINE",
"250 600 LINE",
"250 258 LINE",
"150 500 LINE",
"50 500 LINE",
"50 -100 LINE"
);
}
);
width = 400;
},
{
anchors = (
{
name = top;
position = "{200, 500}";
}
);
layerId = "B0007273-59F2-4CFD-A0FF-908ED627D6A1";
paths = (
{
closed = 1;
nodes = (
"150 -100 LINE",
"150 244 LINE",
"250 0 LINE",
"350 0 LINE",
"350 600 LINE",
"250 600 LINE",
"250 258 LINE",
"150 500 LINE",
"50 500 LINE",
"50 -100 LINE"
);
}
);
width = 400;
},
{
anchors = (
{
name = top;
position = "{200, 500}";
}
);
layerId = "27366F57-305D-4002-8F95-2432B7DC5E73";
paths = (
{
closed = 1;
nodes = (
"150 -100 LINE",
"150 244 LINE",
"250 0 LINE",
"350 0 LINE",
"350 600 LINE",
"250 600 LINE",
"250 258 LINE",
"150 500 LINE",
"50 500 LINE",
"50 -100 LINE"
);
}
);
width = 400;
},
{
anchors = (
{
name = top;
position = "{200, 500}";
}
);
layerId = "2A7B0294-BC97-4636-A9D3-8FF17374F61F";
paths = (
{
closed = 1;
nodes = (
"150 -100 LINE",
"150 244 LINE",
"250 0 LINE",
"350 0 LINE",
"350 600 LINE",
"250 600 LINE",
"250 258 LINE",
"150 500 LINE",
"50 500 LINE",
"50 -100 LINE"
);
}
);
width = 400;
},
{
anchors = (
{
name = top;
position = "{200, 500}";
}
);
layerId = "2B5AA849-E4E9-4E2A-878C-F5A75DAAE598";
paths = (
{
closed = 1;
nodes = (
"150 -100 LINE",
"150 244 LINE",
"250 0 LINE",
"350 0 LINE",
"350 600 LINE",
"250 600 LINE",
"250 258 LINE",
"150 500 LINE",
"50 500 LINE",
"50 -100 LINE"
);
}
);
width = 400;
},
{
anchors = (
{
name = top;
position = "{200, 500}";
}
);
layerId = "B8F51F5F-46B4-48F2-BB1F-FCDE2D036373";
paths = (
{
closed = 1;
nodes = (
"150 -100 LINE",
"150 244 LINE",
"250 0 LINE",
"350 0 LINE",
"350 600 LINE",
"250 600 LINE",
"250 258 LINE",
"150 500 LINE",
"50 500 LINE",
"50 -100 LINE"
);
}
);
width = 400;
},
{
anchors = (
{
name = top;
position = "{200, 500}";
}
);
layerId = "6F3F633C-62D2-446A-B7E2-3DF68A2746C0";
paths = (
{
closed = 1;
nodes = (
"150 -100 LINE",
"150 244 LINE",
"250 0 LINE",
"350 0 LINE",
"350 600 LINE",
"250 600 LINE",
"250 258 LINE",
"150 500 LINE",
"50 500 LINE",
"50 -100 LINE"
);
}
);
width = 400;
}
);
unicode = 004E;
},
{
glyphname = Eng;
lastChange = "2019-06-08 15:51:38 +0000";
layers = (
{
guideLines = (
{
angle = -53.044;
position = "{71, 439}";
},
{
angle = 127.0984;
position = "{392, 180}";
}
);
layerId = "4DDCB0F7-694C-40EE-9BA1-BC0E1DE62EB1";
paths = (
{
closed = 1;
nodes = (
"150 200 LINE",
"150 334 LINE",
"250 200 LINE",
"250 100 LINE",
"50 100 LINE",
"50 0 LINE",
"350 0 LINE",
"350 500 LINE",
"250 500 LINE",
"250 368 LINE",
"150 500 LINE",
"50 500 LINE",
"50 200 LINE"
);
}
);
width = 400;
},
{
layerId = "1A5BB28E-E649-4EB3-8E8F-86ABB724B914";
paths = (
{
closed = 1;
nodes = (
"150 200 LINE",
"150 334 LINE",
"250 200 LINE",
"250 100 LINE",
"50 100 LINE",
"50 0 LINE",
"350 0 LINE",
"350 500 LINE",
"250 500 LINE",
"250 368 LINE",
"150 500 LINE",
"50 500 LINE",
"50 200 LINE"
);
}
);
width = 400;
},
{
layerId = "066B400D-25E0-4076-ABC6-3C593E532716";
paths = (
{
closed = 1;
nodes = (
"150 200 LINE",
"150 334 LINE",
"250 200 LINE",
"250 100 LINE",
"50 100 LINE",
"50 0 LINE",
"350 0 LINE",
"350 500 LINE",
"250 500 LINE",
"250 368 LINE",
"150 500 LINE",
"50 500 LINE",
"50 200 LINE"
);
}
);
width = 400;
},
{
layerId = "8A554741-4702-4062-BB66-90759B2989E8";
paths = (
{
closed = 1;
nodes = (
"150 200 LINE",
"150 334 LINE",
"250 200 LINE",
"250 100 LINE",
"50 100 LINE",
"50 0 LINE",
"350 0 LINE",
"350 500 LINE",
"250 500 LINE",
"250 368 LINE",
"150 500 LINE",
"50 500 LINE",
"50 200 LINE"
);
}
);
width = 400;
},
{
layerId = "85A323BC-B6ED-4BBF-BDC0-2512995D313B";
paths = (
{
closed = 1;
nodes = (
"150 200 LINE",
"150 334 LINE",
"250 200 LINE",
"250 100 LINE",
"50 100 LINE",
"50 0 LINE",
"350 0 LINE",
"350 500 LINE",
"250 500 LINE",
"250 368 LINE",
"150 500 LINE",
"50 500 LINE",
"50 200 LINE"
);
}
);
width = 400;
},
{
layerId = "58F0F7D9-EF21-4AE8-AA27-0883B656C4D9";
paths = (
{
closed = 1;
nodes = (
"150 200 LINE",
"150 334 LINE",
"250 200 LINE",
"250 100 LINE",
"50 100 LINE",
"50 0 LINE",
"350 0 LINE",
"350 500 LINE",
"250 500 LINE",
"250 368 LINE",
"150 500 LINE",
"50 500 LINE",
"50 200 LINE"
);
}
);
width = 400;
},
{
layerId = "3368C2D0-32A5-4C39-8D28-9DDD3DF16F4F";
paths = (
{
closed = 1;
nodes = (
"150 200 LINE",
"150 334 LINE",
"250 200 LINE",
"250 100 LINE",
"50 100 LINE",
"50 0 LINE",
"350 0 LINE",
"350 500 LINE",
"250 500 LINE",
"250 368 LINE",
"150 500 LINE",
"50 500 LINE",
"50 200 LINE"
);
}
);
width = 400;
},
{
layerId = "63CBFDDD-5FDA-43A8-A05C-FA26C6515AD1";
paths = (
{
closed = 1;
nodes = (
"150 200 LINE",
"150 334 LINE",
"250 200 LINE",
"250 100 LINE",
"50 100 LINE",
"50 0 LINE",
"350 0 LINE",
"350 500 LINE",
"250 500 LINE",
"250 368 LINE",
"150 500 LINE",
"50 500 LINE",
"50 200 LINE"
);
}
);
width = 400;
},
{
layerId = "CF134569-8278-46EB-8532-B06C964AA883";
paths = (
{
closed = 1;
nodes = (
"150 200 LINE",
"150 334 LINE",
"250 200 LINE",
"250 100 LINE",
"50 100 LINE",
"50 0 LINE",
"350 0 LINE",
"350 500 LINE",
"250 500 LINE",
"250 368 LINE",
"150 500 LINE",
"50 500 LINE",
"50 200 LINE"
);
}
);
width = 400;
},
{
layerId = "E8EB710A-6856-432C-AFE6-A1B9D47CAF04";
paths = (
{
closed = 1;
nodes = (
"150 200 LINE",
"150 334 LINE",
"250 200 LINE",
"250 100 LINE",
"50 100 LINE",
"50 0 LINE",
"350 0 LINE",
"350 500 LINE",
"250 500 LINE",
"250 368 LINE",
"150 500 LINE",
"50 500 LINE",
"50 200 LINE"
);
}
);
width = 400;
},
{
layerId = "0F8CD6F6-1A2C-4C7A-A427-3AAD4A6CFB6E";
paths = (
{
closed = 1;
nodes = (
"150 200 LINE",
"150 334 LINE",
"250 200 LINE",
"250 100 LINE",
"50 100 LINE",
"50 0 LINE",
"350 0 LINE",
"350 500 LINE",
"250 500 LINE",
"250 368 LINE",
"150 500 LINE",
"50 500 LINE",
"50 200 LINE"
);
}
);
width = 400;
},
{
layerId = "41108C99-B873-4F4A-9E88-CBCA12FB0D05";
paths = (
{
closed = 1;
nodes = (
"150 200 LINE",
"150 334 LINE",
"250 200 LINE",
"250 100 LINE",
"50 100 LINE",
"50 0 LINE",
"350 0 LINE",
"350 500 LINE",
"250 500 LINE",
"250 368 LINE",
"150 500 LINE",
"50 500 LINE",
"50 200 LINE"
);
}
);
width = 400;
},
{
layerId = "5D56F4E4-2991-4C7C-A53E-FE560A092132";
paths = (
{
closed = 1;
nodes = (
"150 200 LINE",
"150 334 LINE",
"250 200 LINE",
"250 100 LINE",
"50 100 LINE",
"50 0 LINE",
"350 0 LINE",
"350 500 LINE",
"250 500 LINE",
"250 368 LINE",
"150 500 LINE",
"50 500 LINE",
"50 200 LINE"
);
}
);
width = 400;
},
{
layerId = "9A1EF6BF-4314-493F-A17F-58969295D1C4";
paths = (
{
closed = 1;
nodes = (
"150 200 LINE",
"150 334 LINE",
"250 200 LINE",
"250 100 LINE",
"50 100 LINE",
"50 0 LINE",
"350 0 LINE",
"350 500 LINE",
"250 500 LINE",
"250 368 LINE",
"150 500 LINE",
"50 500 LINE",
"50 200 LINE"
);
}
);
width = 400;
},
{
layerId = "2B4E891D-0483-4126-8041-32DB51B0785F";
paths = (
{
closed = 1;
nodes = (
"150 200 LINE",
"150 334 LINE",
"250 200 LINE",
"250 100 LINE",
"50 100 LINE",
"50 0 LINE",
"350 0 LINE",
"350 500 LINE",
"250 500 LINE",
"250 368 LINE",
"150 500 LINE",
"50 500 LINE",
"50 200 LINE"
);
}
);
width = 400;
},
{
layerId = "0BC27080-89BE-4C15-A6F1-E37C70B5878F";
paths = (
{
closed = 1;
nodes = (
"150 200 LINE",
"150 334 LINE",
"250 200 LINE",
"250 100 LINE",
"50 100 LINE",
"50 0 LINE",
"350 0 LINE",
"350 500 LINE",
"250 500 LINE",
"250 368 LINE",
"150 500 LINE",
"50 500 LINE",
"50 200 LINE"
);
}
);
width = 400;
},
{
layerId = "B23A0BE0-4E2E-4DF4-BF30-A2BC448F9F8A";
paths = (
{
closed = 1;
nodes = (
"150 200 LINE",
"150 334 LINE",
"250 200 LINE",
"250 100 LINE",
"50 100 LINE",
"50 0 LINE",
"350 0 LINE",
"350 500 LINE",
"250 500 LINE",
"250 368 LINE",
"150 500 LINE",
"50 500 LINE",
"50 200 LINE"
);
}
);
width = 400;
},
{
layerId = "88AB7EF4-8E55-4FD8-B008-AC05EDAD63AD";
paths = (
{
closed = 1;
nodes = (
"150 200 LINE",
"150 334 LINE",
"250 200 LINE",
"250 100 LINE",
"50 100 LINE",
"50 0 LINE",
"350 0 LINE",
"350 500 LINE",
"250 500 LINE",
"250 368 LINE",
"150 500 LINE",
"50 500 LINE",
"50 200 LINE"
);
}
);
width = 400;
},
{
layerId = "B0007273-59F2-4CFD-A0FF-908ED627D6A1";
paths = (
{
closed = 1;
nodes = (
"150 200 LINE",
"150 334 LINE",
"250 200 LINE",
"250 100 LINE",
"50 100 LINE",
"50 0 LINE",
"350 0 LINE",
"350 500 LINE",
"250 500 LINE",
"250 368 LINE",
"150 500 LINE",
"50 500 LINE",
"50 200 LINE"
);
}
);
width = 400;
},
{
layerId = "27366F57-305D-4002-8F95-2432B7DC5E73";
paths = (
{
closed = 1;
nodes = (
"150 200 LINE",
"150 334 LINE",
"250 200 LINE",
"250 100 LINE",
"50 100 LINE",
"50 0 LINE",
"350 0 LINE",
"350 500 LINE",
"250 500 LINE",
"250 368 LINE",
"150 500 LINE",
"50 500 LINE",
"50 200 LINE"
);
}
);
width = 400;
},
{
layerId = "2A7B0294-BC97-4636-A9D3-8FF17374F61F";
paths = (
{
closed = 1;
nodes = (
"150 200 LINE",
"150 334 LINE",
"250 200 LINE",
"250 100 LINE",
"50 100 LINE",
"50 0 LINE",
"350 0 LINE",
"350 500 LINE",
"250 500 LINE",
"250 368 LINE",
"150 500 LINE",
"50 500 LINE",
"50 200 LINE"
);
}
);
width = 400;
},
{
layerId = "2B5AA849-E4E9-4E2A-878C-F5A75DAAE598";
paths = (
{
closed = 1;
nodes = (
"150 200 LINE",
"150 334 LINE",
"250 200 LINE",
"250 100 LINE",
"50 100 LINE",
"50 0 LINE",
"350 0 LINE",
"350 500 LINE",
"250 500 LINE",
"250 368 LINE",
"150 500 LINE",
"50 500 LINE",
"50 200 LINE"
);
}
);
width = 400;
},
{
layerId = "B8F51F5F-46B4-48F2-BB1F-FCDE2D036373";
paths = (
{
closed = 1;
nodes = (
"150 200 LINE",
"150 334 LINE",
"250 200 LINE",
"250 100 LINE",
"50 100 LINE",
"50 0 LINE",
"350 0 LINE",
"350 500 LINE",
"250 500 LINE",
"250 368 LINE",
"150 500 LINE",
"50 500 LINE",
"50 200 LINE"
);
}
);
width = 400;
},
{
layerId = "6F3F633C-62D2-446A-B7E2-3DF68A2746C0";
paths = (
{
closed = 1;
nodes = (
"150 200 LINE",
"150 334 LINE",
"250 200 LINE",
"250 100 LINE",
"50 100 LINE",
"50 0 LINE",
"350 0 LINE",
"350 500 LINE",
"250 500 LINE",
"250 368 LINE",
"150 500 LINE",
"50 500 LINE",
"50 200 LINE"
);
}
);
width = 400;
}
);
unicode = 014A;
},
{
glyphname = O;
lastChange = "2019-06-08 15:51:38 +0000";
layers = (
{
anchors = (
{
name = middle;
position = "{200, 245}";
},
{
name = top;
position = "{200, 500}";
}
);
layerId = "4DDCB0F7-694C-40EE-9BA1-BC0E1DE62EB1";
paths = (
{
closed = 1;
nodes = (
"50 0 LINE",
"350 0 LINE",
"350 500 LINE",
"50 500 LINE"
);
},
{
closed = 1;
nodes = (
"250 400 LINE",
"250 100 LINE",
"150 100 LINE",
"150 400 LINE"
);
}
);
width = 400;
},
{
anchors = (
{
name = middle;
position = "{200, 245}";
},
{
name = top;
position = "{200, 500}";
}
);
layerId = "1A5BB28E-E649-4EB3-8E8F-86ABB724B914";
paths = (
{
closed = 1;
nodes = (
"50 0 LINE",
"350 0 LINE",
"350 500 LINE",
"50 500 LINE"
);
},
{
closed = 1;
nodes = (
"250 400 LINE",
"250 100 LINE",
"150 100 LINE",
"150 400 LINE"
);
}
);
width = 400;
},
{
anchors = (
{
name = middle;
position = "{200, 245}";
},
{
name = top;
position = "{200, 500}";
}
);
layerId = "066B400D-25E0-4076-ABC6-3C593E532716";
paths = (
{
closed = 1;
nodes = (
"50 0 LINE",
"350 0 LINE",
"350 500 LINE",
"50 500 LINE"
);
},
{
closed = 1;
nodes = (
"250 400 LINE",
"250 100 LINE",
"150 100 LINE",
"150 400 LINE"
);
}
);
width = 400;
},
{
anchors = (
{
name = middle;
position = "{200, 245}";
},
{
name = top;
position = "{200, 500}";
}
);
layerId = "8A554741-4702-4062-BB66-90759B2989E8";
paths = (
{
closed = 1;
nodes = (
"50 0 LINE",
"350 0 LINE",
"350 500 LINE",
"50 500 LINE"
);
},
{
closed = 1;
nodes = (
"250 400 LINE",
"250 100 LINE",
"150 100 LINE",
"150 400 LINE"
);
}
);
width = 400;
},
{
anchors = (
{
name = middle;
position = "{200, 300}";
},
{
name = top;
position = "{200, 600}";
}
);
layerId = "85A323BC-B6ED-4BBF-BDC0-2512995D313B";
paths = (
{
closed = 1;
nodes = (
"50 0 LINE",
"350 0 LINE",
"350 600 LINE",
"50 600 LINE"
);
},
{
closed = 1;
nodes = (
"250 500 LINE",
"250 100 LINE",
"150 100 LINE",
"150 500 LINE"
);
}
);
width = 400;
},
{
anchors = (
{
name = middle;
position = "{200, 350}";
},
{
name = top;
position = "{200, 699}";
}
);
layerId = "58F0F7D9-EF21-4AE8-AA27-0883B656C4D9";
paths = (
{
closed = 1;
nodes = (
"50 0 LINE",
"350 0 LINE",
"350 700 LINE",
"50 700 LINE"
);
},
{
closed = 1;
nodes = (
"250 600 LINE",
"250 100 LINE",
"150 100 LINE",
"150 600 LINE"
);
}
);
width = 400;
},
{
anchors = (
{
name = middle;
position = "{200, 400}";
},
{
name = top;
position = "{200, 799}";
}
);
layerId = "3368C2D0-32A5-4C39-8D28-9DDD3DF16F4F";
paths = (
{
closed = 1;
nodes = (
"50 0 LINE",
"350 0 LINE",
"350 800 LINE",
"50 800 LINE"
);
},
{
closed = 1;
nodes = (
"250 700 LINE",
"250 100 LINE",
"150 100 LINE",
"150 700 LINE"
);
}
);
width = 400;
},
{
anchors = (
{
name = middle;
position = "{200, 245}";
},
{
name = top;
position = "{200, 500}";
}
);
layerId = "63CBFDDD-5FDA-43A8-A05C-FA26C6515AD1";
paths = (
{
closed = 1;
nodes = (
"50 0 LINE",
"350 0 LINE",
"350 500 LINE",
"50 500 LINE"
);
},
{
closed = 1;
nodes = (
"250 400 LINE",
"250 100 LINE",
"150 100 LINE",
"150 400 LINE"
);
}
);
width = 400;
},
{
anchors = (
{
name = middle;
position = "{200, 245}";
},
{
name = top;
position = "{200, 500}";
}
);
layerId = "CF134569-8278-46EB-8532-B06C964AA883";
paths = (
{
closed = 1;
nodes = (
"50 0 LINE",
"350 0 LINE",
"350 500 LINE",
"50 500 LINE"
);
},
{
closed = 1;
nodes = (
"250 400 LINE",
"250 100 LINE",
"150 100 LINE",
"150 400 LINE"
);
}
);
width = 400;
},
{
anchors = (
{
name = middle;
position = "{200, 245}";
},
{
name = top;
position = "{200, 500}";
}
);
layerId = "E8EB710A-6856-432C-AFE6-A1B9D47CAF04";
paths = (
{
closed = 1;
nodes = (
"50 0 LINE",
"350 0 LINE",
"350 500 LINE",
"50 500 LINE"
);
},
{
closed = 1;
nodes = (
"250 400 LINE",
"250 100 LINE",
"150 100 LINE",
"150 400 LINE"
);
}
);
width = 400;
},
{
anchors = (
{
name = middle;
position = "{200, 245}";
},
{
name = top;
position = "{200, 500}";
}
);
layerId = "0F8CD6F6-1A2C-4C7A-A427-3AAD4A6CFB6E";
paths = (
{
closed = 1;
nodes = (
"50 0 LINE",
"350 0 LINE",
"350 500 LINE",
"50 500 LINE"
);
},
{
closed = 1;
nodes = (
"250 400 LINE",
"250 100 LINE",
"150 100 LINE",
"150 400 LINE"
);
}
);
width = 400;
},
{
anchors = (
{
name = middle;
position = "{200, 450}";
},
{
name = top;
position = "{200, 899}";
}
);
layerId = "41108C99-B873-4F4A-9E88-CBCA12FB0D05";
paths = (
{
closed = 1;
nodes = (
"50 0 LINE",
"350 0 LINE",
"350 900 LINE",
"50 900 LINE"
);
},
{
closed = 1;
nodes = (
"250 800 LINE",
"250 100 LINE",
"150 100 LINE",
"150 800 LINE"
);
}
);
width = 400;
},
{
anchors = (
{
name = middle;
position = "{200, 500}";
},
{
name = top;
position = "{200, 999}";
}
);
layerId = "5D56F4E4-2991-4C7C-A53E-FE560A092132";
paths = (
{
closed = 1;
nodes = (
"50 0 LINE",
"350 0 LINE",
"350 1000 LINE",
"50 1000 LINE"
);
},
{
closed = 1;
nodes = (
"250 900 LINE",
"250 100 LINE",
"150 100 LINE",
"150 900 LINE"
);
}
);
width = 400;
},
{
anchors = (
{
name = middle;
position = "{200, 550}";
},
{
name = top;
position = "{200, 1099}";
}
);
layerId = "9A1EF6BF-4314-493F-A17F-58969295D1C4";
paths = (
{
closed = 1;
nodes = (
"50 0 LINE",
"350 0 LINE",
"350 1100 LINE",
"50 1100 LINE"
);
},
{
closed = 1;
nodes = (
"250 1000 LINE",
"250 100 LINE",
"150 100 LINE",
"150 1000 LINE"
);
}
);
width = 400;
},
{
anchors = (
{
name = middle;
position = "{200, 550}";
},
{
name = top;
position = "{200, 1099}";
}
);
layerId = "2B4E891D-0483-4126-8041-32DB51B0785F";
paths = (
{
closed = 1;
nodes = (
"50 0 LINE",
"350 0 LINE",
"350 1100 LINE",
"50 1100 LINE"
);
},
{
closed = 1;
nodes = (
"250 1000 LINE",
"250 100 LINE",
"150 100 LINE",
"150 1000 LINE"
);
}
);
width = 400;
},
{
anchors = (
{
name = middle;
position = "{200, 550}";
},
{
name = top;
position = "{200, 1099}";
}
);
layerId = "0BC27080-89BE-4C15-A6F1-E37C70B5878F";
paths = (
{
closed = 1;
nodes = (
"50 0 LINE",
"350 0 LINE",
"350 1100 LINE",
"50 1100 LINE"
);
},
{
closed = 1;
nodes = (
"250 1000 LINE",
"250 100 LINE",
"150 100 LINE",
"150 1000 LINE"
);
}
);
width = 400;
},
{
anchors = (
{
name = middle;
position = "{200, 245}";
},
{
name = top;
position = "{200, 500}";
}
);
layerId = "B23A0BE0-4E2E-4DF4-BF30-A2BC448F9F8A";
paths = (
{
closed = 1;
nodes = (
"50 0 LINE",
"350 0 LINE",
"350 500 LINE",
"50 500 LINE"
);
},
{
closed = 1;
nodes = (
"250 400 LINE",
"250 100 LINE",
"150 100 LINE",
"150 400 LINE"
);
}
);
width = 400;
},
{
anchors = (
{
name = middle;
position = "{200, 245}";
},
{
name = top;
position = "{200, 500}";
}
);
layerId = "88AB7EF4-8E55-4FD8-B008-AC05EDAD63AD";
paths = (
{
closed = 1;
nodes = (
"50 0 LINE",
"350 0 LINE",
"350 500 LINE",
"50 500 LINE"
);
},
{
closed = 1;
nodes = (
"250 400 LINE",
"250 100 LINE",
"150 100 LINE",
"150 400 LINE"
);
}
);
width = 400;
},
{
anchors = (
{
name = middle;
position = "{200, 245}";
},
{
name = top;
position = "{200, 500}";
}
);
layerId = "B0007273-59F2-4CFD-A0FF-908ED627D6A1";
paths = (
{
closed = 1;
nodes = (
"50 0 LINE",
"350 0 LINE",
"350 500 LINE",
"50 500 LINE"
);
},
{
closed = 1;
nodes = (
"250 400 LINE",
"250 100 LINE",
"150 100 LINE",
"150 400 LINE"
);
}
);
width = 400;
},
{
anchors = (
{
name = middle;
position = "{200, 245}";
},
{
name = top;
position = "{200, 500}";
}
);
layerId = "27366F57-305D-4002-8F95-2432B7DC5E73";
paths = (
{
closed = 1;
nodes = (
"50 0 LINE",
"350 0 LINE",
"350 500 LINE",
"50 500 LINE"
);
},
{
closed = 1;
nodes = (
"250 400 LINE",
"250 100 LINE",
"150 100 LINE",
"150 400 LINE"
);
}
);
width = 400;
},
{
anchors = (
{
name = middle;
position = "{200, 245}";
},
{
name = top;
position = "{200, 500}";
}
);
layerId = "2A7B0294-BC97-4636-A9D3-8FF17374F61F";
paths = (
{
closed = 1;
nodes = (
"50 0 LINE",
"350 0 LINE",
"350 500 LINE",
"50 500 LINE"
);
},
{
closed = 1;
nodes = (
"250 400 LINE",
"250 100 LINE",
"150 100 LINE",
"150 400 LINE"
);
}
);
width = 400;
},
{
anchors = (
{
name = middle;
position = "{200, 245}";
},
{
name = top;
position = "{200, 500}";
}
);
layerId = "2B5AA849-E4E9-4E2A-878C-F5A75DAAE598";
paths = (
{
closed = 1;
nodes = (
"50 0 LINE",
"350 0 LINE",
"350 500 LINE",
"50 500 LINE"
);
},
{
closed = 1;
nodes = (
"250 400 LINE",
"250 100 LINE",
"150 100 LINE",
"150 400 LINE"
);
}
);
width = 400;
},
{
anchors = (
{
name = middle;
position = "{200, 245}";
},
{
name = top;
position = "{200, 500}";
}
);
layerId = "B8F51F5F-46B4-48F2-BB1F-FCDE2D036373";
paths = (
{
closed = 1;
nodes = (
"50 0 LINE",
"350 0 LINE",
"350 500 LINE",
"50 500 LINE"
);
},
{
closed = 1;
nodes = (
"250 400 LINE",
"250 100 LINE",
"150 100 LINE",
"150 400 LINE"
);
}
);
width = 400;
},
{
anchors = (
{
name = middle;
position = "{200, 245}";
},
{
name = top;
position = "{200, 500}";
}
);
layerId = "6F3F633C-62D2-446A-B7E2-3DF68A2746C0";
paths = (
{
closed = 1;
nodes = (
"50 0 LINE",
"350 0 LINE",
"350 500 LINE",
"50 500 LINE"
);
},
{
closed = 1;
nodes = (
"250 400 LINE",
"250 100 LINE",
"150 100 LINE",
"150 400 LINE"
);
}
);
width = 400;
}
);
unicode = 004F;
},
{
glyphname = OE;
lastChange = "2019-06-08 15:51:38 +0000";
layers = (
{
layerId = "4DDCB0F7-694C-40EE-9BA1-BC0E1DE62EB1";
paths = (
{
closed = 1;
nodes = (
"550 0 LINE",
"550 100 LINE",
"350 100 LINE",
"350 200 LINE",
"550 200 LINE",
"550 300 LINE",
"350 300 LINE",
"350 400 LINE",
"550 400 LINE",
"550 500 LINE",
"50 500 LINE",
"50 0 LINE"
);
},
{
closed = 1;
nodes = (
"150 400 LINE",
"250 400 LINE",
"250 100 LINE",
"150 100 LINE"
);
}
);
width = 600;
},
{
layerId = "1A5BB28E-E649-4EB3-8E8F-86ABB724B914";
paths = (
{
closed = 1;
nodes = (
"550 0 LINE",
"550 100 LINE",
"350 100 LINE",
"350 200 LINE",
"550 200 LINE",
"550 300 LINE",
"350 300 LINE",
"350 400 LINE",
"650 400 LINE",
"650 500 LINE",
"50 500 LINE",
"50 0 LINE"
);
},
{
closed = 1;
nodes = (
"150 400 LINE",
"250 400 LINE",
"250 100 LINE",
"150 100 LINE"
);
}
);
width = 600;
},
{
layerId = "066B400D-25E0-4076-ABC6-3C593E532716";
paths = (
{
closed = 1;
nodes = (
"550 0 LINE",
"550 100 LINE",
"350 100 LINE",
"350 200 LINE",
"650 200 LINE",
"650 300 LINE",
"350 300 LINE",
"350 400 LINE",
"550 400 LINE",
"550 500 LINE",
"50 500 LINE",
"50 0 LINE"
);
},
{
closed = 1;
nodes = (
"150 400 LINE",
"250 400 LINE",
"250 100 LINE",
"150 100 LINE"
);
}
);
width = 600;
},
{
layerId = "8A554741-4702-4062-BB66-90759B2989E8";
paths = (
{
closed = 1;
nodes = (
"650 0 LINE",
"650 100 LINE",
"350 100 LINE",
"350 200 LINE",
"550 200 LINE",
"550 300 LINE",
"350 300 LINE",
"350 400 LINE",
"550 400 LINE",
"550 500 LINE",
"50 500 LINE",
"50 0 LINE"
);
},
{
closed = 1;
nodes = (
"150 400 LINE",
"250 400 LINE",
"250 100 LINE",
"150 100 LINE"
);
}
);
width = 600;
},
{
layerId = "85A323BC-B6ED-4BBF-BDC0-2512995D313B";
paths = (
{
closed = 1;
nodes = (
"550 0 LINE",
"550 100 LINE",
"350 100 LINE",
"350 200 LINE",
"550 200 LINE",
"550 300 LINE",
"350 300 LINE",
"350 500 LINE",
"550 500 LINE",
"550 600 LINE",
"50 600 LINE",
"50 0 LINE"
);
},
{
closed = 1;
nodes = (
"150 500 LINE",
"250 500 LINE",
"250 100 LINE",
"150 100 LINE"
);
}
);
width = 600;
},
{
layerId = "58F0F7D9-EF21-4AE8-AA27-0883B656C4D9";
paths = (
{
closed = 1;
nodes = (
"550 0 LINE",
"550 100 LINE",
"350 100 LINE",
"350 300 LINE",
"550 300 LINE",
"550 400 LINE",
"350 400 LINE",
"350 600 LINE",
"550 600 LINE",
"550 700 LINE",
"50 700 LINE",
"50 0 LINE"
);
},
{
closed = 1;
nodes = (
"150 600 LINE",
"250 600 LINE",
"250 100 LINE",
"150 100 LINE"
);
}
);
width = 600;
},
{
layerId = "3368C2D0-32A5-4C39-8D28-9DDD3DF16F4F";
paths = (
{
closed = 1;
nodes = (
"550 0 LINE",
"550 100 LINE",
"350 100 LINE",
"350 300 LINE",
"550 300 LINE",
"550 400 LINE",
"350 400 LINE",
"350 700 LINE",
"550 700 LINE",
"550 800 LINE",
"50 800 LINE",
"50 0 LINE"
);
},
{
closed = 1;
nodes = (
"150 700 LINE",
"250 700 LINE",
"250 100 LINE",
"150 100 LINE"
);
}
);
width = 600;
},
{
layerId = "63CBFDDD-5FDA-43A8-A05C-FA26C6515AD1";
paths = (
{
closed = 1;
nodes = (
"550 0 LINE",
"550 100 LINE",
"350 100 LINE",
"350 200 LINE",
"650 200 LINE",
"650 300 LINE",
"350 300 LINE",
"350 400 LINE",
"650 400 LINE",
"650 500 LINE",
"50 500 LINE",
"50 0 LINE"
);
},
{
closed = 1;
nodes = (
"150 400 LINE",
"250 400 LINE",
"250 100 LINE",
"150 100 LINE"
);
}
);
width = 600;
},
{
layerId = "CF134569-8278-46EB-8532-B06C964AA883";
paths = (
{
closed = 1;
nodes = (
"650 0 LINE",
"650 100 LINE",
"350 100 LINE",
"350 200 LINE",
"550 200 LINE",
"550 300 LINE",
"350 300 LINE",
"350 400 LINE",
"650 400 LINE",
"650 500 LINE",
"50 500 LINE",
"50 0 LINE"
);
},
{
closed = 1;
nodes = (
"150 400 LINE",
"250 400 LINE",
"250 100 LINE",
"150 100 LINE"
);
}
);
width = 600;
},
{
layerId = "E8EB710A-6856-432C-AFE6-A1B9D47CAF04";
paths = (
{
closed = 1;
nodes = (
"650 0 LINE",
"650 100 LINE",
"350 100 LINE",
"350 200 LINE",
"650 200 LINE",
"650 300 LINE",
"350 300 LINE",
"350 400 LINE",
"550 400 LINE",
"550 500 LINE",
"50 500 LINE",
"50 0 LINE"
);
},
{
closed = 1;
nodes = (
"150 400 LINE",
"250 400 LINE",
"250 100 LINE",
"150 100 LINE"
);
}
);
width = 600;
},
{
layerId = "0F8CD6F6-1A2C-4C7A-A427-3AAD4A6CFB6E";
paths = (
{
closed = 1;
nodes = (
"650 0 LINE",
"650 100 LINE",
"350 100 LINE",
"350 200 LINE",
"650 200 LINE",
"650 300 LINE",
"350 300 LINE",
"350 400 LINE",
"650 400 LINE",
"650 500 LINE",
"50 500 LINE",
"50 0 LINE"
);
},
{
closed = 1;
nodes = (
"150 400 LINE",
"250 400 LINE",
"250 100 LINE",
"150 100 LINE"
);
}
);
width = 600;
},
{
layerId = "41108C99-B873-4F4A-9E88-CBCA12FB0D05";
paths = (
{
closed = 1;
nodes = (
"550 0 LINE",
"550 100 LINE",
"350 100 LINE",
"350 400 LINE",
"550 400 LINE",
"550 500 LINE",
"350 500 LINE",
"350 800 LINE",
"550 800 LINE",
"550 900 LINE",
"50 900 LINE",
"50 0 LINE"
);
},
{
closed = 1;
nodes = (
"150 800 LINE",
"250 800 LINE",
"250 100 LINE",
"150 100 LINE"
);
}
);
width = 600;
},
{
layerId = "5D56F4E4-2991-4C7C-A53E-FE560A092132";
paths = (
{
closed = 1;
nodes = (
"550 0 LINE",
"550 100 LINE",
"350 100 LINE",
"350 400 LINE",
"550 400 LINE",
"550 500 LINE",
"350 500 LINE",
"350 900 LINE",
"550 900 LINE",
"550 1000 LINE",
"50 1000 LINE",
"50 0 LINE"
);
},
{
closed = 1;
nodes = (
"150 900 LINE",
"250 900 LINE",
"250 100 LINE",
"150 100 LINE"
);
}
);
width = 600;
},
{
layerId = "9A1EF6BF-4314-493F-A17F-58969295D1C4";
paths = (
{
closed = 1;
nodes = (
"550 0 LINE",
"550 100 LINE",
"350 100 LINE",
"350 500 LINE",
"550 500 LINE",
"550 600 LINE",
"350 600 LINE",
"350 1000 LINE",
"550 1000 LINE",
"550 1100 LINE",
"50 1100 LINE",
"50 0 LINE"
);
},
{
closed = 1;
nodes = (
"150 1000 LINE",
"250 1000 LINE",
"250 100 LINE",
"150 100 LINE"
);
}
);
width = 600;
},
{
layerId = "2B4E891D-0483-4126-8041-32DB51B0785F";
paths = (
{
closed = 1;
nodes = (
"550 0 LINE",
"550 100 LINE",
"350 100 LINE",
"350 500 LINE",
"550 500 LINE",
"550 600 LINE",
"350 600 LINE",
"350 1000 LINE",
"550 1000 LINE",
"550 1100 LINE",
"50 1100 LINE",
"50 0 LINE"
);
},
{
closed = 1;
nodes = (
"150 1000 LINE",
"250 1000 LINE",
"250 100 LINE",
"150 100 LINE"
);
}
);
width = 600;
},
{
layerId = "0BC27080-89BE-4C15-A6F1-E37C70B5878F";
paths = (
{
closed = 1;
nodes = (
"550 0 LINE",
"550 100 LINE",
"350 100 LINE",
"350 500 LINE",
"550 500 LINE",
"550 600 LINE",
"350 600 LINE",
"350 1000 LINE",
"550 1000 LINE",
"550 1100 LINE",
"50 1100 LINE",
"50 0 LINE"
);
},
{
closed = 1;
nodes = (
"150 1000 LINE",
"250 1000 LINE",
"250 100 LINE",
"150 100 LINE"
);
}
);
width = 600;
},
{
layerId = "B23A0BE0-4E2E-4DF4-BF30-A2BC448F9F8A";
paths = (
{
closed = 1;
nodes = (
"650 0 LINE",
"650 100 LINE",
"350 100 LINE",
"350 200 LINE",
"650 200 LINE",
"650 300 LINE",
"350 300 LINE",
"350 400 LINE",
"650 400 LINE",
"650 500 LINE",
"50 500 LINE",
"50 0 LINE"
);
},
{
closed = 1;
nodes = (
"150 400 LINE",
"250 400 LINE",
"250 100 LINE",
"150 100 LINE"
);
}
);
width = 600;
},
{
layerId = "88AB7EF4-8E55-4FD8-B008-AC05EDAD63AD";
paths = (
{
closed = 1;
nodes = (
"650 0 LINE",
"650 100 LINE",
"350 100 LINE",
"350 200 LINE",
"650 200 LINE",
"650 300 LINE",
"350 300 LINE",
"350 400 LINE",
"650 400 LINE",
"650 500 LINE",
"50 500 LINE",
"50 0 LINE"
);
},
{
closed = 1;
nodes = (
"150 400 LINE",
"250 400 LINE",
"250 100 LINE",
"150 100 LINE"
);
}
);
width = 600;
},
{
layerId = "B0007273-59F2-4CFD-A0FF-908ED627D6A1";
paths = (
{
closed = 1;
nodes = (
"650 0 LINE",
"650 100 LINE",
"350 100 LINE",
"350 200 LINE",
"650 200 LINE",
"650 300 LINE",
"350 300 LINE",
"350 400 LINE",
"650 400 LINE",
"650 500 LINE",
"50 500 LINE",
"50 0 LINE"
);
},
{
closed = 1;
nodes = (
"150 400 LINE",
"250 400 LINE",
"250 100 LINE",
"150 100 LINE"
);
}
);
width = 600;
},
{
layerId = "27366F57-305D-4002-8F95-2432B7DC5E73";
paths = (
{
closed = 1;
nodes = (
"650 0 LINE",
"650 100 LINE",
"350 100 LINE",
"350 200 LINE",
"650 200 LINE",
"650 300 LINE",
"350 300 LINE",
"350 400 LINE",
"650 400 LINE",
"650 500 LINE",
"50 500 LINE",
"50 0 LINE"
);
},
{
closed = 1;
nodes = (
"150 400 LINE",
"250 400 LINE",
"250 100 LINE",
"150 100 LINE"
);
}
);
width = 600;
},
{
layerId = "2A7B0294-BC97-4636-A9D3-8FF17374F61F";
paths = (
{
closed = 1;
nodes = (
"650 0 LINE",
"650 100 LINE",
"350 100 LINE",
"350 200 LINE",
"650 200 LINE",
"650 300 LINE",
"350 300 LINE",
"350 400 LINE",
"650 400 LINE",
"650 500 LINE",
"50 500 LINE",
"50 0 LINE"
);
},
{
closed = 1;
nodes = (
"150 400 LINE",
"250 400 LINE",
"250 100 LINE",
"150 100 LINE"
);
}
);
width = 600;
},
{
layerId = "2B5AA849-E4E9-4E2A-878C-F5A75DAAE598";
paths = (
{
closed = 1;
nodes = (
"650 0 LINE",
"650 100 LINE",
"350 100 LINE",
"350 200 LINE",
"650 200 LINE",
"650 300 LINE",
"350 300 LINE",
"350 400 LINE",
"650 400 LINE",
"650 500 LINE",
"50 500 LINE",
"50 0 LINE"
);
},
{
closed = 1;
nodes = (
"150 400 LINE",
"250 400 LINE",
"250 100 LINE",
"150 100 LINE"
);
}
);
width = 600;
},
{
layerId = "B8F51F5F-46B4-48F2-BB1F-FCDE2D036373";
paths = (
{
closed = 1;
nodes = (
"650 0 LINE",
"650 100 LINE",
"350 100 LINE",
"350 200 LINE",
"650 200 LINE",
"650 300 LINE",
"350 300 LINE",
"350 400 LINE",
"650 400 LINE",
"650 500 LINE",
"50 500 LINE",
"50 0 LINE"
);
},
{
closed = 1;
nodes = (
"150 400 LINE",
"250 400 LINE",
"250 100 LINE",
"150 100 LINE"
);
}
);
width = 600;
},
{
layerId = "6F3F633C-62D2-446A-B7E2-3DF68A2746C0";
paths = (
{
closed = 1;
nodes = (
"650 0 LINE",
"650 100 LINE",
"350 100 LINE",
"350 200 LINE",
"650 200 LINE",
"650 300 LINE",
"350 300 LINE",
"350 400 LINE",
"650 400 LINE",
"650 500 LINE",
"50 500 LINE",
"50 0 LINE"
);
},
{
closed = 1;
nodes = (
"150 400 LINE",
"250 400 LINE",
"250 100 LINE",
"150 100 LINE"
);
}
);
width = 600;
}
);
unicode = 0152;
},
{
glyphname = P;
lastChange = "2019-06-08 15:51:38 +0000";
layers = (
{
layerId = "4DDCB0F7-694C-40EE-9BA1-BC0E1DE62EB1";
paths = (
{
closed = 1;
nodes = (
"150 0 LINE",
"150 200 LINE",
"350 200 LINE",
"350 500 LINE",
"50 500 LINE",
"50 0 LINE"
);
},
{
closed = 1;
nodes = (
"150 400 LINE",
"250 400 LINE",
"250 300 LINE",
"150 300 LINE"
);
}
);
width = 400;
},
{
layerId = "1A5BB28E-E649-4EB3-8E8F-86ABB724B914";
paths = (
{
closed = 1;
nodes = (
"150 -100 LINE",
"150 200 LINE",
"350 200 LINE",
"350 500 LINE",
"50 500 LINE",
"50 -100 LINE"
);
},
{
closed = 1;
nodes = (
"150 400 LINE",
"250 400 LINE",
"250 300 LINE",
"150 300 LINE"
);
}
);
width = 400;
},
{
layerId = "066B400D-25E0-4076-ABC6-3C593E532716";
paths = (
{
closed = 1;
nodes = (
"150 -100 LINE",
"150 200 LINE",
"350 200 LINE",
"350 500 LINE",
"50 500 LINE",
"50 -100 LINE"
);
},
{
closed = 1;
nodes = (
"150 400 LINE",
"250 400 LINE",
"250 300 LINE",
"150 300 LINE"
);
}
);
width = 400;
},
{
layerId = "8A554741-4702-4062-BB66-90759B2989E8";
paths = (
{
closed = 1;
nodes = (
"150 -100 LINE",
"150 200 LINE",
"350 200 LINE",
"350 500 LINE",
"50 500 LINE",
"50 -100 LINE"
);
},
{
closed = 1;
nodes = (
"150 400 LINE",
"250 400 LINE",
"250 300 LINE",
"150 300 LINE"
);
}
);
width = 400;
},
{
layerId = "85A323BC-B6ED-4BBF-BDC0-2512995D313B";
paths = (
{
closed = 1;
nodes = (
"150 0 LINE",
"150 200 LINE",
"350 200 LINE",
"350 600 LINE",
"50 600 LINE",
"50 0 LINE"
);
},
{
closed = 1;
nodes = (
"150 500 LINE",
"250 500 LINE",
"250 300 LINE",
"150 300 LINE"
);
}
);
width = 400;
},
{
layerId = "58F0F7D9-EF21-4AE8-AA27-0883B656C4D9";
paths = (
{
closed = 1;
nodes = (
"150 0 LINE",
"150 200 LINE",
"350 200 LINE",
"350 700 LINE",
"50 700 LINE",
"50 0 LINE"
);
},
{
closed = 1;
nodes = (
"150 600 LINE",
"250 600 LINE",
"250 300 LINE",
"150 300 LINE"
);
}
);
width = 400;
},
{
layerId = "3368C2D0-32A5-4C39-8D28-9DDD3DF16F4F";
paths = (
{
closed = 1;
nodes = (
"150 0 LINE",
"150 200 LINE",
"350 200 LINE",
"350 800 LINE",
"50 800 LINE",
"50 0 LINE"
);
},
{
closed = 1;
nodes = (
"150 700 LINE",
"250 700 LINE",
"250 300 LINE",
"150 300 LINE"
);
}
);
width = 400;
},
{
layerId = "63CBFDDD-5FDA-43A8-A05C-FA26C6515AD1";
paths = (
{
closed = 1;
nodes = (
"150 -100 LINE",
"150 200 LINE",
"350 200 LINE",
"350 500 LINE",
"50 500 LINE",
"50 -100 LINE"
);
},
{
closed = 1;
nodes = (
"150 400 LINE",
"250 400 LINE",
"250 300 LINE",
"150 300 LINE"
);
}
);
width = 400;
},
{
layerId = "CF134569-8278-46EB-8532-B06C964AA883";
paths = (
{
closed = 1;
nodes = (
"150 -100 LINE",
"150 200 LINE",
"350 200 LINE",
"350 500 LINE",
"50 500 LINE",
"50 -100 LINE"
);
},
{
closed = 1;
nodes = (
"150 400 LINE",
"250 400 LINE",
"250 300 LINE",
"150 300 LINE"
);
}
);
width = 400;
},
{
layerId = "E8EB710A-6856-432C-AFE6-A1B9D47CAF04";
paths = (
{
closed = 1;
nodes = (
"150 -100 LINE",
"150 200 LINE",
"350 200 LINE",
"350 500 LINE",
"50 500 LINE",
"50 -100 LINE"
);
},
{
closed = 1;
nodes = (
"150 400 LINE",
"250 400 LINE",
"250 300 LINE",
"150 300 LINE"
);
}
);
width = 400;
},
{
layerId = "0F8CD6F6-1A2C-4C7A-A427-3AAD4A6CFB6E";
paths = (
{
closed = 1;
nodes = (
"150 -100 LINE",
"150 200 LINE",
"350 200 LINE",
"350 500 LINE",
"50 500 LINE",
"50 -100 LINE"
);
},
{
closed = 1;
nodes = (
"150 400 LINE",
"250 400 LINE",
"250 300 LINE",
"150 300 LINE"
);
}
);
width = 400;
},
{
layerId = "41108C99-B873-4F4A-9E88-CBCA12FB0D05";
paths = (
{
closed = 1;
nodes = (
"150 0 LINE",
"150 200 LINE",
"350 200 LINE",
"350 900 LINE",
"50 900 LINE",
"50 0 LINE"
);
},
{
closed = 1;
nodes = (
"150 800 LINE",
"250 800 LINE",
"250 300 LINE",
"150 300 LINE"
);
}
);
width = 400;
},
{
layerId = "5D56F4E4-2991-4C7C-A53E-FE560A092132";
paths = (
{
closed = 1;
nodes = (
"150 0 LINE",
"150 200 LINE",
"350 200 LINE",
"350 1000 LINE",
"50 1000 LINE",
"50 0 LINE"
);
},
{
closed = 1;
nodes = (
"150 900 LINE",
"250 900 LINE",
"250 300 LINE",
"150 300 LINE"
);
}
);
width = 400;
},
{
layerId = "9A1EF6BF-4314-493F-A17F-58969295D1C4";
paths = (
{
closed = 1;
nodes = (
"150 0 LINE",
"150 200 LINE",
"350 200 LINE",
"350 1100 LINE",
"50 1100 LINE",
"50 0 LINE"
);
},
{
closed = 1;
nodes = (
"150 1000 LINE",
"250 1000 LINE",
"250 300 LINE",
"150 300 LINE"
);
}
);
width = 400;
},
{
layerId = "2B4E891D-0483-4126-8041-32DB51B0785F";
paths = (
{
closed = 1;
nodes = (
"150 0 LINE",
"150 200 LINE",
"350 200 LINE",
"350 1100 LINE",
"50 1100 LINE",
"50 0 LINE"
);
},
{
closed = 1;
nodes = (
"150 1000 LINE",
"250 1000 LINE",
"250 300 LINE",
"150 300 LINE"
);
}
);
width = 400;
},
{
layerId = "0BC27080-89BE-4C15-A6F1-E37C70B5878F";
paths = (
{
closed = 1;
nodes = (
"150 0 LINE",
"150 200 LINE",
"350 200 LINE",
"350 1100 LINE",
"50 1100 LINE",
"50 0 LINE"
);
},
{
closed = 1;
nodes = (
"150 1000 LINE",
"250 1000 LINE",
"250 300 LINE",
"150 300 LINE"
);
}
);
width = 400;
},
{
layerId = "B23A0BE0-4E2E-4DF4-BF30-A2BC448F9F8A";
paths = (
{
closed = 1;
nodes = (
"150 -100 LINE",
"150 200 LINE",
"350 200 LINE",
"350 500 LINE",
"50 500 LINE",
"50 -100 LINE"
);
},
{
closed = 1;
nodes = (
"150 400 LINE",
"250 400 LINE",
"250 300 LINE",
"150 300 LINE"
);
}
);
width = 400;
},
{
layerId = "88AB7EF4-8E55-4FD8-B008-AC05EDAD63AD";
paths = (
{
closed = 1;
nodes = (
"150 -100 LINE",
"150 200 LINE",
"350 200 LINE",
"350 500 LINE",
"50 500 LINE",
"50 -100 LINE"
);
},
{
closed = 1;
nodes = (
"150 400 LINE",
"250 400 LINE",
"250 300 LINE",
"150 300 LINE"
);
}
);
width = 400;
},
{
layerId = "B0007273-59F2-4CFD-A0FF-908ED627D6A1";
paths = (
{
closed = 1;
nodes = (
"150 -100 LINE",
"150 200 LINE",
"350 200 LINE",
"350 500 LINE",
"50 500 LINE",
"50 -100 LINE"
);
},
{
closed = 1;
nodes = (
"150 400 LINE",
"250 400 LINE",
"250 300 LINE",
"150 300 LINE"
);
}
);
width = 400;
},
{
layerId = "27366F57-305D-4002-8F95-2432B7DC5E73";
paths = (
{
closed = 1;
nodes = (
"150 -100 LINE",
"150 200 LINE",
"350 200 LINE",
"350 500 LINE",
"50 500 LINE",
"50 -100 LINE"
);
},
{
closed = 1;
nodes = (
"150 400 LINE",
"250 400 LINE",
"250 300 LINE",
"150 300 LINE"
);
}
);
width = 400;
},
{
layerId = "2A7B0294-BC97-4636-A9D3-8FF17374F61F";
paths = (
{
closed = 1;
nodes = (
"150 -100 LINE",
"150 200 LINE",
"350 200 LINE",
"350 500 LINE",
"50 500 LINE",
"50 -100 LINE"
);
},
{
closed = 1;
nodes = (
"150 400 LINE",
"250 400 LINE",
"250 300 LINE",
"150 300 LINE"
);
}
);
width = 400;
},
{
layerId = "2B5AA849-E4E9-4E2A-878C-F5A75DAAE598";
paths = (
{
closed = 1;
nodes = (
"150 -100 LINE",
"150 200 LINE",
"350 200 LINE",
"350 500 LINE",
"50 500 LINE",
"50 -100 LINE"
);
},
{
closed = 1;
nodes = (
"150 400 LINE",
"250 400 LINE",
"250 300 LINE",
"150 300 LINE"
);
}
);
width = 400;
},
{
layerId = "B8F51F5F-46B4-48F2-BB1F-FCDE2D036373";
paths = (
{
closed = 1;
nodes = (
"150 -100 LINE",
"150 200 LINE",
"350 200 LINE",
"350 500 LINE",
"50 500 LINE",
"50 -100 LINE"
);
},
{
closed = 1;
nodes = (
"150 400 LINE",
"250 400 LINE",
"250 300 LINE",
"150 300 LINE"
);
}
);
width = 400;
},
{
layerId = "6F3F633C-62D2-446A-B7E2-3DF68A2746C0";
paths = (
{
closed = 1;
nodes = (
"150 -100 LINE",
"150 200 LINE",
"350 200 LINE",
"350 500 LINE",
"50 500 LINE",
"50 -100 LINE"
);
},
{
closed = 1;
nodes = (
"150 400 LINE",
"250 400 LINE",
"250 300 LINE",
"150 300 LINE"
);
}
);
width = 400;
}
);
unicode = 0050;
},
{
glyphname = Thorn;
lastChange = "2019-06-08 15:51:38 +0000";
layers = (
{
layerId = "4DDCB0F7-694C-40EE-9BA1-BC0E1DE62EB1";
paths = (
{
closed = 1;
nodes = (
"150 0 LINE",
"150 100 LINE",
"350 100 LINE",
"350 400 LINE",
"150 400 LINE",
"150 500 LINE",
"50 500 LINE",
"50 0 LINE"
);
},
{
closed = 1;
nodes = (
"250 300 LINE",
"250 200 LINE",
"150 200 LINE",
"150 300 LINE"
);
}
);
width = 400;
},
{
layerId = "1A5BB28E-E649-4EB3-8E8F-86ABB724B914";
paths = (
{
closed = 1;
nodes = (
"150 0 LINE",
"150 100 LINE",
"350 100 LINE",
"350 400 LINE",
"150 400 LINE",
"150 600 LINE",
"50 600 LINE",
"50 0 LINE"
);
},
{
closed = 1;
nodes = (
"250 300 LINE",
"250 200 LINE",
"150 200 LINE",
"150 300 LINE"
);
}
);
width = 400;
},
{
layerId = "066B400D-25E0-4076-ABC6-3C593E532716";
paths = (
{
closed = 1;
nodes = (
"150 -100 LINE",
"150 100 LINE",
"350 100 LINE",
"350 400 LINE",
"150 400 LINE",
"150 500 LINE",
"50 500 LINE",
"50 -100 LINE"
);
},
{
closed = 1;
nodes = (
"250 300 LINE",
"250 200 LINE",
"150 200 LINE",
"150 300 LINE"
);
}
);
width = 400;
},
{
layerId = "8A554741-4702-4062-BB66-90759B2989E8";
paths = (
{
closed = 1;
nodes = (
"150 -100 LINE",
"150 100 LINE",
"350 100 LINE",
"350 400 LINE",
"150 400 LINE",
"150 600 LINE",
"50 600 LINE",
"50 -100 LINE"
);
},
{
closed = 1;
nodes = (
"250 300 LINE",
"250 200 LINE",
"150 200 LINE",
"150 300 LINE"
);
}
);
width = 400;
},
{
layerId = "85A323BC-B6ED-4BBF-BDC0-2512995D313B";
paths = (
{
closed = 1;
nodes = (
"150 0 LINE",
"150 100 LINE",
"350 100 LINE",
"350 500 LINE",
"150 500 LINE",
"150 600 LINE",
"50 600 LINE",
"50 0 LINE"
);
},
{
closed = 1;
nodes = (
"250 400 LINE",
"250 200 LINE",
"150 200 LINE",
"150 400 LINE"
);
}
);
width = 400;
},
{
layerId = "58F0F7D9-EF21-4AE8-AA27-0883B656C4D9";
paths = (
{
closed = 1;
nodes = (
"150 0 LINE",
"150 100 LINE",
"350 100 LINE",
"350 600 LINE",
"150 600 LINE",
"150 700 LINE",
"50 700 LINE",
"50 0 LINE"
);
},
{
closed = 1;
nodes = (
"250 500 LINE",
"250 200 LINE",
"150 200 LINE",
"150 500 LINE"
);
}
);
width = 400;
},
{
layerId = "3368C2D0-32A5-4C39-8D28-9DDD3DF16F4F";
paths = (
{
closed = 1;
nodes = (
"150 0 LINE",
"150 100 LINE",
"350 100 LINE",
"350 700 LINE",
"150 700 LINE",
"150 800 LINE",
"50 800 LINE",
"50 0 LINE"
);
},
{
closed = 1;
nodes = (
"250 600 LINE",
"250 200 LINE",
"150 200 LINE",
"150 600 LINE"
);
}
);
width = 400;
},
{
layerId = "63CBFDDD-5FDA-43A8-A05C-FA26C6515AD1";
paths = (
{
closed = 1;
nodes = (
"150 -100 LINE",
"150 100 LINE",
"350 100 LINE",
"350 400 LINE",
"150 400 LINE",
"150 600 LINE",
"50 600 LINE",
"50 -100 LINE"
);
},
{
closed = 1;
nodes = (
"250 300 LINE",
"250 200 LINE",
"150 200 LINE",
"150 300 LINE"
);
}
);
width = 400;
},
{
layerId = "CF134569-8278-46EB-8532-B06C964AA883";
paths = (
{
closed = 1;
nodes = (
"150 -100 LINE",
"150 100 LINE",
"350 100 LINE",
"350 400 LINE",
"150 400 LINE",
"150 600 LINE",
"50 600 LINE",
"50 -100 LINE"
);
},
{
closed = 1;
nodes = (
"250 300 LINE",
"250 200 LINE",
"150 200 LINE",
"150 300 LINE"
);
}
);
width = 400;
},
{
layerId = "E8EB710A-6856-432C-AFE6-A1B9D47CAF04";
paths = (
{
closed = 1;
nodes = (
"150 -100 LINE",
"150 100 LINE",
"350 100 LINE",
"350 400 LINE",
"150 400 LINE",
"150 600 LINE",
"50 600 LINE",
"50 -100 LINE"
);
},
{
closed = 1;
nodes = (
"250 300 LINE",
"250 200 LINE",
"150 200 LINE",
"150 300 LINE"
);
}
);
width = 400;
},
{
layerId = "0F8CD6F6-1A2C-4C7A-A427-3AAD4A6CFB6E";
paths = (
{
closed = 1;
nodes = (
"150 -100 LINE",
"150 100 LINE",
"350 100 LINE",
"350 400 LINE",
"150 400 LINE",
"150 600 LINE",
"50 600 LINE",
"50 -100 LINE"
);
},
{
closed = 1;
nodes = (
"250 300 LINE",
"250 200 LINE",
"150 200 LINE",
"150 300 LINE"
);
}
);
width = 400;
},
{
layerId = "41108C99-B873-4F4A-9E88-CBCA12FB0D05";
paths = (
{
closed = 1;
nodes = (
"150 0 LINE",
"150 100 LINE",
"350 100 LINE",
"350 800 LINE",
"150 800 LINE",
"150 900 LINE",
"50 900 LINE",
"50 0 LINE"
);
},
{
closed = 1;
nodes = (
"250 700 LINE",
"250 200 LINE",
"150 200 LINE",
"150 700 LINE"
);
}
);
width = 400;
},
{
layerId = "5D56F4E4-2991-4C7C-A53E-FE560A092132";
paths = (
{
closed = 1;
nodes = (
"150 0 LINE",
"150 100 LINE",
"350 100 LINE",
"350 900 LINE",
"150 900 LINE",
"150 1000 LINE",
"50 1000 LINE",
"50 0 LINE"
);
},
{
closed = 1;
nodes = (
"250 800 LINE",
"250 200 LINE",
"150 200 LINE",
"150 800 LINE"
);
}
);
width = 400;
},
{
layerId = "9A1EF6BF-4314-493F-A17F-58969295D1C4";
paths = (
{
closed = 1;
nodes = (
"150 0 LINE",
"150 100 LINE",
"350 100 LINE",
"350 1000 LINE",
"150 1000 LINE",
"150 1100 LINE",
"50 1100 LINE",
"50 0 LINE"
);
},
{
closed = 1;
nodes = (
"250 900 LINE",
"250 200 LINE",
"150 200 LINE",
"150 900 LINE"
);
}
);
width = 400;
},
{
layerId = "2B4E891D-0483-4126-8041-32DB51B0785F";
paths = (
{
closed = 1;
nodes = (
"150 0 LINE",
"150 100 LINE",
"350 100 LINE",
"350 1000 LINE",
"150 1000 LINE",
"150 1100 LINE",
"50 1100 LINE",
"50 0 LINE"
);
},
{
closed = 1;
nodes = (
"250 900 LINE",
"250 200 LINE",
"150 200 LINE",
"150 900 LINE"
);
}
);
width = 400;
},
{
layerId = "0BC27080-89BE-4C15-A6F1-E37C70B5878F";
paths = (
{
closed = 1;
nodes = (
"150 0 LINE",
"150 100 LINE",
"350 100 LINE",
"350 1000 LINE",
"150 1000 LINE",
"150 1100 LINE",
"50 1100 LINE",
"50 0 LINE"
);
},
{
closed = 1;
nodes = (
"250 900 LINE",
"250 200 LINE",
"150 200 LINE",
"150 900 LINE"
);
}
);
width = 400;
},
{
layerId = "B23A0BE0-4E2E-4DF4-BF30-A2BC448F9F8A";
paths = (
{
closed = 1;
nodes = (
"150 -100 LINE",
"150 100 LINE",
"350 100 LINE",
"350 400 LINE",
"150 400 LINE",
"150 600 LINE",
"50 600 LINE",
"50 -100 LINE"
);
},
{
closed = 1;
nodes = (
"250 300 LINE",
"250 200 LINE",
"150 200 LINE",
"150 300 LINE"
);
}
);
width = 400;
},
{
layerId = "88AB7EF4-8E55-4FD8-B008-AC05EDAD63AD";
paths = (
{
closed = 1;
nodes = (
"150 -100 LINE",
"150 100 LINE",
"350 100 LINE",
"350 400 LINE",
"150 400 LINE",
"150 600 LINE",
"50 600 LINE",
"50 -100 LINE"
);
},
{
closed = 1;
nodes = (
"250 300 LINE",
"250 200 LINE",
"150 200 LINE",
"150 300 LINE"
);
}
);
width = 400;
},
{
layerId = "B0007273-59F2-4CFD-A0FF-908ED627D6A1";
paths = (
{
closed = 1;
nodes = (
"150 -100 LINE",
"150 100 LINE",
"350 100 LINE",
"350 400 LINE",
"150 400 LINE",
"150 600 LINE",
"50 600 LINE",
"50 -100 LINE"
);
},
{
closed = 1;
nodes = (
"250 300 LINE",
"250 200 LINE",
"150 200 LINE",
"150 300 LINE"
);
}
);
width = 400;
},
{
layerId = "27366F57-305D-4002-8F95-2432B7DC5E73";
paths = (
{
closed = 1;
nodes = (
"150 -100 LINE",
"150 100 LINE",
"350 100 LINE",
"350 400 LINE",
"150 400 LINE",
"150 600 LINE",
"50 600 LINE",
"50 -100 LINE"
);
},
{
closed = 1;
nodes = (
"250 300 LINE",
"250 200 LINE",
"150 200 LINE",
"150 300 LINE"
);
}
);
width = 400;
},
{
layerId = "2A7B0294-BC97-4636-A9D3-8FF17374F61F";
paths = (
{
closed = 1;
nodes = (
"150 -100 LINE",
"150 100 LINE",
"350 100 LINE",
"350 400 LINE",
"150 400 LINE",
"150 600 LINE",
"50 600 LINE",
"50 -100 LINE"
);
},
{
closed = 1;
nodes = (
"250 300 LINE",
"250 200 LINE",
"150 200 LINE",
"150 300 LINE"
);
}
);
width = 400;
},
{
layerId = "2B5AA849-E4E9-4E2A-878C-F5A75DAAE598";
paths = (
{
closed = 1;
nodes = (
"150 -100 LINE",
"150 100 LINE",
"350 100 LINE",
"350 400 LINE",
"150 400 LINE",
"150 600 LINE",
"50 600 LINE",
"50 -100 LINE"
);
},
{
closed = 1;
nodes = (
"250 300 LINE",
"250 200 LINE",
"150 200 LINE",
"150 300 LINE"
);
}
);
width = 400;
},
{
layerId = "B8F51F5F-46B4-48F2-BB1F-FCDE2D036373";
paths = (
{
closed = 1;
nodes = (
"150 -100 LINE",
"150 100 LINE",
"350 100 LINE",
"350 400 LINE",
"150 400 LINE",
"150 600 LINE",
"50 600 LINE",
"50 -100 LINE"
);
},
{
closed = 1;
nodes = (
"250 300 LINE",
"250 200 LINE",
"150 200 LINE",
"150 300 LINE"
);
}
);
width = 400;
},
{
layerId = "6F3F633C-62D2-446A-B7E2-3DF68A2746C0";
paths = (
{
closed = 1;
nodes = (
"150 -100 LINE",
"150 100 LINE",
"350 100 LINE",
"350 400 LINE",
"150 400 LINE",
"150 600 LINE",
"50 600 LINE",
"50 -100 LINE"
);
},
{
closed = 1;
nodes = (
"250 300 LINE",
"250 200 LINE",
"150 200 LINE",
"150 300 LINE"
);
}
);
width = 400;
}
);
unicode = 00DE;
},
